M48
; DRILL file {KiCad (7.0.0)} date Thu Jun  1 09:58:37 2023
; FORMAT={-:-/ absolute / inch / decimal}
; #@! TF.CreationDate,2023-06-01T09:58:37-06:00
; #@! TF.GenerationSoftware,Kicad,Pcbnew,(7.0.0)
; #@! TF.FileFunction,Plated,1,2,PTH
FMAT,2
INCH
; #@! TA.AperFunction,Plated,PTH,ViaDrill
T1C0.0157
; #@! TA.AperFunction,Plated,PTH,ComponentDrill
T2C0.0256
; #@! TA.AperFunction,Plated,PTH,ComponentDrill
T3C0.0394
; #@! TA.AperFunction,Plated,PTH,ComponentDrill
T4C0.0433
; #@! TA.AperFunction,Plated,PTH,ComponentDrill
T5C0.0591
%
G90
G05
T1
X4.2Y-3.6
X4.41Y-2.54
X4.5Y-2.88
X5.09Y-3.46
X5.36Y-2.15
X5.45Y-3.6
T2
X4.72Y-3.59
X4.72Y-3.69
X4.72Y-3.79
X4.72Y-3.89
X4.72Y-3.99
X4.72Y-4.09
X4.72Y-4.19
X4.72Y-4.29
X4.72Y-4.39
X5.02Y-3.59
X5.02Y-3.69
X5.02Y-3.79
X5.02Y-3.89
X5.02Y-3.99
X5.02Y-4.09
X5.02Y-4.19
X5.02Y-4.29
X5.02Y-4.39
T3
X3.7933Y-2.1138
X3.7933Y-2.2138
X3.7933Y-2.3138
X3.7933Y-2.4138
X3.7933Y-2.5138
X3.7933Y-2.6138
X3.7933Y-2.7138
X3.7933Y-2.8138
X3.7933Y-2.9138
X3.7933Y-3.0138
X3.7933Y-3.1138
X3.7933Y-3.2138
X3.7933Y-3.3138
X3.7933Y-3.4138
X3.7933Y-3.5138
X3.7933Y-3.6138
X3.7933Y-3.7138
X3.7933Y-3.8138
X3.7933Y-3.9138
X3.7933Y-4.0138
X3.7933Y-4.1138
X3.7933Y-4.2138
X3.7933Y-4.3138
X3.7933Y-4.4138
X3.7933Y-4.5138
X3.8933Y-2.1138
X3.8933Y-2.2138
X3.8933Y-2.3138
X3.8933Y-2.4138
X3.8933Y-2.5138
X3.8933Y-2.6138
X3.8933Y-2.7138
X3.8933Y-2.8138
X3.8933Y-2.9138
X3.8933Y-3.0138
X3.8933Y-3.1138
X3.8933Y-3.2138
X3.8933Y-3.3138
X3.8933Y-3.4138
X3.8933Y-3.5138
X3.8933Y-3.6138
X3.8933Y-3.7138
X3.8933Y-3.8138
X3.8933Y-3.9138
X3.8933Y-4.0138
X3.8933Y-4.1138
X3.8933Y-4.2138
X3.8933Y-4.3138
X3.8933Y-4.4138
X3.8933Y-4.5138
X4.1108Y-2.455
X4.41Y-2.455
X4.6908Y-3.3632
X4.7908Y-3.3632
X4.8908Y-3.3632
X4.9908Y-3.3632
X5.0908Y-3.3632
X5.3416Y-3.7396
X5.3416Y-4.3105
X5.3616Y-2.2296
X5.44Y-4.3105
X5.46Y-2.2296
X5.5384Y-3.7396
X5.5384Y-4.3105
X5.5584Y-2.2296
X5.7918Y-2.1144
X5.7918Y-2.2144
X5.7918Y-2.3144
X5.7918Y-2.4144
X5.7918Y-2.5144
X5.7918Y-2.6144
X5.7918Y-2.7144
X5.7918Y-2.8144
X5.7918Y-2.9144
X5.7918Y-3.0144
X5.7918Y-3.1144
X5.7918Y-3.2144
X5.7918Y-3.3144
X5.7918Y-3.4144
X5.7918Y-3.5144
X5.7918Y-3.6144
X5.7918Y-3.7144
X5.7918Y-3.8144
X5.7918Y-3.9144
X5.7918Y-4.0144
X5.7918Y-4.1144
X5.7918Y-4.2144
X5.7918Y-4.3144
X5.7918Y-4.4144
X5.7918Y-4.5144
X5.8918Y-2.1144
X5.8918Y-2.2144
X5.8918Y-2.3144
X5.8918Y-2.4144
X5.8918Y-2.5144
X5.8918Y-2.6144
X5.8918Y-2.7144
X5.8918Y-2.8144
X5.8918Y-2.9144
X5.8918Y-3.0144
X5.8918Y-3.1144
X5.8918Y-3.2144
X5.8918Y-3.3144
X5.8918Y-3.4144
X5.8918Y-3.5144
X5.8918Y-3.6144
X5.8918Y-3.7144
X5.8918Y-3.8144
X5.8918Y-3.9144
X5.8918Y-4.0144
X5.8918Y-4.1144
X5.8918Y-4.2144
X5.8918Y-4.3144
X5.8918Y-4.4144
X5.8918Y-4.5144
T4
G00X5.271Y-2.5111
M15
G01X5.271Y-2.5387
M16
G05
G00X5.649Y-2.5111
M15
G01X5.649Y-2.5387
M16
G05
T5
G00X5.2195Y-4.0408
M15
G01X5.2195Y-3.9896
M16
G05
G00X5.6605Y-4.0408
M15
G01X5.6605Y-3.9896
M16
G05
T0
M30
