%TF.GenerationSoftware,KiCad,Pcbnew,(7.0.0)*%
%TF.CreationDate,2023-06-01T09:58:41-06:00*%
%TF.ProjectId,morseTrans_proto,6d6f7273-6554-4726-916e-735f70726f74,rev?*%
%TF.SameCoordinates,Original*%
%TF.FileFunction,Profile,NP*%
%FSLAX46Y46*%
G04 Gerber Fmt 4.6, Leading zero omitted, Abs format (unit mm)*
G04 Created by KiCad (PCBNEW (7.0.0)) date 2023-06-01 09:58:41*
%MOMM*%
%LPD*%
G01*
G04 APERTURE LIST*
%TA.AperFunction,Profile*%
%ADD10C,0.100000*%
%TD*%
%ADD11C,0.150000*%
G04 APERTURE END LIST*
D10*
X112892400Y-89255600D02*
G75*
G03*
X112892400Y-89255600I-2250000J0D01*
G01*
X103936800Y-102362000D02*
X114147600Y-102362000D01*
X114147600Y-102362000D02*
X114147600Y-116992400D01*
X114147600Y-116992400D02*
X103936800Y-116992400D01*
X103936800Y-116992400D02*
X103936800Y-102362000D01*
X136819200Y-89255600D02*
G75*
G03*
X136819200Y-89255600I-2250000J0D01*
G01*
X90000000Y-49777748D02*
X156000000Y-49777748D01*
X156000000Y-49777748D02*
X156000000Y-117000000D01*
X156000000Y-117000000D02*
X90000000Y-117000000D01*
X90000000Y-117000000D02*
X90000000Y-49777748D01*
D11*
X118938095Y-128217379D02*
X118747619Y-128217379D01*
X118747619Y-128217379D02*
X118652381Y-128264999D01*
X118652381Y-128264999D02*
X118604762Y-128312618D01*
X118604762Y-128312618D02*
X118509524Y-128455475D01*
X118509524Y-128455475D02*
X118461905Y-128645951D01*
X118461905Y-128645951D02*
X118461905Y-129026903D01*
X118461905Y-129026903D02*
X118509524Y-129122141D01*
X118509524Y-129122141D02*
X118557143Y-129169760D01*
X118557143Y-129169760D02*
X118652381Y-129217379D01*
X118652381Y-129217379D02*
X118842857Y-129217379D01*
X118842857Y-129217379D02*
X118938095Y-129169760D01*
X118938095Y-129169760D02*
X118985714Y-129122141D01*
X118985714Y-129122141D02*
X119033333Y-129026903D01*
X119033333Y-129026903D02*
X119033333Y-128788808D01*
X119033333Y-128788808D02*
X118985714Y-128693570D01*
X118985714Y-128693570D02*
X118938095Y-128645951D01*
X118938095Y-128645951D02*
X118842857Y-128598332D01*
X118842857Y-128598332D02*
X118652381Y-128598332D01*
X118652381Y-128598332D02*
X118557143Y-128645951D01*
X118557143Y-128645951D02*
X118509524Y-128693570D01*
X118509524Y-128693570D02*
X118461905Y-128788808D01*
X119890476Y-128217379D02*
X119700000Y-128217379D01*
X119700000Y-128217379D02*
X119604762Y-128264999D01*
X119604762Y-128264999D02*
X119557143Y-128312618D01*
X119557143Y-128312618D02*
X119461905Y-128455475D01*
X119461905Y-128455475D02*
X119414286Y-128645951D01*
X119414286Y-128645951D02*
X119414286Y-129026903D01*
X119414286Y-129026903D02*
X119461905Y-129122141D01*
X119461905Y-129122141D02*
X119509524Y-129169760D01*
X119509524Y-129169760D02*
X119604762Y-129217379D01*
X119604762Y-129217379D02*
X119795238Y-129217379D01*
X119795238Y-129217379D02*
X119890476Y-129169760D01*
X119890476Y-129169760D02*
X119938095Y-129122141D01*
X119938095Y-129122141D02*
X119985714Y-129026903D01*
X119985714Y-129026903D02*
X119985714Y-128788808D01*
X119985714Y-128788808D02*
X119938095Y-128693570D01*
X119938095Y-128693570D02*
X119890476Y-128645951D01*
X119890476Y-128645951D02*
X119795238Y-128598332D01*
X119795238Y-128598332D02*
X119604762Y-128598332D01*
X119604762Y-128598332D02*
X119509524Y-128645951D01*
X119509524Y-128645951D02*
X119461905Y-128693570D01*
X119461905Y-128693570D02*
X119414286Y-128788808D01*
X120414286Y-129122141D02*
X120461905Y-129169760D01*
X120461905Y-129169760D02*
X120414286Y-129217379D01*
X120414286Y-129217379D02*
X120366667Y-129169760D01*
X120366667Y-129169760D02*
X120414286Y-129122141D01*
X120414286Y-129122141D02*
X120414286Y-129217379D01*
X121080952Y-128217379D02*
X121176190Y-128217379D01*
X121176190Y-128217379D02*
X121271428Y-128264999D01*
X121271428Y-128264999D02*
X121319047Y-128312618D01*
X121319047Y-128312618D02*
X121366666Y-128407856D01*
X121366666Y-128407856D02*
X121414285Y-128598332D01*
X121414285Y-128598332D02*
X121414285Y-128836427D01*
X121414285Y-128836427D02*
X121366666Y-129026903D01*
X121366666Y-129026903D02*
X121319047Y-129122141D01*
X121319047Y-129122141D02*
X121271428Y-129169760D01*
X121271428Y-129169760D02*
X121176190Y-129217379D01*
X121176190Y-129217379D02*
X121080952Y-129217379D01*
X121080952Y-129217379D02*
X120985714Y-129169760D01*
X120985714Y-129169760D02*
X120938095Y-129122141D01*
X120938095Y-129122141D02*
X120890476Y-129026903D01*
X120890476Y-129026903D02*
X120842857Y-128836427D01*
X120842857Y-128836427D02*
X120842857Y-128598332D01*
X120842857Y-128598332D02*
X120890476Y-128407856D01*
X120890476Y-128407856D02*
X120938095Y-128312618D01*
X120938095Y-128312618D02*
X120985714Y-128264999D01*
X120985714Y-128264999D02*
X121080952Y-128217379D01*
X122033333Y-128217379D02*
X122128571Y-128217379D01*
X122128571Y-128217379D02*
X122223809Y-128264999D01*
X122223809Y-128264999D02*
X122271428Y-128312618D01*
X122271428Y-128312618D02*
X122319047Y-128407856D01*
X122319047Y-128407856D02*
X122366666Y-128598332D01*
X122366666Y-128598332D02*
X122366666Y-128836427D01*
X122366666Y-128836427D02*
X122319047Y-129026903D01*
X122319047Y-129026903D02*
X122271428Y-129122141D01*
X122271428Y-129122141D02*
X122223809Y-129169760D01*
X122223809Y-129169760D02*
X122128571Y-129217379D01*
X122128571Y-129217379D02*
X122033333Y-129217379D01*
X122033333Y-129217379D02*
X121938095Y-129169760D01*
X121938095Y-129169760D02*
X121890476Y-129122141D01*
X121890476Y-129122141D02*
X121842857Y-129026903D01*
X121842857Y-129026903D02*
X121795238Y-128836427D01*
X121795238Y-128836427D02*
X121795238Y-128598332D01*
X121795238Y-128598332D02*
X121842857Y-128407856D01*
X121842857Y-128407856D02*
X121890476Y-128312618D01*
X121890476Y-128312618D02*
X121938095Y-128264999D01*
X121938095Y-128264999D02*
X122033333Y-128217379D01*
X122985714Y-128217379D02*
X123080952Y-128217379D01*
X123080952Y-128217379D02*
X123176190Y-128264999D01*
X123176190Y-128264999D02*
X123223809Y-128312618D01*
X123223809Y-128312618D02*
X123271428Y-128407856D01*
X123271428Y-128407856D02*
X123319047Y-128598332D01*
X123319047Y-128598332D02*
X123319047Y-128836427D01*
X123319047Y-128836427D02*
X123271428Y-129026903D01*
X123271428Y-129026903D02*
X123223809Y-129122141D01*
X123223809Y-129122141D02*
X123176190Y-129169760D01*
X123176190Y-129169760D02*
X123080952Y-129217379D01*
X123080952Y-129217379D02*
X122985714Y-129217379D01*
X122985714Y-129217379D02*
X122890476Y-129169760D01*
X122890476Y-129169760D02*
X122842857Y-129122141D01*
X122842857Y-129122141D02*
X122795238Y-129026903D01*
X122795238Y-129026903D02*
X122747619Y-128836427D01*
X122747619Y-128836427D02*
X122747619Y-128598332D01*
X122747619Y-128598332D02*
X122795238Y-128407856D01*
X122795238Y-128407856D02*
X122842857Y-128312618D01*
X122842857Y-128312618D02*
X122890476Y-128264999D01*
X122890476Y-128264999D02*
X122985714Y-128217379D01*
X123938095Y-128217379D02*
X124033333Y-128217379D01*
X124033333Y-128217379D02*
X124128571Y-128264999D01*
X124128571Y-128264999D02*
X124176190Y-128312618D01*
X124176190Y-128312618D02*
X124223809Y-128407856D01*
X124223809Y-128407856D02*
X124271428Y-128598332D01*
X124271428Y-128598332D02*
X124271428Y-128836427D01*
X124271428Y-128836427D02*
X124223809Y-129026903D01*
X124223809Y-129026903D02*
X124176190Y-129122141D01*
X124176190Y-129122141D02*
X124128571Y-129169760D01*
X124128571Y-129169760D02*
X124033333Y-129217379D01*
X124033333Y-129217379D02*
X123938095Y-129217379D01*
X123938095Y-129217379D02*
X123842857Y-129169760D01*
X123842857Y-129169760D02*
X123795238Y-129122141D01*
X123795238Y-129122141D02*
X123747619Y-129026903D01*
X123747619Y-129026903D02*
X123700000Y-128836427D01*
X123700000Y-128836427D02*
X123700000Y-128598332D01*
X123700000Y-128598332D02*
X123747619Y-128407856D01*
X123747619Y-128407856D02*
X123795238Y-128312618D01*
X123795238Y-128312618D02*
X123842857Y-128264999D01*
X123842857Y-128264999D02*
X123938095Y-128217379D01*
X125300000Y-129217379D02*
X125300000Y-128550713D01*
X125300000Y-128645951D02*
X125347619Y-128598332D01*
X125347619Y-128598332D02*
X125442857Y-128550713D01*
X125442857Y-128550713D02*
X125585714Y-128550713D01*
X125585714Y-128550713D02*
X125680952Y-128598332D01*
X125680952Y-128598332D02*
X125728571Y-128693570D01*
X125728571Y-128693570D02*
X125728571Y-129217379D01*
X125728571Y-128693570D02*
X125776190Y-128598332D01*
X125776190Y-128598332D02*
X125871428Y-128550713D01*
X125871428Y-128550713D02*
X126014285Y-128550713D01*
X126014285Y-128550713D02*
X126109524Y-128598332D01*
X126109524Y-128598332D02*
X126157143Y-128693570D01*
X126157143Y-128693570D02*
X126157143Y-129217379D01*
X126633333Y-129217379D02*
X126633333Y-128550713D01*
X126633333Y-128645951D02*
X126680952Y-128598332D01*
X126680952Y-128598332D02*
X126776190Y-128550713D01*
X126776190Y-128550713D02*
X126919047Y-128550713D01*
X126919047Y-128550713D02*
X127014285Y-128598332D01*
X127014285Y-128598332D02*
X127061904Y-128693570D01*
X127061904Y-128693570D02*
X127061904Y-129217379D01*
X127061904Y-128693570D02*
X127109523Y-128598332D01*
X127109523Y-128598332D02*
X127204761Y-128550713D01*
X127204761Y-128550713D02*
X127347618Y-128550713D01*
X127347618Y-128550713D02*
X127442857Y-128598332D01*
X127442857Y-128598332D02*
X127490476Y-128693570D01*
X127490476Y-128693570D02*
X127490476Y-129217379D01*
D10*
X90000000Y-117500000D02*
X90000000Y-130586419D01*
X156000000Y-117500000D02*
X156000000Y-130586419D01*
X90000000Y-129999999D02*
X156000000Y-129999999D01*
X90000000Y-129999999D02*
X156000000Y-129999999D01*
X90000000Y-129999999D02*
X91126504Y-129413578D01*
X90000000Y-129999999D02*
X91126504Y-130586420D01*
X156000000Y-129999999D02*
X154873496Y-130586420D01*
X156000000Y-129999999D02*
X154873496Y-129413578D01*
D11*
X171217380Y-87450778D02*
X171217380Y-87641254D01*
X171217380Y-87641254D02*
X171265000Y-87736492D01*
X171265000Y-87736492D02*
X171312619Y-87784111D01*
X171312619Y-87784111D02*
X171455476Y-87879349D01*
X171455476Y-87879349D02*
X171645952Y-87926968D01*
X171645952Y-87926968D02*
X172026904Y-87926968D01*
X172026904Y-87926968D02*
X172122142Y-87879349D01*
X172122142Y-87879349D02*
X172169761Y-87831730D01*
X172169761Y-87831730D02*
X172217380Y-87736492D01*
X172217380Y-87736492D02*
X172217380Y-87546016D01*
X172217380Y-87546016D02*
X172169761Y-87450778D01*
X172169761Y-87450778D02*
X172122142Y-87403159D01*
X172122142Y-87403159D02*
X172026904Y-87355540D01*
X172026904Y-87355540D02*
X171788809Y-87355540D01*
X171788809Y-87355540D02*
X171693571Y-87403159D01*
X171693571Y-87403159D02*
X171645952Y-87450778D01*
X171645952Y-87450778D02*
X171598333Y-87546016D01*
X171598333Y-87546016D02*
X171598333Y-87736492D01*
X171598333Y-87736492D02*
X171645952Y-87831730D01*
X171645952Y-87831730D02*
X171693571Y-87879349D01*
X171693571Y-87879349D02*
X171788809Y-87926968D01*
X171217380Y-87022206D02*
X171217380Y-86355540D01*
X171217380Y-86355540D02*
X172217380Y-86784111D01*
X172122142Y-85974587D02*
X172169761Y-85926968D01*
X172169761Y-85926968D02*
X172217380Y-85974587D01*
X172217380Y-85974587D02*
X172169761Y-86022206D01*
X172169761Y-86022206D02*
X172122142Y-85974587D01*
X172122142Y-85974587D02*
X172217380Y-85974587D01*
X171312619Y-85546016D02*
X171265000Y-85498397D01*
X171265000Y-85498397D02*
X171217380Y-85403159D01*
X171217380Y-85403159D02*
X171217380Y-85165064D01*
X171217380Y-85165064D02*
X171265000Y-85069826D01*
X171265000Y-85069826D02*
X171312619Y-85022207D01*
X171312619Y-85022207D02*
X171407857Y-84974588D01*
X171407857Y-84974588D02*
X171503095Y-84974588D01*
X171503095Y-84974588D02*
X171645952Y-85022207D01*
X171645952Y-85022207D02*
X172217380Y-85593635D01*
X172217380Y-85593635D02*
X172217380Y-84974588D01*
X171312619Y-84593635D02*
X171265000Y-84546016D01*
X171265000Y-84546016D02*
X171217380Y-84450778D01*
X171217380Y-84450778D02*
X171217380Y-84212683D01*
X171217380Y-84212683D02*
X171265000Y-84117445D01*
X171265000Y-84117445D02*
X171312619Y-84069826D01*
X171312619Y-84069826D02*
X171407857Y-84022207D01*
X171407857Y-84022207D02*
X171503095Y-84022207D01*
X171503095Y-84022207D02*
X171645952Y-84069826D01*
X171645952Y-84069826D02*
X172217380Y-84641254D01*
X172217380Y-84641254D02*
X172217380Y-84022207D01*
X171312619Y-83641254D02*
X171265000Y-83593635D01*
X171265000Y-83593635D02*
X171217380Y-83498397D01*
X171217380Y-83498397D02*
X171217380Y-83260302D01*
X171217380Y-83260302D02*
X171265000Y-83165064D01*
X171265000Y-83165064D02*
X171312619Y-83117445D01*
X171312619Y-83117445D02*
X171407857Y-83069826D01*
X171407857Y-83069826D02*
X171503095Y-83069826D01*
X171503095Y-83069826D02*
X171645952Y-83117445D01*
X171645952Y-83117445D02*
X172217380Y-83688873D01*
X172217380Y-83688873D02*
X172217380Y-83069826D01*
X171217380Y-82736492D02*
X171217380Y-82117445D01*
X171217380Y-82117445D02*
X171598333Y-82450778D01*
X171598333Y-82450778D02*
X171598333Y-82307921D01*
X171598333Y-82307921D02*
X171645952Y-82212683D01*
X171645952Y-82212683D02*
X171693571Y-82165064D01*
X171693571Y-82165064D02*
X171788809Y-82117445D01*
X171788809Y-82117445D02*
X172026904Y-82117445D01*
X172026904Y-82117445D02*
X172122142Y-82165064D01*
X172122142Y-82165064D02*
X172169761Y-82212683D01*
X172169761Y-82212683D02*
X172217380Y-82307921D01*
X172217380Y-82307921D02*
X172217380Y-82593635D01*
X172217380Y-82593635D02*
X172169761Y-82688873D01*
X172169761Y-82688873D02*
X172122142Y-82736492D01*
X172217380Y-81088873D02*
X171550714Y-81088873D01*
X171645952Y-81088873D02*
X171598333Y-81041254D01*
X171598333Y-81041254D02*
X171550714Y-80946016D01*
X171550714Y-80946016D02*
X171550714Y-80803159D01*
X171550714Y-80803159D02*
X171598333Y-80707921D01*
X171598333Y-80707921D02*
X171693571Y-80660302D01*
X171693571Y-80660302D02*
X172217380Y-80660302D01*
X171693571Y-80660302D02*
X171598333Y-80612683D01*
X171598333Y-80612683D02*
X171550714Y-80517445D01*
X171550714Y-80517445D02*
X171550714Y-80374588D01*
X171550714Y-80374588D02*
X171598333Y-80279349D01*
X171598333Y-80279349D02*
X171693571Y-80231730D01*
X171693571Y-80231730D02*
X172217380Y-80231730D01*
X172217380Y-79755540D02*
X171550714Y-79755540D01*
X171645952Y-79755540D02*
X171598333Y-79707921D01*
X171598333Y-79707921D02*
X171550714Y-79612683D01*
X171550714Y-79612683D02*
X171550714Y-79469826D01*
X171550714Y-79469826D02*
X171598333Y-79374588D01*
X171598333Y-79374588D02*
X171693571Y-79326969D01*
X171693571Y-79326969D02*
X172217380Y-79326969D01*
X171693571Y-79326969D02*
X171598333Y-79279350D01*
X171598333Y-79279350D02*
X171550714Y-79184112D01*
X171550714Y-79184112D02*
X171550714Y-79041255D01*
X171550714Y-79041255D02*
X171598333Y-78946016D01*
X171598333Y-78946016D02*
X171693571Y-78898397D01*
X171693571Y-78898397D02*
X172217380Y-78898397D01*
D10*
X156500000Y-49777748D02*
X173586420Y-49777748D01*
X156500000Y-117000000D02*
X173586420Y-117000000D01*
X173000000Y-49777748D02*
X173000000Y-117000000D01*
X173000000Y-49777748D02*
X173000000Y-117000000D01*
X173000000Y-49777748D02*
X173586421Y-50904252D01*
X173000000Y-49777748D02*
X172413579Y-50904252D01*
X173000000Y-117000000D02*
X172413579Y-115873496D01*
X173000000Y-117000000D02*
X173586421Y-115873496D01*
D11*
X93037474Y-124406797D02*
X92466050Y-124408882D01*
X92751762Y-124407840D02*
X92748112Y-123407846D01*
X92748112Y-123407846D02*
X92653396Y-123551050D01*
X92653396Y-123551050D02*
X92558507Y-123646635D01*
X92558507Y-123646635D02*
X92463443Y-123694601D01*
X93367156Y-123405587D02*
X93986200Y-123403328D01*
X93986200Y-123403328D02*
X93654259Y-123785494D01*
X93654259Y-123785494D02*
X93797115Y-123784973D01*
X93797115Y-123784973D02*
X93892526Y-123832244D01*
X93892526Y-123832244D02*
X93940319Y-123879689D01*
X93940319Y-123879689D02*
X93988285Y-123974752D01*
X93988285Y-123974752D02*
X93989154Y-124212846D01*
X93989154Y-124212846D02*
X93941883Y-124308257D01*
X93941883Y-124308257D02*
X93894438Y-124356050D01*
X93894438Y-124356050D02*
X93799374Y-124404016D01*
X93799374Y-124404016D02*
X93513662Y-124405059D01*
X93513662Y-124405059D02*
X93418251Y-124357788D01*
X93418251Y-124357788D02*
X93370458Y-124310343D01*
X94418070Y-124306519D02*
X94465863Y-124353964D01*
X94465863Y-124353964D02*
X94418418Y-124401757D01*
X94418418Y-124401757D02*
X94370625Y-124354312D01*
X94370625Y-124354312D02*
X94418070Y-124306519D01*
X94418070Y-124306519D02*
X94418418Y-124401757D01*
X94942223Y-124399845D02*
X95132698Y-124399150D01*
X95132698Y-124399150D02*
X95227762Y-124351184D01*
X95227762Y-124351184D02*
X95275207Y-124303391D01*
X95275207Y-124303391D02*
X95369923Y-124160187D01*
X95369923Y-124160187D02*
X95416847Y-123969539D01*
X95416847Y-123969539D02*
X95415456Y-123588589D01*
X95415456Y-123588589D02*
X95367490Y-123493525D01*
X95367490Y-123493525D02*
X95319697Y-123446080D01*
X95319697Y-123446080D02*
X95224286Y-123398809D01*
X95224286Y-123398809D02*
X95033811Y-123399504D01*
X95033811Y-123399504D02*
X94938747Y-123447471D01*
X94938747Y-123447471D02*
X94891303Y-123495263D01*
X94891303Y-123495263D02*
X94844031Y-123590674D01*
X94844031Y-123590674D02*
X94844900Y-123828768D01*
X94844900Y-123828768D02*
X94892867Y-123923832D01*
X94892867Y-123923832D02*
X94940659Y-123971277D01*
X94940659Y-123971277D02*
X95036070Y-124018548D01*
X95036070Y-124018548D02*
X95226545Y-124017853D01*
X95226545Y-124017853D02*
X95321609Y-123969886D01*
X95321609Y-123969886D02*
X95369054Y-123922094D01*
X95369054Y-123922094D02*
X95416325Y-123826682D01*
X96370785Y-124394631D02*
X95799361Y-124396717D01*
X96085073Y-124395674D02*
X96081423Y-123395681D01*
X96081423Y-123395681D02*
X95986707Y-123538885D01*
X95986707Y-123538885D02*
X95891817Y-123634470D01*
X95891817Y-123634470D02*
X95796754Y-123682436D01*
X96846973Y-124392894D02*
X97037448Y-124392198D01*
X97037448Y-124392198D02*
X97132511Y-124344232D01*
X97132511Y-124344232D02*
X97179956Y-124296440D01*
X97179956Y-124296440D02*
X97274672Y-124153236D01*
X97274672Y-124153236D02*
X97321596Y-123962587D01*
X97321596Y-123962587D02*
X97320205Y-123581637D01*
X97320205Y-123581637D02*
X97272239Y-123486574D01*
X97272239Y-123486574D02*
X97224447Y-123439129D01*
X97224447Y-123439129D02*
X97129035Y-123391857D01*
X97129035Y-123391857D02*
X96938560Y-123392553D01*
X96938560Y-123392553D02*
X96843497Y-123440519D01*
X96843497Y-123440519D02*
X96796052Y-123488311D01*
X96796052Y-123488311D02*
X96748781Y-123583723D01*
X96748781Y-123583723D02*
X96749650Y-123821816D01*
X96749650Y-123821816D02*
X96797616Y-123916880D01*
X96797616Y-123916880D02*
X96845409Y-123964325D01*
X96845409Y-123964325D02*
X96940820Y-124011596D01*
X96940820Y-124011596D02*
X97131295Y-124010901D01*
X97131295Y-124010901D02*
X97226358Y-123962935D01*
X97226358Y-123962935D02*
X97273803Y-123915142D01*
X97273803Y-123915142D02*
X97321074Y-123819731D01*
X97652841Y-123389946D02*
X98271885Y-123387686D01*
X98271885Y-123387686D02*
X97939944Y-123769853D01*
X97939944Y-123769853D02*
X98082800Y-123769331D01*
X98082800Y-123769331D02*
X98178212Y-123816603D01*
X98178212Y-123816603D02*
X98226004Y-123864048D01*
X98226004Y-123864048D02*
X98273970Y-123959111D01*
X98273970Y-123959111D02*
X98274839Y-124197205D01*
X98274839Y-124197205D02*
X98227568Y-124292616D01*
X98227568Y-124292616D02*
X98180123Y-124340409D01*
X98180123Y-124340409D02*
X98085060Y-124388375D01*
X98085060Y-124388375D02*
X97799347Y-124389418D01*
X97799347Y-124389418D02*
X97703936Y-124342147D01*
X97703936Y-124342147D02*
X97656144Y-124294702D01*
X99304099Y-124383926D02*
X99301666Y-123717264D01*
X99302014Y-123812501D02*
X99349459Y-123764709D01*
X99349459Y-123764709D02*
X99444522Y-123716742D01*
X99444522Y-123716742D02*
X99587379Y-123716221D01*
X99587379Y-123716221D02*
X99682790Y-123763492D01*
X99682790Y-123763492D02*
X99730756Y-123858556D01*
X99730756Y-123858556D02*
X99732668Y-124382362D01*
X99730756Y-123858556D02*
X99778027Y-123763144D01*
X99778027Y-123763144D02*
X99873091Y-123715178D01*
X99873091Y-123715178D02*
X100015947Y-123714657D01*
X100015947Y-123714657D02*
X100111358Y-123761928D01*
X100111358Y-123761928D02*
X100159325Y-123856992D01*
X100159325Y-123856992D02*
X100161236Y-124380798D01*
X100637423Y-124379060D02*
X100634990Y-123712398D01*
X100635338Y-123807635D02*
X100682783Y-123759842D01*
X100682783Y-123759842D02*
X100777846Y-123711876D01*
X100777846Y-123711876D02*
X100920703Y-123711355D01*
X100920703Y-123711355D02*
X101016114Y-123758626D01*
X101016114Y-123758626D02*
X101064080Y-123853690D01*
X101064080Y-123853690D02*
X101065992Y-124377496D01*
X101064080Y-123853690D02*
X101111351Y-123758278D01*
X101111351Y-123758278D02*
X101206415Y-123710312D01*
X101206415Y-123710312D02*
X101349271Y-123709791D01*
X101349271Y-123709791D02*
X101444682Y-123757062D01*
X101444682Y-123757062D02*
X101492649Y-123852125D01*
X101492649Y-123852125D02*
X101494560Y-124375932D01*
D10*
X103938625Y-117492397D02*
X103968711Y-125735950D01*
X90019425Y-117543197D02*
X90049511Y-125786750D01*
X103966571Y-125149534D02*
X90047371Y-125200334D01*
X103966571Y-125149534D02*
X90047371Y-125200334D01*
X103966571Y-125149534D02*
X102842215Y-125740062D01*
X103966571Y-125149534D02*
X102837935Y-124567228D01*
X90047371Y-125200334D02*
X91171727Y-124609806D01*
X90047371Y-125200334D02*
X91176007Y-125782640D01*
M02*
