%TF.GenerationSoftware,KiCad,Pcbnew,(7.0.0)*%
%TF.CreationDate,2023-06-01T09:58:41-06:00*%
%TF.ProjectId,morseTrans_proto,6d6f7273-6554-4726-916e-735f70726f74,rev?*%
%TF.SameCoordinates,Original*%
%TF.FileFunction,Legend,Top*%
%TF.FilePolarity,Positive*%
%FSLAX46Y46*%
G04 Gerber Fmt 4.6, Leading zero omitted, Abs format (unit mm)*
G04 Created by KiCad (PCBNEW (7.0.0)) date 2023-06-01 09:58:41*
%MOMM*%
%LPD*%
G01*
G04 APERTURE LIST*
%ADD10C,0.150000*%
%ADD11C,0.254000*%
%ADD12C,0.120000*%
%ADD13C,0.200000*%
%ADD14C,0.100000*%
G04 APERTURE END LIST*
D10*
X116586000Y-49784000D02*
X131826000Y-49784000D01*
X131826000Y-49784000D02*
X131826000Y-74930000D01*
X131826000Y-74930000D02*
X116586000Y-74930000D01*
X116586000Y-74930000D02*
X116586000Y-49784000D01*
X133143523Y-93000380D02*
X132810190Y-92524190D01*
X132572095Y-93000380D02*
X132572095Y-92000380D01*
X132572095Y-92000380D02*
X132953047Y-92000380D01*
X132953047Y-92000380D02*
X133048285Y-92048000D01*
X133048285Y-92048000D02*
X133095904Y-92095619D01*
X133095904Y-92095619D02*
X133143523Y-92190857D01*
X133143523Y-92190857D02*
X133143523Y-92333714D01*
X133143523Y-92333714D02*
X133095904Y-92428952D01*
X133095904Y-92428952D02*
X133048285Y-92476571D01*
X133048285Y-92476571D02*
X132953047Y-92524190D01*
X132953047Y-92524190D02*
X132572095Y-92524190D01*
X133572095Y-92476571D02*
X133905428Y-92476571D01*
X134048285Y-93000380D02*
X133572095Y-93000380D01*
X133572095Y-93000380D02*
X133572095Y-92000380D01*
X133572095Y-92000380D02*
X134048285Y-92000380D01*
X134429238Y-92952761D02*
X134572095Y-93000380D01*
X134572095Y-93000380D02*
X134810190Y-93000380D01*
X134810190Y-93000380D02*
X134905428Y-92952761D01*
X134905428Y-92952761D02*
X134953047Y-92905142D01*
X134953047Y-92905142D02*
X135000666Y-92809904D01*
X135000666Y-92809904D02*
X135000666Y-92714666D01*
X135000666Y-92714666D02*
X134953047Y-92619428D01*
X134953047Y-92619428D02*
X134905428Y-92571809D01*
X134905428Y-92571809D02*
X134810190Y-92524190D01*
X134810190Y-92524190D02*
X134619714Y-92476571D01*
X134619714Y-92476571D02*
X134524476Y-92428952D01*
X134524476Y-92428952D02*
X134476857Y-92381333D01*
X134476857Y-92381333D02*
X134429238Y-92286095D01*
X134429238Y-92286095D02*
X134429238Y-92190857D01*
X134429238Y-92190857D02*
X134476857Y-92095619D01*
X134476857Y-92095619D02*
X134524476Y-92048000D01*
X134524476Y-92048000D02*
X134619714Y-92000380D01*
X134619714Y-92000380D02*
X134857809Y-92000380D01*
X134857809Y-92000380D02*
X135000666Y-92048000D01*
X135429238Y-92476571D02*
X135762571Y-92476571D01*
X135905428Y-93000380D02*
X135429238Y-93000380D01*
X135429238Y-93000380D02*
X135429238Y-92000380D01*
X135429238Y-92000380D02*
X135905428Y-92000380D01*
X136191143Y-92000380D02*
X136762571Y-92000380D01*
X136476857Y-93000380D02*
X136476857Y-92000380D01*
X116062095Y-115860380D02*
X116062095Y-114860380D01*
X116062095Y-114860380D02*
X116395428Y-115574666D01*
X116395428Y-115574666D02*
X116728761Y-114860380D01*
X116728761Y-114860380D02*
X116728761Y-115860380D01*
X117347809Y-115860380D02*
X117252571Y-115812761D01*
X117252571Y-115812761D02*
X117204952Y-115765142D01*
X117204952Y-115765142D02*
X117157333Y-115669904D01*
X117157333Y-115669904D02*
X117157333Y-115384190D01*
X117157333Y-115384190D02*
X117204952Y-115288952D01*
X117204952Y-115288952D02*
X117252571Y-115241333D01*
X117252571Y-115241333D02*
X117347809Y-115193714D01*
X117347809Y-115193714D02*
X117490666Y-115193714D01*
X117490666Y-115193714D02*
X117585904Y-115241333D01*
X117585904Y-115241333D02*
X117633523Y-115288952D01*
X117633523Y-115288952D02*
X117681142Y-115384190D01*
X117681142Y-115384190D02*
X117681142Y-115669904D01*
X117681142Y-115669904D02*
X117633523Y-115765142D01*
X117633523Y-115765142D02*
X117585904Y-115812761D01*
X117585904Y-115812761D02*
X117490666Y-115860380D01*
X117490666Y-115860380D02*
X117347809Y-115860380D01*
X118109714Y-115860380D02*
X118109714Y-115193714D01*
X118109714Y-115384190D02*
X118157333Y-115288952D01*
X118157333Y-115288952D02*
X118204952Y-115241333D01*
X118204952Y-115241333D02*
X118300190Y-115193714D01*
X118300190Y-115193714D02*
X118395428Y-115193714D01*
X118681143Y-115812761D02*
X118776381Y-115860380D01*
X118776381Y-115860380D02*
X118966857Y-115860380D01*
X118966857Y-115860380D02*
X119062095Y-115812761D01*
X119062095Y-115812761D02*
X119109714Y-115717523D01*
X119109714Y-115717523D02*
X119109714Y-115669904D01*
X119109714Y-115669904D02*
X119062095Y-115574666D01*
X119062095Y-115574666D02*
X118966857Y-115527047D01*
X118966857Y-115527047D02*
X118824000Y-115527047D01*
X118824000Y-115527047D02*
X118728762Y-115479428D01*
X118728762Y-115479428D02*
X118681143Y-115384190D01*
X118681143Y-115384190D02*
X118681143Y-115336571D01*
X118681143Y-115336571D02*
X118728762Y-115241333D01*
X118728762Y-115241333D02*
X118824000Y-115193714D01*
X118824000Y-115193714D02*
X118966857Y-115193714D01*
X118966857Y-115193714D02*
X119062095Y-115241333D01*
X119919238Y-115812761D02*
X119824000Y-115860380D01*
X119824000Y-115860380D02*
X119633524Y-115860380D01*
X119633524Y-115860380D02*
X119538286Y-115812761D01*
X119538286Y-115812761D02*
X119490667Y-115717523D01*
X119490667Y-115717523D02*
X119490667Y-115336571D01*
X119490667Y-115336571D02*
X119538286Y-115241333D01*
X119538286Y-115241333D02*
X119633524Y-115193714D01*
X119633524Y-115193714D02*
X119824000Y-115193714D01*
X119824000Y-115193714D02*
X119919238Y-115241333D01*
X119919238Y-115241333D02*
X119966857Y-115336571D01*
X119966857Y-115336571D02*
X119966857Y-115431809D01*
X119966857Y-115431809D02*
X119490667Y-115527047D01*
X121566857Y-115765142D02*
X121519238Y-115812761D01*
X121519238Y-115812761D02*
X121376381Y-115860380D01*
X121376381Y-115860380D02*
X121281143Y-115860380D01*
X121281143Y-115860380D02*
X121138286Y-115812761D01*
X121138286Y-115812761D02*
X121043048Y-115717523D01*
X121043048Y-115717523D02*
X120995429Y-115622285D01*
X120995429Y-115622285D02*
X120947810Y-115431809D01*
X120947810Y-115431809D02*
X120947810Y-115288952D01*
X120947810Y-115288952D02*
X120995429Y-115098476D01*
X120995429Y-115098476D02*
X121043048Y-115003238D01*
X121043048Y-115003238D02*
X121138286Y-114908000D01*
X121138286Y-114908000D02*
X121281143Y-114860380D01*
X121281143Y-114860380D02*
X121376381Y-114860380D01*
X121376381Y-114860380D02*
X121519238Y-114908000D01*
X121519238Y-114908000D02*
X121566857Y-114955619D01*
X122138286Y-115860380D02*
X122043048Y-115812761D01*
X122043048Y-115812761D02*
X121995429Y-115765142D01*
X121995429Y-115765142D02*
X121947810Y-115669904D01*
X121947810Y-115669904D02*
X121947810Y-115384190D01*
X121947810Y-115384190D02*
X121995429Y-115288952D01*
X121995429Y-115288952D02*
X122043048Y-115241333D01*
X122043048Y-115241333D02*
X122138286Y-115193714D01*
X122138286Y-115193714D02*
X122281143Y-115193714D01*
X122281143Y-115193714D02*
X122376381Y-115241333D01*
X122376381Y-115241333D02*
X122424000Y-115288952D01*
X122424000Y-115288952D02*
X122471619Y-115384190D01*
X122471619Y-115384190D02*
X122471619Y-115669904D01*
X122471619Y-115669904D02*
X122424000Y-115765142D01*
X122424000Y-115765142D02*
X122376381Y-115812761D01*
X122376381Y-115812761D02*
X122281143Y-115860380D01*
X122281143Y-115860380D02*
X122138286Y-115860380D01*
X123328762Y-115860380D02*
X123328762Y-114860380D01*
X123328762Y-115812761D02*
X123233524Y-115860380D01*
X123233524Y-115860380D02*
X123043048Y-115860380D01*
X123043048Y-115860380D02*
X122947810Y-115812761D01*
X122947810Y-115812761D02*
X122900191Y-115765142D01*
X122900191Y-115765142D02*
X122852572Y-115669904D01*
X122852572Y-115669904D02*
X122852572Y-115384190D01*
X122852572Y-115384190D02*
X122900191Y-115288952D01*
X122900191Y-115288952D02*
X122947810Y-115241333D01*
X122947810Y-115241333D02*
X123043048Y-115193714D01*
X123043048Y-115193714D02*
X123233524Y-115193714D01*
X123233524Y-115193714D02*
X123328762Y-115241333D01*
X124185905Y-115812761D02*
X124090667Y-115860380D01*
X124090667Y-115860380D02*
X123900191Y-115860380D01*
X123900191Y-115860380D02*
X123804953Y-115812761D01*
X123804953Y-115812761D02*
X123757334Y-115717523D01*
X123757334Y-115717523D02*
X123757334Y-115336571D01*
X123757334Y-115336571D02*
X123804953Y-115241333D01*
X123804953Y-115241333D02*
X123900191Y-115193714D01*
X123900191Y-115193714D02*
X124090667Y-115193714D01*
X124090667Y-115193714D02*
X124185905Y-115241333D01*
X124185905Y-115241333D02*
X124233524Y-115336571D01*
X124233524Y-115336571D02*
X124233524Y-115431809D01*
X124233524Y-115431809D02*
X123757334Y-115527047D01*
X125119239Y-114860380D02*
X125690667Y-114860380D01*
X125404953Y-115860380D02*
X125404953Y-114860380D01*
X126024001Y-115860380D02*
X126024001Y-115193714D01*
X126024001Y-115384190D02*
X126071620Y-115288952D01*
X126071620Y-115288952D02*
X126119239Y-115241333D01*
X126119239Y-115241333D02*
X126214477Y-115193714D01*
X126214477Y-115193714D02*
X126309715Y-115193714D01*
X127071620Y-115860380D02*
X127071620Y-115336571D01*
X127071620Y-115336571D02*
X127024001Y-115241333D01*
X127024001Y-115241333D02*
X126928763Y-115193714D01*
X126928763Y-115193714D02*
X126738287Y-115193714D01*
X126738287Y-115193714D02*
X126643049Y-115241333D01*
X127071620Y-115812761D02*
X126976382Y-115860380D01*
X126976382Y-115860380D02*
X126738287Y-115860380D01*
X126738287Y-115860380D02*
X126643049Y-115812761D01*
X126643049Y-115812761D02*
X126595430Y-115717523D01*
X126595430Y-115717523D02*
X126595430Y-115622285D01*
X126595430Y-115622285D02*
X126643049Y-115527047D01*
X126643049Y-115527047D02*
X126738287Y-115479428D01*
X126738287Y-115479428D02*
X126976382Y-115479428D01*
X126976382Y-115479428D02*
X127071620Y-115431809D01*
X127547811Y-115193714D02*
X127547811Y-115860380D01*
X127547811Y-115288952D02*
X127595430Y-115241333D01*
X127595430Y-115241333D02*
X127690668Y-115193714D01*
X127690668Y-115193714D02*
X127833525Y-115193714D01*
X127833525Y-115193714D02*
X127928763Y-115241333D01*
X127928763Y-115241333D02*
X127976382Y-115336571D01*
X127976382Y-115336571D02*
X127976382Y-115860380D01*
X128404954Y-115812761D02*
X128500192Y-115860380D01*
X128500192Y-115860380D02*
X128690668Y-115860380D01*
X128690668Y-115860380D02*
X128785906Y-115812761D01*
X128785906Y-115812761D02*
X128833525Y-115717523D01*
X128833525Y-115717523D02*
X128833525Y-115669904D01*
X128833525Y-115669904D02*
X128785906Y-115574666D01*
X128785906Y-115574666D02*
X128690668Y-115527047D01*
X128690668Y-115527047D02*
X128547811Y-115527047D01*
X128547811Y-115527047D02*
X128452573Y-115479428D01*
X128452573Y-115479428D02*
X128404954Y-115384190D01*
X128404954Y-115384190D02*
X128404954Y-115336571D01*
X128404954Y-115336571D02*
X128452573Y-115241333D01*
X128452573Y-115241333D02*
X128547811Y-115193714D01*
X128547811Y-115193714D02*
X128690668Y-115193714D01*
X128690668Y-115193714D02*
X128785906Y-115241333D01*
X129404954Y-115860380D02*
X129309716Y-115812761D01*
X129309716Y-115812761D02*
X129262097Y-115717523D01*
X129262097Y-115717523D02*
X129262097Y-114860380D01*
X130214478Y-115860380D02*
X130214478Y-115336571D01*
X130214478Y-115336571D02*
X130166859Y-115241333D01*
X130166859Y-115241333D02*
X130071621Y-115193714D01*
X130071621Y-115193714D02*
X129881145Y-115193714D01*
X129881145Y-115193714D02*
X129785907Y-115241333D01*
X130214478Y-115812761D02*
X130119240Y-115860380D01*
X130119240Y-115860380D02*
X129881145Y-115860380D01*
X129881145Y-115860380D02*
X129785907Y-115812761D01*
X129785907Y-115812761D02*
X129738288Y-115717523D01*
X129738288Y-115717523D02*
X129738288Y-115622285D01*
X129738288Y-115622285D02*
X129785907Y-115527047D01*
X129785907Y-115527047D02*
X129881145Y-115479428D01*
X129881145Y-115479428D02*
X130119240Y-115479428D01*
X130119240Y-115479428D02*
X130214478Y-115431809D01*
X130547812Y-115193714D02*
X130928764Y-115193714D01*
X130690669Y-114860380D02*
X130690669Y-115717523D01*
X130690669Y-115717523D02*
X130738288Y-115812761D01*
X130738288Y-115812761D02*
X130833526Y-115860380D01*
X130833526Y-115860380D02*
X130928764Y-115860380D01*
X131404955Y-115860380D02*
X131309717Y-115812761D01*
X131309717Y-115812761D02*
X131262098Y-115765142D01*
X131262098Y-115765142D02*
X131214479Y-115669904D01*
X131214479Y-115669904D02*
X131214479Y-115384190D01*
X131214479Y-115384190D02*
X131262098Y-115288952D01*
X131262098Y-115288952D02*
X131309717Y-115241333D01*
X131309717Y-115241333D02*
X131404955Y-115193714D01*
X131404955Y-115193714D02*
X131547812Y-115193714D01*
X131547812Y-115193714D02*
X131643050Y-115241333D01*
X131643050Y-115241333D02*
X131690669Y-115288952D01*
X131690669Y-115288952D02*
X131738288Y-115384190D01*
X131738288Y-115384190D02*
X131738288Y-115669904D01*
X131738288Y-115669904D02*
X131690669Y-115765142D01*
X131690669Y-115765142D02*
X131643050Y-115812761D01*
X131643050Y-115812761D02*
X131547812Y-115860380D01*
X131547812Y-115860380D02*
X131404955Y-115860380D01*
X132166860Y-115860380D02*
X132166860Y-115193714D01*
X132166860Y-115384190D02*
X132214479Y-115288952D01*
X132214479Y-115288952D02*
X132262098Y-115241333D01*
X132262098Y-115241333D02*
X132357336Y-115193714D01*
X132357336Y-115193714D02*
X132452574Y-115193714D01*
X133290670Y-115193714D02*
X133528765Y-115860380D01*
X133528765Y-115860380D02*
X133766860Y-115193714D01*
X134671622Y-115860380D02*
X134100194Y-115860380D01*
X134385908Y-115860380D02*
X134385908Y-114860380D01*
X134385908Y-114860380D02*
X134290670Y-115003238D01*
X134290670Y-115003238D02*
X134195432Y-115098476D01*
X134195432Y-115098476D02*
X134100194Y-115146095D01*
X135100194Y-115765142D02*
X135147813Y-115812761D01*
X135147813Y-115812761D02*
X135100194Y-115860380D01*
X135100194Y-115860380D02*
X135052575Y-115812761D01*
X135052575Y-115812761D02*
X135100194Y-115765142D01*
X135100194Y-115765142D02*
X135100194Y-115860380D01*
X135766860Y-114860380D02*
X135862098Y-114860380D01*
X135862098Y-114860380D02*
X135957336Y-114908000D01*
X135957336Y-114908000D02*
X136004955Y-114955619D01*
X136004955Y-114955619D02*
X136052574Y-115050857D01*
X136052574Y-115050857D02*
X136100193Y-115241333D01*
X136100193Y-115241333D02*
X136100193Y-115479428D01*
X136100193Y-115479428D02*
X136052574Y-115669904D01*
X136052574Y-115669904D02*
X136004955Y-115765142D01*
X136004955Y-115765142D02*
X135957336Y-115812761D01*
X135957336Y-115812761D02*
X135862098Y-115860380D01*
X135862098Y-115860380D02*
X135766860Y-115860380D01*
X135766860Y-115860380D02*
X135671622Y-115812761D01*
X135671622Y-115812761D02*
X135624003Y-115765142D01*
X135624003Y-115765142D02*
X135576384Y-115669904D01*
X135576384Y-115669904D02*
X135528765Y-115479428D01*
X135528765Y-115479428D02*
X135528765Y-115241333D01*
X135528765Y-115241333D02*
X135576384Y-115050857D01*
X135576384Y-115050857D02*
X135624003Y-114955619D01*
X135624003Y-114955619D02*
X135671622Y-114908000D01*
X135671622Y-114908000D02*
X135766860Y-114860380D01*
X122920095Y-61520380D02*
X122920095Y-62329904D01*
X122920095Y-62329904D02*
X122967714Y-62425142D01*
X122967714Y-62425142D02*
X123015333Y-62472761D01*
X123015333Y-62472761D02*
X123110571Y-62520380D01*
X123110571Y-62520380D02*
X123301047Y-62520380D01*
X123301047Y-62520380D02*
X123396285Y-62472761D01*
X123396285Y-62472761D02*
X123443904Y-62425142D01*
X123443904Y-62425142D02*
X123491523Y-62329904D01*
X123491523Y-62329904D02*
X123491523Y-61520380D01*
X123920095Y-62234666D02*
X124396285Y-62234666D01*
X123824857Y-62520380D02*
X124158190Y-61520380D01*
X124158190Y-61520380D02*
X124491523Y-62520380D01*
X125396285Y-62520380D02*
X125062952Y-62044190D01*
X124824857Y-62520380D02*
X124824857Y-61520380D01*
X124824857Y-61520380D02*
X125205809Y-61520380D01*
X125205809Y-61520380D02*
X125301047Y-61568000D01*
X125301047Y-61568000D02*
X125348666Y-61615619D01*
X125348666Y-61615619D02*
X125396285Y-61710857D01*
X125396285Y-61710857D02*
X125396285Y-61853714D01*
X125396285Y-61853714D02*
X125348666Y-61948952D01*
X125348666Y-61948952D02*
X125301047Y-61996571D01*
X125301047Y-61996571D02*
X125205809Y-62044190D01*
X125205809Y-62044190D02*
X124824857Y-62044190D01*
X125682000Y-61520380D02*
X126253428Y-61520380D01*
X125967714Y-62520380D02*
X125967714Y-61520380D01*
X109220190Y-93000380D02*
X109220190Y-92000380D01*
X109220190Y-92000380D02*
X109601142Y-92000380D01*
X109601142Y-92000380D02*
X109696380Y-92048000D01*
X109696380Y-92048000D02*
X109743999Y-92095619D01*
X109743999Y-92095619D02*
X109791618Y-92190857D01*
X109791618Y-92190857D02*
X109791618Y-92333714D01*
X109791618Y-92333714D02*
X109743999Y-92428952D01*
X109743999Y-92428952D02*
X109696380Y-92476571D01*
X109696380Y-92476571D02*
X109601142Y-92524190D01*
X109601142Y-92524190D02*
X109220190Y-92524190D01*
X110696380Y-93000380D02*
X110220190Y-93000380D01*
X110220190Y-93000380D02*
X110220190Y-92000380D01*
X110982095Y-92714666D02*
X111458285Y-92714666D01*
X110886857Y-93000380D02*
X111220190Y-92000380D01*
X111220190Y-92000380D02*
X111553523Y-93000380D01*
X112077333Y-92524190D02*
X112077333Y-93000380D01*
X111744000Y-92000380D02*
X112077333Y-92524190D01*
X112077333Y-92524190D02*
X112410666Y-92000380D01*
%TO.C,LS1*%
X107571142Y-64724378D02*
X107094952Y-64724378D01*
X107094952Y-64724378D02*
X107094952Y-63724378D01*
X107856857Y-64676759D02*
X107999714Y-64724378D01*
X107999714Y-64724378D02*
X108237809Y-64724378D01*
X108237809Y-64724378D02*
X108333047Y-64676759D01*
X108333047Y-64676759D02*
X108380666Y-64629140D01*
X108380666Y-64629140D02*
X108428285Y-64533902D01*
X108428285Y-64533902D02*
X108428285Y-64438664D01*
X108428285Y-64438664D02*
X108380666Y-64343426D01*
X108380666Y-64343426D02*
X108333047Y-64295807D01*
X108333047Y-64295807D02*
X108237809Y-64248188D01*
X108237809Y-64248188D02*
X108047333Y-64200569D01*
X108047333Y-64200569D02*
X107952095Y-64152950D01*
X107952095Y-64152950D02*
X107904476Y-64105331D01*
X107904476Y-64105331D02*
X107856857Y-64010093D01*
X107856857Y-64010093D02*
X107856857Y-63914855D01*
X107856857Y-63914855D02*
X107904476Y-63819617D01*
X107904476Y-63819617D02*
X107952095Y-63771998D01*
X107952095Y-63771998D02*
X108047333Y-63724378D01*
X108047333Y-63724378D02*
X108285428Y-63724378D01*
X108285428Y-63724378D02*
X108428285Y-63771998D01*
X109380666Y-64724378D02*
X108809238Y-64724378D01*
X109094952Y-64724378D02*
X109094952Y-63724378D01*
X109094952Y-63724378D02*
X108999714Y-63867236D01*
X108999714Y-63867236D02*
X108904476Y-63962474D01*
X108904476Y-63962474D02*
X108809238Y-64010093D01*
X104023048Y-59803428D02*
X104784953Y-59803428D01*
X104404000Y-60184380D02*
X104404000Y-59422476D01*
%TO.C,R2*%
X140829380Y-89424166D02*
X140353190Y-89757499D01*
X140829380Y-89995594D02*
X139829380Y-89995594D01*
X139829380Y-89995594D02*
X139829380Y-89614642D01*
X139829380Y-89614642D02*
X139877000Y-89519404D01*
X139877000Y-89519404D02*
X139924619Y-89471785D01*
X139924619Y-89471785D02*
X140019857Y-89424166D01*
X140019857Y-89424166D02*
X140162714Y-89424166D01*
X140162714Y-89424166D02*
X140257952Y-89471785D01*
X140257952Y-89471785D02*
X140305571Y-89519404D01*
X140305571Y-89519404D02*
X140353190Y-89614642D01*
X140353190Y-89614642D02*
X140353190Y-89995594D01*
X139924619Y-89043213D02*
X139877000Y-88995594D01*
X139877000Y-88995594D02*
X139829380Y-88900356D01*
X139829380Y-88900356D02*
X139829380Y-88662261D01*
X139829380Y-88662261D02*
X139877000Y-88567023D01*
X139877000Y-88567023D02*
X139924619Y-88519404D01*
X139924619Y-88519404D02*
X140019857Y-88471785D01*
X140019857Y-88471785D02*
X140115095Y-88471785D01*
X140115095Y-88471785D02*
X140257952Y-88519404D01*
X140257952Y-88519404D02*
X140829380Y-89090832D01*
X140829380Y-89090832D02*
X140829380Y-88471785D01*
%TO.C,J3*%
X131443380Y-81379333D02*
X132157666Y-81379333D01*
X132157666Y-81379333D02*
X132300523Y-81426952D01*
X132300523Y-81426952D02*
X132395761Y-81522190D01*
X132395761Y-81522190D02*
X132443380Y-81665047D01*
X132443380Y-81665047D02*
X132443380Y-81760285D01*
X131443380Y-80998380D02*
X131443380Y-80379333D01*
X131443380Y-80379333D02*
X131824333Y-80712666D01*
X131824333Y-80712666D02*
X131824333Y-80569809D01*
X131824333Y-80569809D02*
X131871952Y-80474571D01*
X131871952Y-80474571D02*
X131919571Y-80426952D01*
X131919571Y-80426952D02*
X132014809Y-80379333D01*
X132014809Y-80379333D02*
X132252904Y-80379333D01*
X132252904Y-80379333D02*
X132348142Y-80426952D01*
X132348142Y-80426952D02*
X132395761Y-80474571D01*
X132395761Y-80474571D02*
X132443380Y-80569809D01*
X132443380Y-80569809D02*
X132443380Y-80855523D01*
X132443380Y-80855523D02*
X132395761Y-80950761D01*
X132395761Y-80950761D02*
X132348142Y-80998380D01*
%TO.C,R3*%
X105269380Y-89424166D02*
X104793190Y-89757499D01*
X105269380Y-89995594D02*
X104269380Y-89995594D01*
X104269380Y-89995594D02*
X104269380Y-89614642D01*
X104269380Y-89614642D02*
X104317000Y-89519404D01*
X104317000Y-89519404D02*
X104364619Y-89471785D01*
X104364619Y-89471785D02*
X104459857Y-89424166D01*
X104459857Y-89424166D02*
X104602714Y-89424166D01*
X104602714Y-89424166D02*
X104697952Y-89471785D01*
X104697952Y-89471785D02*
X104745571Y-89519404D01*
X104745571Y-89519404D02*
X104793190Y-89614642D01*
X104793190Y-89614642D02*
X104793190Y-89995594D01*
X104269380Y-89090832D02*
X104269380Y-88471785D01*
X104269380Y-88471785D02*
X104650333Y-88805118D01*
X104650333Y-88805118D02*
X104650333Y-88662261D01*
X104650333Y-88662261D02*
X104697952Y-88567023D01*
X104697952Y-88567023D02*
X104745571Y-88519404D01*
X104745571Y-88519404D02*
X104840809Y-88471785D01*
X104840809Y-88471785D02*
X105078904Y-88471785D01*
X105078904Y-88471785D02*
X105174142Y-88519404D01*
X105174142Y-88519404D02*
X105221761Y-88567023D01*
X105221761Y-88567023D02*
X105269380Y-88662261D01*
X105269380Y-88662261D02*
X105269380Y-88947975D01*
X105269380Y-88947975D02*
X105221761Y-89043213D01*
X105221761Y-89043213D02*
X105174142Y-89090832D01*
D11*
%TO.C,Display*%
X120329475Y-88858573D02*
X120329475Y-87588573D01*
X120329475Y-87588573D02*
X120631856Y-87588573D01*
X120631856Y-87588573D02*
X120813285Y-87649050D01*
X120813285Y-87649050D02*
X120934237Y-87770002D01*
X120934237Y-87770002D02*
X120994714Y-87890954D01*
X120994714Y-87890954D02*
X121055190Y-88132859D01*
X121055190Y-88132859D02*
X121055190Y-88314288D01*
X121055190Y-88314288D02*
X120994714Y-88556192D01*
X120994714Y-88556192D02*
X120934237Y-88677145D01*
X120934237Y-88677145D02*
X120813285Y-88798097D01*
X120813285Y-88798097D02*
X120631856Y-88858573D01*
X120631856Y-88858573D02*
X120329475Y-88858573D01*
X121599475Y-88858573D02*
X121599475Y-88011907D01*
X121599475Y-87588573D02*
X121538999Y-87649050D01*
X121538999Y-87649050D02*
X121599475Y-87709526D01*
X121599475Y-87709526D02*
X121659952Y-87649050D01*
X121659952Y-87649050D02*
X121599475Y-87588573D01*
X121599475Y-87588573D02*
X121599475Y-87709526D01*
X122143761Y-88798097D02*
X122264714Y-88858573D01*
X122264714Y-88858573D02*
X122506618Y-88858573D01*
X122506618Y-88858573D02*
X122627571Y-88798097D01*
X122627571Y-88798097D02*
X122688047Y-88677145D01*
X122688047Y-88677145D02*
X122688047Y-88616669D01*
X122688047Y-88616669D02*
X122627571Y-88495716D01*
X122627571Y-88495716D02*
X122506618Y-88435240D01*
X122506618Y-88435240D02*
X122325190Y-88435240D01*
X122325190Y-88435240D02*
X122204237Y-88374764D01*
X122204237Y-88374764D02*
X122143761Y-88253811D01*
X122143761Y-88253811D02*
X122143761Y-88193335D01*
X122143761Y-88193335D02*
X122204237Y-88072383D01*
X122204237Y-88072383D02*
X122325190Y-88011907D01*
X122325190Y-88011907D02*
X122506618Y-88011907D01*
X122506618Y-88011907D02*
X122627571Y-88072383D01*
X123232332Y-88011907D02*
X123232332Y-89281907D01*
X123232332Y-88072383D02*
X123353285Y-88011907D01*
X123353285Y-88011907D02*
X123595190Y-88011907D01*
X123595190Y-88011907D02*
X123716142Y-88072383D01*
X123716142Y-88072383D02*
X123776618Y-88132859D01*
X123776618Y-88132859D02*
X123837094Y-88253811D01*
X123837094Y-88253811D02*
X123837094Y-88616669D01*
X123837094Y-88616669D02*
X123776618Y-88737621D01*
X123776618Y-88737621D02*
X123716142Y-88798097D01*
X123716142Y-88798097D02*
X123595190Y-88858573D01*
X123595190Y-88858573D02*
X123353285Y-88858573D01*
X123353285Y-88858573D02*
X123232332Y-88798097D01*
X124562809Y-88858573D02*
X124441857Y-88798097D01*
X124441857Y-88798097D02*
X124381380Y-88677145D01*
X124381380Y-88677145D02*
X124381380Y-87588573D01*
X125590904Y-88858573D02*
X125590904Y-88193335D01*
X125590904Y-88193335D02*
X125530428Y-88072383D01*
X125530428Y-88072383D02*
X125409476Y-88011907D01*
X125409476Y-88011907D02*
X125167571Y-88011907D01*
X125167571Y-88011907D02*
X125046618Y-88072383D01*
X125590904Y-88798097D02*
X125469952Y-88858573D01*
X125469952Y-88858573D02*
X125167571Y-88858573D01*
X125167571Y-88858573D02*
X125046618Y-88798097D01*
X125046618Y-88798097D02*
X124986142Y-88677145D01*
X124986142Y-88677145D02*
X124986142Y-88556192D01*
X124986142Y-88556192D02*
X125046618Y-88435240D01*
X125046618Y-88435240D02*
X125167571Y-88374764D01*
X125167571Y-88374764D02*
X125469952Y-88374764D01*
X125469952Y-88374764D02*
X125590904Y-88314288D01*
X126074714Y-88011907D02*
X126377095Y-88858573D01*
X126679476Y-88011907D02*
X126377095Y-88858573D01*
X126377095Y-88858573D02*
X126256143Y-89160954D01*
X126256143Y-89160954D02*
X126195666Y-89221430D01*
X126195666Y-89221430D02*
X126074714Y-89281907D01*
D10*
%TO.C,SW3*%
X131295761Y-108020332D02*
X131343380Y-107877475D01*
X131343380Y-107877475D02*
X131343380Y-107639380D01*
X131343380Y-107639380D02*
X131295761Y-107544142D01*
X131295761Y-107544142D02*
X131248142Y-107496523D01*
X131248142Y-107496523D02*
X131152904Y-107448904D01*
X131152904Y-107448904D02*
X131057666Y-107448904D01*
X131057666Y-107448904D02*
X130962428Y-107496523D01*
X130962428Y-107496523D02*
X130914809Y-107544142D01*
X130914809Y-107544142D02*
X130867190Y-107639380D01*
X130867190Y-107639380D02*
X130819571Y-107829856D01*
X130819571Y-107829856D02*
X130771952Y-107925094D01*
X130771952Y-107925094D02*
X130724333Y-107972713D01*
X130724333Y-107972713D02*
X130629095Y-108020332D01*
X130629095Y-108020332D02*
X130533857Y-108020332D01*
X130533857Y-108020332D02*
X130438619Y-107972713D01*
X130438619Y-107972713D02*
X130391000Y-107925094D01*
X130391000Y-107925094D02*
X130343380Y-107829856D01*
X130343380Y-107829856D02*
X130343380Y-107591761D01*
X130343380Y-107591761D02*
X130391000Y-107448904D01*
X130343380Y-107115570D02*
X131343380Y-106877475D01*
X131343380Y-106877475D02*
X130629095Y-106686999D01*
X130629095Y-106686999D02*
X131343380Y-106496523D01*
X131343380Y-106496523D02*
X130343380Y-106258428D01*
X130343380Y-105972713D02*
X130343380Y-105353666D01*
X130343380Y-105353666D02*
X130724333Y-105686999D01*
X130724333Y-105686999D02*
X130724333Y-105544142D01*
X130724333Y-105544142D02*
X130771952Y-105448904D01*
X130771952Y-105448904D02*
X130819571Y-105401285D01*
X130819571Y-105401285D02*
X130914809Y-105353666D01*
X130914809Y-105353666D02*
X131152904Y-105353666D01*
X131152904Y-105353666D02*
X131248142Y-105401285D01*
X131248142Y-105401285D02*
X131295761Y-105448904D01*
X131295761Y-105448904D02*
X131343380Y-105544142D01*
X131343380Y-105544142D02*
X131343380Y-105829856D01*
X131343380Y-105829856D02*
X131295761Y-105925094D01*
X131295761Y-105925094D02*
X131248142Y-105972713D01*
%TO.C,R1*%
X111997833Y-71995380D02*
X111664500Y-71519190D01*
X111426405Y-71995380D02*
X111426405Y-70995380D01*
X111426405Y-70995380D02*
X111807357Y-70995380D01*
X111807357Y-70995380D02*
X111902595Y-71043000D01*
X111902595Y-71043000D02*
X111950214Y-71090619D01*
X111950214Y-71090619D02*
X111997833Y-71185857D01*
X111997833Y-71185857D02*
X111997833Y-71328714D01*
X111997833Y-71328714D02*
X111950214Y-71423952D01*
X111950214Y-71423952D02*
X111902595Y-71471571D01*
X111902595Y-71471571D02*
X111807357Y-71519190D01*
X111807357Y-71519190D02*
X111426405Y-71519190D01*
X112950214Y-71995380D02*
X112378786Y-71995380D01*
X112664500Y-71995380D02*
X112664500Y-70995380D01*
X112664500Y-70995380D02*
X112569262Y-71138238D01*
X112569262Y-71138238D02*
X112474024Y-71233476D01*
X112474024Y-71233476D02*
X112378786Y-71281095D01*
%TO.C,R4*%
X104123833Y-71869380D02*
X103790500Y-71393190D01*
X103552405Y-71869380D02*
X103552405Y-70869380D01*
X103552405Y-70869380D02*
X103933357Y-70869380D01*
X103933357Y-70869380D02*
X104028595Y-70917000D01*
X104028595Y-70917000D02*
X104076214Y-70964619D01*
X104076214Y-70964619D02*
X104123833Y-71059857D01*
X104123833Y-71059857D02*
X104123833Y-71202714D01*
X104123833Y-71202714D02*
X104076214Y-71297952D01*
X104076214Y-71297952D02*
X104028595Y-71345571D01*
X104028595Y-71345571D02*
X103933357Y-71393190D01*
X103933357Y-71393190D02*
X103552405Y-71393190D01*
X104980976Y-71202714D02*
X104980976Y-71869380D01*
X104742881Y-70821761D02*
X104504786Y-71536047D01*
X104504786Y-71536047D02*
X105123833Y-71536047D01*
%TO.C,RV1*%
X138342761Y-70852380D02*
X138009428Y-70376190D01*
X137771333Y-70852380D02*
X137771333Y-69852380D01*
X137771333Y-69852380D02*
X138152285Y-69852380D01*
X138152285Y-69852380D02*
X138247523Y-69900000D01*
X138247523Y-69900000D02*
X138295142Y-69947619D01*
X138295142Y-69947619D02*
X138342761Y-70042857D01*
X138342761Y-70042857D02*
X138342761Y-70185714D01*
X138342761Y-70185714D02*
X138295142Y-70280952D01*
X138295142Y-70280952D02*
X138247523Y-70328571D01*
X138247523Y-70328571D02*
X138152285Y-70376190D01*
X138152285Y-70376190D02*
X137771333Y-70376190D01*
X138628476Y-69852380D02*
X138961809Y-70852380D01*
X138961809Y-70852380D02*
X139295142Y-69852380D01*
X140152285Y-70852380D02*
X139580857Y-70852380D01*
X139866571Y-70852380D02*
X139866571Y-69852380D01*
X139866571Y-69852380D02*
X139771333Y-69995238D01*
X139771333Y-69995238D02*
X139676095Y-70090476D01*
X139676095Y-70090476D02*
X139580857Y-70138095D01*
%TO.C,D1*%
X107465905Y-71741380D02*
X107465905Y-70741380D01*
X107465905Y-70741380D02*
X107704000Y-70741380D01*
X107704000Y-70741380D02*
X107846857Y-70789000D01*
X107846857Y-70789000D02*
X107942095Y-70884238D01*
X107942095Y-70884238D02*
X107989714Y-70979476D01*
X107989714Y-70979476D02*
X108037333Y-71169952D01*
X108037333Y-71169952D02*
X108037333Y-71312809D01*
X108037333Y-71312809D02*
X107989714Y-71503285D01*
X107989714Y-71503285D02*
X107942095Y-71598523D01*
X107942095Y-71598523D02*
X107846857Y-71693761D01*
X107846857Y-71693761D02*
X107704000Y-71741380D01*
X107704000Y-71741380D02*
X107465905Y-71741380D01*
X108989714Y-71741380D02*
X108418286Y-71741380D01*
X108704000Y-71741380D02*
X108704000Y-70741380D01*
X108704000Y-70741380D02*
X108608762Y-70884238D01*
X108608762Y-70884238D02*
X108513524Y-70979476D01*
X108513524Y-70979476D02*
X108418286Y-71027095D01*
D12*
%TO.C,LS1*%
X115814000Y-62357000D02*
G75*
G03*
X115814000Y-62357000I-7600000J0D01*
G01*
%TO.C,R2*%
X139165000Y-89030436D02*
X139165000Y-89484564D01*
X137695000Y-89030436D02*
X137695000Y-89484564D01*
%TO.C,J3*%
X130636000Y-75336000D02*
X117816000Y-75336000D01*
X130636000Y-75336000D02*
X130636000Y-83966000D01*
X130516000Y-75336000D02*
X130516000Y-83966000D01*
X130397905Y-75336000D02*
X130397905Y-83966000D01*
X130279810Y-75336000D02*
X130279810Y-83966000D01*
X130161715Y-75336000D02*
X130161715Y-83966000D01*
X130043620Y-75336000D02*
X130043620Y-83966000D01*
X129925525Y-75336000D02*
X129925525Y-83966000D01*
X129807430Y-75336000D02*
X129807430Y-83966000D01*
X129689335Y-75336000D02*
X129689335Y-83966000D01*
X129571240Y-75336000D02*
X129571240Y-83966000D01*
X129453145Y-75336000D02*
X129453145Y-83966000D01*
X129335050Y-75336000D02*
X129335050Y-83966000D01*
X129216955Y-75336000D02*
X129216955Y-83966000D01*
X129098860Y-75336000D02*
X129098860Y-83966000D01*
X128980765Y-75336000D02*
X128980765Y-83966000D01*
X128862670Y-75336000D02*
X128862670Y-83966000D01*
X128744575Y-75336000D02*
X128744575Y-83966000D01*
X128626480Y-75336000D02*
X128626480Y-83966000D01*
X128508385Y-75336000D02*
X128508385Y-83966000D01*
X128390290Y-75336000D02*
X128390290Y-83966000D01*
X128272195Y-75336000D02*
X128272195Y-83966000D01*
X128154100Y-75336000D02*
X128154100Y-83966000D01*
X128036000Y-75336000D02*
X128036000Y-83966000D01*
X125496000Y-75336000D02*
X125496000Y-83966000D01*
X122956000Y-75336000D02*
X122956000Y-83966000D01*
X120416000Y-75336000D02*
X120416000Y-83966000D01*
X117816000Y-75336000D02*
X117816000Y-83966000D01*
X130636000Y-83966000D02*
X117816000Y-83966000D01*
X129666000Y-83966000D02*
X129666000Y-84316000D01*
X128946000Y-83966000D02*
X128946000Y-84316000D01*
X127126000Y-83966000D02*
X127126000Y-84376000D01*
X126406000Y-83966000D02*
X126406000Y-84376000D01*
X124586000Y-83966000D02*
X124586000Y-84376000D01*
X123866000Y-83966000D02*
X123866000Y-84376000D01*
X122046000Y-83966000D02*
X122046000Y-84376000D01*
X121326000Y-83966000D02*
X121326000Y-84376000D01*
X119506000Y-83966000D02*
X119506000Y-84376000D01*
X118786000Y-83966000D02*
X118786000Y-84376000D01*
X130636000Y-85426000D02*
X130636000Y-86536000D01*
X130636000Y-86536000D02*
X129306000Y-86536000D01*
%TO.C,R3*%
X107415000Y-89030436D02*
X107415000Y-89484564D01*
X105945000Y-89030436D02*
X105945000Y-89484564D01*
D13*
%TO.C,Display*%
X117698000Y-90846000D02*
X117698000Y-90846000D01*
X117898000Y-90846000D02*
X117898000Y-90846000D01*
D14*
X118698000Y-89346000D02*
X128698000Y-89346000D01*
X118698000Y-113346000D02*
X118698000Y-89346000D01*
X128698000Y-89346000D02*
X128698000Y-113346000D01*
X128698000Y-113346000D02*
X118698000Y-113346000D01*
D13*
X117898000Y-90846000D02*
G75*
G03*
X117698000Y-90846000I-100000J0D01*
G01*
X117698000Y-90846000D02*
G75*
G03*
X117898000Y-90846000I100000J0D01*
G01*
D12*
%TO.C,SW3*%
X134076000Y-109787000D02*
X134076000Y-109187000D01*
X134376000Y-109487000D02*
X134076000Y-109787000D01*
X134076000Y-109187000D02*
X134376000Y-109487000D01*
X132376000Y-108087000D02*
X144076000Y-108087000D01*
X132376000Y-103987000D02*
X132376000Y-108087000D01*
X144076000Y-103987000D02*
X144076000Y-108087000D01*
X138176000Y-102487000D02*
X138176000Y-101487000D01*
X137676000Y-101987000D02*
X138676000Y-101987000D01*
X132276000Y-99987000D02*
X132276000Y-95887000D01*
X132276000Y-95887000D02*
X134876000Y-95887000D01*
X136876000Y-95887000D02*
X139476000Y-95887000D01*
X141476000Y-95887000D02*
X144076000Y-95887000D01*
X144076000Y-95887000D02*
X144076000Y-99987000D01*
X141176000Y-101987000D02*
G75*
G03*
X141176000Y-101987000I-3000000J0D01*
G01*
%TO.C,R1*%
X111937436Y-72417000D02*
X112391564Y-72417000D01*
X111937436Y-73887000D02*
X112391564Y-73887000D01*
%TO.C,R4*%
X104063436Y-72417000D02*
X104517564Y-72417000D01*
X104063436Y-73887000D02*
X104517564Y-73887000D01*
%TO.C,RV1*%
X143564000Y-57512000D02*
X143564000Y-62232000D01*
X142374000Y-57512000D02*
X143554000Y-57512000D01*
X139474000Y-57512000D02*
X140004000Y-57512000D01*
X137024000Y-57512000D02*
X137854000Y-57512000D01*
X133814000Y-57512000D02*
X135304000Y-57512000D01*
X133814000Y-57512000D02*
X133814000Y-62232000D01*
X143554000Y-66042000D02*
X143554000Y-69102000D01*
X133814000Y-66042000D02*
X133814000Y-69102000D01*
X133814000Y-69102000D02*
X143554000Y-69102000D01*
%TO.C,D1*%
X109919000Y-74112000D02*
X109919000Y-72192000D01*
X109919000Y-72192000D02*
X107234000Y-72192000D01*
X107234000Y-74112000D02*
X109919000Y-74112000D01*
%TD*%
M02*
