%TF.GenerationSoftware,KiCad,Pcbnew,(7.0.0)*%
%TF.CreationDate,2023-06-01T09:58:41-06:00*%
%TF.ProjectId,morseTrans_proto,6d6f7273-6554-4726-916e-735f70726f74,rev?*%
%TF.SameCoordinates,Original*%
%TF.FileFunction,Copper,L2,Bot*%
%TF.FilePolarity,Positive*%
%FSLAX46Y46*%
G04 Gerber Fmt 4.6, Leading zero omitted, Abs format (unit mm)*
G04 Created by KiCad (PCBNEW (7.0.0)) date 2023-06-01 09:58:41*
%MOMM*%
%LPD*%
G01*
G04 APERTURE LIST*
%TA.AperFunction,ComponentPad*%
%ADD10R,2.000000X2.000000*%
%TD*%
%TA.AperFunction,ComponentPad*%
%ADD11C,2.000000*%
%TD*%
%TA.AperFunction,ComponentPad*%
%ADD12R,1.700000X1.700000*%
%TD*%
%TA.AperFunction,ComponentPad*%
%ADD13O,1.700000X1.700000*%
%TD*%
%TA.AperFunction,ComponentPad*%
%ADD14C,1.192000*%
%TD*%
%TA.AperFunction,ComponentPad*%
%ADD15C,1.500000*%
%TD*%
%TA.AperFunction,ComponentPad*%
%ADD16R,2.000000X3.200000*%
%TD*%
%TA.AperFunction,ComponentPad*%
%ADD17O,2.720000X3.240000*%
%TD*%
%TA.AperFunction,ComponentPad*%
%ADD18R,1.800000X1.800000*%
%TD*%
%TA.AperFunction,ComponentPad*%
%ADD19C,1.800000*%
%TD*%
%TA.AperFunction,ViaPad*%
%ADD20C,0.800000*%
%TD*%
G04 APERTURE END LIST*
D10*
%TO.P,LS1,1,1*%
%TO.N,Net-(LS1-Pad1)*%
X104413999Y-62356999D03*
D11*
%TO.P,LS1,2,2*%
%TO.N,GND*%
X112014000Y-62357000D03*
%TD*%
D12*
%TO.P,J3,1,Pin_1*%
%TO.N,GND*%
X129305999Y-85425999D03*
D13*
%TO.P,J3,2,Pin_2*%
%TO.N,unconnected-(J3-Pin_2-Pad2)*%
X126765999Y-85425999D03*
%TO.P,J3,3,Pin_3*%
%TO.N,TXD*%
X124225999Y-85425999D03*
%TO.P,J3,4,Pin_4*%
%TO.N,RXD*%
X121685999Y-85425999D03*
%TO.P,J3,5,Pin_5*%
%TO.N,unconnected-(J3-Pin_5-Pad5)*%
X119145999Y-85425999D03*
%TD*%
D14*
%TO.P,Display,1*%
%TO.N,N/C*%
X119888000Y-91186000D03*
%TO.P,Display,2*%
X119888000Y-93726000D03*
%TO.P,Display,3*%
X119888000Y-96266000D03*
%TO.P,Display,4*%
X119888000Y-98806000D03*
%TO.P,Display,5*%
X119888000Y-101346000D03*
%TO.P,Display,6*%
X119888000Y-103886000D03*
%TO.P,Display,7*%
X119888000Y-106426000D03*
%TO.P,Display,8*%
X119888000Y-108966000D03*
%TO.P,Display,9*%
X119888000Y-111506000D03*
%TO.P,Display,10*%
X127508000Y-111506000D03*
%TO.P,Display,11*%
X127508000Y-108966000D03*
%TO.P,Display,12*%
X127508000Y-106426000D03*
%TO.P,Display,13*%
X127508000Y-103886000D03*
%TO.P,Display,14*%
X127508000Y-101346000D03*
%TO.P,Display,15*%
X127508000Y-98806000D03*
%TO.P,Display,16*%
X127508000Y-96266000D03*
%TO.P,Display,17*%
X127508000Y-93726000D03*
%TO.P,Display,18*%
X127508000Y-91186000D03*
%TD*%
D15*
%TO.P,SW3,*%
%TO.N,*%
X135676000Y-94987000D03*
X140676000Y-94987000D03*
D10*
%TO.P,SW3,A,A*%
%TO.N,Increment*%
X135675999Y-109486999D03*
D11*
%TO.P,SW3,B,B*%
%TO.N,Decrement*%
X140676000Y-109487000D03*
%TO.P,SW3,C,C*%
%TO.N,GND*%
X138176000Y-109487000D03*
D16*
%TO.P,SW3,MP*%
%TO.N,N/C*%
X132575999Y-101986999D03*
X143775999Y-101986999D03*
%TD*%
D17*
%TO.P,RV1,*%
%TO.N,*%
X143483999Y-64131999D03*
X133883999Y-64131999D03*
D18*
%TO.P,RV1,1,1*%
%TO.N,OUTPUT*%
X141183999Y-56631999D03*
D19*
%TO.P,RV1,2,2*%
%TO.N,Net-(R4-Pad1)*%
X138684000Y-56632000D03*
%TO.P,RV1,3,3*%
%TO.N,GND*%
X136184000Y-56632000D03*
%TD*%
D12*
%TO.P,J2,1,Pin_1*%
%TO.N,GND*%
X147110963Y-53706551D03*
D13*
%TO.P,J2,2,Pin_2*%
%TO.N,unconnected-(J2-Pin_2-Pad2)*%
X149650963Y-53706551D03*
%TO.P,J2,3,Pin_3*%
%TO.N,unconnected-(J2-Pin_3-Pad3)*%
X147110963Y-56246551D03*
%TO.P,J2,4,Pin_4*%
%TO.N,unconnected-(J2-Pin_4-Pad4)*%
X149650963Y-56246551D03*
%TO.P,J2,5,Pin_5*%
%TO.N,unconnected-(J2-Pin_5-Pad5)*%
X147110963Y-58786551D03*
%TO.P,J2,6,Pin_6*%
%TO.N,unconnected-(J2-Pin_6-Pad6)*%
X149650963Y-58786551D03*
%TO.P,J2,7,Pin_7*%
%TO.N,unconnected-(J2-Pin_7-Pad7)*%
X147110963Y-61326551D03*
%TO.P,J2,8,Pin_8*%
%TO.N,unconnected-(J2-Pin_8-Pad8)*%
X149650963Y-61326551D03*
%TO.P,J2,9,Pin_9*%
%TO.N,unconnected-(J2-Pin_9-Pad9)*%
X147110963Y-63866551D03*
%TO.P,J2,10,Pin_10*%
%TO.N,unconnected-(J2-Pin_10-Pad10)*%
X149650963Y-63866551D03*
%TO.P,J2,11,Pin_11*%
%TO.N,unconnected-(J2-Pin_11-Pad11)*%
X147110963Y-66406551D03*
%TO.P,J2,12,Pin_12*%
%TO.N,unconnected-(J2-Pin_12-Pad12)*%
X149650963Y-66406551D03*
%TO.P,J2,13,Pin_13*%
%TO.N,unconnected-(J2-Pin_13-Pad13)*%
X147110963Y-68946551D03*
%TO.P,J2,14,Pin_14*%
%TO.N,unconnected-(J2-Pin_14-Pad14)*%
X149650963Y-68946551D03*
%TO.P,J2,15,Pin_15*%
%TO.N,unconnected-(J2-Pin_15-Pad15)*%
X147110963Y-71486551D03*
%TO.P,J2,16,Pin_16*%
%TO.N,unconnected-(J2-Pin_16-Pad16)*%
X149650963Y-71486551D03*
%TO.P,J2,17,Pin_17*%
%TO.N,unconnected-(J2-Pin_17-Pad17)*%
X147110963Y-74026551D03*
%TO.P,J2,18,Pin_18*%
%TO.N,unconnected-(J2-Pin_18-Pad18)*%
X149650963Y-74026551D03*
%TO.P,J2,19,Pin_19*%
%TO.N,unconnected-(J2-Pin_19-Pad19)*%
X147110963Y-76566551D03*
%TO.P,J2,20,Pin_20*%
%TO.N,unconnected-(J2-Pin_20-Pad20)*%
X149650963Y-76566551D03*
%TO.P,J2,21,Pin_21*%
%TO.N,unconnected-(J2-Pin_21-Pad21)*%
X147110963Y-79106551D03*
%TO.P,J2,22,Pin_22*%
%TO.N,unconnected-(J2-Pin_22-Pad22)*%
X149650963Y-79106551D03*
%TO.P,J2,23,Pin_23*%
%TO.N,unconnected-(J2-Pin_23-Pad23)*%
X147110963Y-81646551D03*
%TO.P,J2,24,Pin_24*%
%TO.N,unconnected-(J2-Pin_24-Pad24)*%
X149650963Y-81646551D03*
%TO.P,J2,25,Pin_25*%
%TO.N,GND*%
X147110963Y-84186551D03*
%TO.P,J2,26,Pin_26*%
X149650963Y-84186551D03*
%TO.P,J2,27,Pin_27*%
%TO.N,unconnected-(J2-Pin_27-Pad27)*%
X147110963Y-86726551D03*
%TO.P,J2,28,Pin_28*%
%TO.N,unconnected-(J2-Pin_28-Pad28)*%
X149650963Y-86726551D03*
%TO.P,J2,29,Pin_29*%
%TO.N,unconnected-(J2-Pin_29-Pad29)*%
X147110963Y-89266551D03*
%TO.P,J2,30,Pin_30*%
%TO.N,unconnected-(J2-Pin_30-Pad30)*%
X149650963Y-89266551D03*
%TO.P,J2,31,Pin_31*%
%TO.N,unconnected-(J2-Pin_31-Pad31)*%
X147110963Y-91806551D03*
%TO.P,J2,32,Pin_32*%
%TO.N,unconnected-(J2-Pin_32-Pad32)*%
X149650963Y-91806551D03*
%TO.P,J2,33,Pin_33*%
%TO.N,unconnected-(J2-Pin_33-Pad33)*%
X147110963Y-94346551D03*
%TO.P,J2,34,Pin_34*%
%TO.N,unconnected-(J2-Pin_34-Pad34)*%
X149650963Y-94346551D03*
%TO.P,J2,35,Pin_35*%
%TO.N,unconnected-(J2-Pin_35-Pad35)*%
X147110963Y-96886551D03*
%TO.P,J2,36,Pin_36*%
%TO.N,unconnected-(J2-Pin_36-Pad36)*%
X149650963Y-96886551D03*
%TO.P,J2,37,Pin_37*%
%TO.N,unconnected-(J2-Pin_37-Pad37)*%
X147110963Y-99426551D03*
%TO.P,J2,38,Pin_38*%
%TO.N,unconnected-(J2-Pin_38-Pad38)*%
X149650963Y-99426551D03*
%TO.P,J2,39,Pin_39*%
%TO.N,unconnected-(J2-Pin_39-Pad39)*%
X147110963Y-101966551D03*
%TO.P,J2,40,Pin_40*%
%TO.N,unconnected-(J2-Pin_40-Pad40)*%
X149650963Y-101966551D03*
%TO.P,J2,41,Pin_41*%
%TO.N,unconnected-(J2-Pin_41-Pad41)*%
X147110963Y-104506551D03*
%TO.P,J2,42,Pin_42*%
%TO.N,unconnected-(J2-Pin_42-Pad42)*%
X149650963Y-104506551D03*
%TO.P,J2,43,Pin_43*%
%TO.N,unconnected-(J2-Pin_43-Pad43)*%
X147110963Y-107046551D03*
%TO.P,J2,44,Pin_44*%
%TO.N,unconnected-(J2-Pin_44-Pad44)*%
X149650963Y-107046551D03*
%TO.P,J2,45,Pin_45*%
%TO.N,unconnected-(J2-Pin_45-Pad45)*%
X147110963Y-109586551D03*
%TO.P,J2,46,Pin_46*%
%TO.N,unconnected-(J2-Pin_46-Pad46)*%
X149650963Y-109586551D03*
%TO.P,J2,47,Pin_47*%
%TO.N,unconnected-(J2-Pin_47-Pad47)*%
X147110963Y-112126551D03*
%TO.P,J2,48,Pin_48*%
%TO.N,unconnected-(J2-Pin_48-Pad48)*%
X149650963Y-112126551D03*
%TO.P,J2,49,Pin_49*%
%TO.N,unconnected-(J2-Pin_49-Pad49)*%
X147110963Y-114666551D03*
%TO.P,J2,50,Pin_50*%
%TO.N,GND*%
X149650963Y-114666551D03*
%TD*%
D12*
%TO.P,J1,1,Pin_1*%
%TO.N,GND*%
X96348789Y-53690998D03*
D13*
%TO.P,J1,2,Pin_2*%
%TO.N,5V*%
X98888789Y-53690998D03*
%TO.P,J1,3,Pin_3*%
%TO.N,3V*%
X96348789Y-56230998D03*
%TO.P,J1,4,Pin_4*%
%TO.N,unconnected-(J1-Pin_4-Pad4)*%
X98888789Y-56230998D03*
%TO.P,J1,5,Pin_5*%
%TO.N,unconnected-(J1-Pin_5-Pad5)*%
X96348789Y-58770998D03*
%TO.P,J1,6,Pin_6*%
%TO.N,unconnected-(J1-Pin_6-Pad6)*%
X98888789Y-58770998D03*
%TO.P,J1,7,Pin_7*%
%TO.N,unconnected-(J1-Pin_7-Pad7)*%
X96348789Y-61310998D03*
%TO.P,J1,8,Pin_8*%
%TO.N,unconnected-(J1-Pin_8-Pad8)*%
X98888789Y-61310998D03*
%TO.P,J1,9,Pin_9*%
%TO.N,unconnected-(J1-Pin_9-Pad9)*%
X96348789Y-63850998D03*
%TO.P,J1,10,Pin_10*%
%TO.N,unconnected-(J1-Pin_10-Pad10)*%
X98888789Y-63850998D03*
%TO.P,J1,11,Pin_11*%
%TO.N,unconnected-(J1-Pin_11-Pad11)*%
X96348789Y-66390998D03*
%TO.P,J1,12,Pin_12*%
%TO.N,unconnected-(J1-Pin_12-Pad12)*%
X98888789Y-66390998D03*
%TO.P,J1,13,Pin_13*%
%TO.N,unconnected-(J1-Pin_13-Pad13)*%
X96348789Y-68930998D03*
%TO.P,J1,14,Pin_14*%
%TO.N,unconnected-(J1-Pin_14-Pad14)*%
X98888789Y-68930998D03*
%TO.P,J1,15,Pin_15*%
%TO.N,unconnected-(J1-Pin_15-Pad15)*%
X96348789Y-71470998D03*
%TO.P,J1,16,Pin_16*%
%TO.N,unconnected-(J1-Pin_16-Pad16)*%
X98888789Y-71470998D03*
%TO.P,J1,17,Pin_17*%
%TO.N,unconnected-(J1-Pin_17-Pad17)*%
X96348789Y-74010998D03*
%TO.P,J1,18,Pin_18*%
%TO.N,unconnected-(J1-Pin_18-Pad18)*%
X98888789Y-74010998D03*
%TO.P,J1,19,Pin_19*%
%TO.N,unconnected-(J1-Pin_19-Pad19)*%
X96348789Y-76550998D03*
%TO.P,J1,20,Pin_20*%
%TO.N,unconnected-(J1-Pin_20-Pad20)*%
X98888789Y-76550998D03*
%TO.P,J1,21,Pin_21*%
%TO.N,unconnected-(J1-Pin_21-Pad21)*%
X96348789Y-79090998D03*
%TO.P,J1,22,Pin_22*%
%TO.N,unconnected-(J1-Pin_22-Pad22)*%
X98888789Y-79090998D03*
%TO.P,J1,23,Pin_23*%
%TO.N,unconnected-(J1-Pin_23-Pad23)*%
X96348789Y-81630998D03*
%TO.P,J1,24,Pin_24*%
%TO.N,unconnected-(J1-Pin_24-Pad24)*%
X98888789Y-81630998D03*
%TO.P,J1,25,Pin_25*%
%TO.N,GND*%
X96348789Y-84170998D03*
%TO.P,J1,26,Pin_26*%
X98888789Y-84170998D03*
%TO.P,J1,27,Pin_27*%
%TO.N,unconnected-(J1-Pin_27-Pad27)*%
X96348789Y-86710998D03*
%TO.P,J1,28,Pin_28*%
%TO.N,unconnected-(J1-Pin_28-Pad28)*%
X98888789Y-86710998D03*
%TO.P,J1,29,Pin_29*%
%TO.N,unconnected-(J1-Pin_29-Pad29)*%
X96348789Y-89250998D03*
%TO.P,J1,30,Pin_30*%
%TO.N,unconnected-(J1-Pin_30-Pad30)*%
X98888789Y-89250998D03*
%TO.P,J1,31,Pin_31*%
%TO.N,unconnected-(J1-Pin_31-Pad31)*%
X96348789Y-91790998D03*
%TO.P,J1,32,Pin_32*%
%TO.N,unconnected-(J1-Pin_32-Pad32)*%
X98888789Y-91790998D03*
%TO.P,J1,33,Pin_33*%
%TO.N,unconnected-(J1-Pin_33-Pad33)*%
X96348789Y-94330998D03*
%TO.P,J1,34,Pin_34*%
%TO.N,unconnected-(J1-Pin_34-Pad34)*%
X98888789Y-94330998D03*
%TO.P,J1,35,Pin_35*%
%TO.N,unconnected-(J1-Pin_35-Pad35)*%
X96348789Y-96870998D03*
%TO.P,J1,36,Pin_36*%
%TO.N,unconnected-(J1-Pin_36-Pad36)*%
X98888789Y-96870998D03*
%TO.P,J1,37,Pin_37*%
%TO.N,unconnected-(J1-Pin_37-Pad37)*%
X96348789Y-99410998D03*
%TO.P,J1,38,Pin_38*%
%TO.N,unconnected-(J1-Pin_38-Pad38)*%
X98888789Y-99410998D03*
%TO.P,J1,39,Pin_39*%
%TO.N,unconnected-(J1-Pin_39-Pad39)*%
X96348789Y-101950998D03*
%TO.P,J1,40,Pin_40*%
%TO.N,unconnected-(J1-Pin_40-Pad40)*%
X98888789Y-101950998D03*
%TO.P,J1,41,Pin_41*%
%TO.N,unconnected-(J1-Pin_41-Pad41)*%
X96348789Y-104490998D03*
%TO.P,J1,42,Pin_42*%
%TO.N,unconnected-(J1-Pin_42-Pad42)*%
X98888789Y-104490998D03*
%TO.P,J1,43,Pin_43*%
%TO.N,unconnected-(J1-Pin_43-Pad43)*%
X96348789Y-107030998D03*
%TO.P,J1,44,Pin_44*%
%TO.N,unconnected-(J1-Pin_44-Pad44)*%
X98888789Y-107030998D03*
%TO.P,J1,45,Pin_45*%
%TO.N,unconnected-(J1-Pin_45-Pad45)*%
X96348789Y-109570998D03*
%TO.P,J1,46,Pin_46*%
%TO.N,unconnected-(J1-Pin_46-Pad46)*%
X98888789Y-109570998D03*
%TO.P,J1,47,Pin_47*%
%TO.N,unconnected-(J1-Pin_47-Pad47)*%
X96348789Y-112110998D03*
%TO.P,J1,48,Pin_48*%
%TO.N,3V*%
X98888789Y-112110998D03*
%TO.P,J1,49,Pin_49*%
%TO.N,5V*%
X96348789Y-114650998D03*
%TO.P,J1,50,Pin_50*%
%TO.N,GND*%
X98888789Y-114650998D03*
%TD*%
D20*
%TO.N,GND*%
X129286000Y-87884000D03*
X114300000Y-73152000D03*
X136144000Y-54610000D03*
X112014000Y-64516000D03*
X106680000Y-91440000D03*
X138430000Y-91440000D03*
%TD*%
%TA.AperFunction,Conductor*%
%TO.N,GND*%
G36*
X155937500Y-49851413D02*
G01*
X155982887Y-49896800D01*
X155999500Y-49958800D01*
X155999500Y-116875500D01*
X155982887Y-116937500D01*
X155937500Y-116982887D01*
X155875500Y-116999500D01*
X119998000Y-116999500D01*
X119990364Y-116999490D01*
X114271949Y-116992550D01*
X114210013Y-116975887D01*
X114164688Y-116930507D01*
X114148100Y-116868550D01*
X114148100Y-114666552D01*
X145755305Y-114666552D01*
X145755777Y-114671947D01*
X145774068Y-114881016D01*
X145775901Y-114901960D01*
X145777300Y-114907182D01*
X145777301Y-114907186D01*
X145835658Y-115124982D01*
X145835661Y-115124990D01*
X145837061Y-115130215D01*
X145839349Y-115135122D01*
X145839350Y-115135124D01*
X145934642Y-115339479D01*
X145934645Y-115339485D01*
X145936929Y-115344382D01*
X145940028Y-115348809D01*
X145940030Y-115348811D01*
X146069363Y-115533518D01*
X146069366Y-115533522D01*
X146072469Y-115537953D01*
X146239563Y-115705047D01*
X146433134Y-115840587D01*
X146647301Y-115940455D01*
X146875556Y-116001615D01*
X147110964Y-116022211D01*
X147346372Y-116001615D01*
X147574627Y-115940455D01*
X147788794Y-115840587D01*
X147982365Y-115705047D01*
X148149459Y-115537953D01*
X148279694Y-115351957D01*
X148324012Y-115313092D01*
X148381269Y-115299081D01*
X148438526Y-115313092D01*
X148482844Y-115351957D01*
X148609748Y-115533195D01*
X148616685Y-115541461D01*
X148776054Y-115700830D01*
X148784320Y-115707767D01*
X148968955Y-115837050D01*
X148978287Y-115842438D01*
X149182566Y-115937695D01*
X149192700Y-115941383D01*
X149387183Y-115993495D01*
X149398412Y-115993863D01*
X149400964Y-115982921D01*
X149900964Y-115982921D01*
X149903515Y-115993863D01*
X149914744Y-115993495D01*
X150109227Y-115941383D01*
X150119361Y-115937695D01*
X150323640Y-115842438D01*
X150332972Y-115837050D01*
X150517607Y-115707767D01*
X150525873Y-115700830D01*
X150685242Y-115541461D01*
X150692179Y-115533195D01*
X150821462Y-115348560D01*
X150826850Y-115339228D01*
X150922107Y-115134949D01*
X150925795Y-115124815D01*
X150977907Y-114930332D01*
X150978275Y-114919103D01*
X150967333Y-114916552D01*
X149917290Y-114916552D01*
X149904414Y-114920002D01*
X149900964Y-114932878D01*
X149900964Y-115982921D01*
X149400964Y-115982921D01*
X149400964Y-114540552D01*
X149417577Y-114478552D01*
X149462964Y-114433165D01*
X149524964Y-114416552D01*
X150967333Y-114416552D01*
X150978275Y-114414000D01*
X150977907Y-114402771D01*
X150925795Y-114208288D01*
X150922107Y-114198154D01*
X150826853Y-113993884D01*
X150821455Y-113984534D01*
X150692179Y-113799909D01*
X150685244Y-113791644D01*
X150525873Y-113632273D01*
X150517607Y-113625336D01*
X150336369Y-113498432D01*
X150297504Y-113454114D01*
X150283493Y-113396857D01*
X150297504Y-113339600D01*
X150336370Y-113295282D01*
X150517925Y-113168156D01*
X150517925Y-113168155D01*
X150522365Y-113165047D01*
X150689459Y-112997953D01*
X150824999Y-112804382D01*
X150924867Y-112590215D01*
X150986027Y-112361960D01*
X151006623Y-112126552D01*
X150986027Y-111891144D01*
X150924867Y-111662889D01*
X150824999Y-111448723D01*
X150689459Y-111255151D01*
X150522365Y-111088057D01*
X150517932Y-111084953D01*
X150517925Y-111084947D01*
X150336806Y-110958127D01*
X150297940Y-110913809D01*
X150283929Y-110856552D01*
X150297940Y-110799295D01*
X150336806Y-110754977D01*
X150517925Y-110628156D01*
X150517925Y-110628155D01*
X150522365Y-110625047D01*
X150689459Y-110457953D01*
X150824999Y-110264382D01*
X150924867Y-110050215D01*
X150986027Y-109821960D01*
X151006623Y-109586552D01*
X150986027Y-109351144D01*
X150924867Y-109122889D01*
X150824999Y-108908723D01*
X150689459Y-108715151D01*
X150522365Y-108548057D01*
X150517934Y-108544954D01*
X150517930Y-108544951D01*
X150336805Y-108418126D01*
X150297940Y-108373808D01*
X150283929Y-108316551D01*
X150297940Y-108259294D01*
X150336803Y-108214978D01*
X150522365Y-108085047D01*
X150689459Y-107917953D01*
X150824999Y-107724382D01*
X150924867Y-107510215D01*
X150986027Y-107281960D01*
X151006623Y-107046552D01*
X150986027Y-106811144D01*
X150924867Y-106582889D01*
X150824999Y-106368723D01*
X150689459Y-106175151D01*
X150522365Y-106008057D01*
X150517932Y-106004953D01*
X150517925Y-106004947D01*
X150336806Y-105878127D01*
X150297940Y-105833809D01*
X150283929Y-105776552D01*
X150297940Y-105719295D01*
X150336806Y-105674977D01*
X150517925Y-105548156D01*
X150517925Y-105548155D01*
X150522365Y-105545047D01*
X150689459Y-105377953D01*
X150824999Y-105184382D01*
X150924867Y-104970215D01*
X150986027Y-104741960D01*
X151006623Y-104506552D01*
X150986027Y-104271144D01*
X150924867Y-104042889D01*
X150824999Y-103828723D01*
X150689459Y-103635151D01*
X150522365Y-103468057D01*
X150517932Y-103464953D01*
X150517925Y-103464947D01*
X150336806Y-103338127D01*
X150297940Y-103293809D01*
X150283929Y-103236552D01*
X150297940Y-103179295D01*
X150336806Y-103134977D01*
X150517925Y-103008156D01*
X150517925Y-103008155D01*
X150522365Y-103005047D01*
X150689459Y-102837953D01*
X150824999Y-102644382D01*
X150924867Y-102430215D01*
X150986027Y-102201960D01*
X151006623Y-101966552D01*
X150986027Y-101731144D01*
X150924867Y-101502889D01*
X150824999Y-101288723D01*
X150689459Y-101095151D01*
X150522365Y-100928057D01*
X150517934Y-100924954D01*
X150517930Y-100924951D01*
X150336805Y-100798126D01*
X150297940Y-100753808D01*
X150283929Y-100696551D01*
X150297940Y-100639294D01*
X150336803Y-100594978D01*
X150522365Y-100465047D01*
X150689459Y-100297953D01*
X150824999Y-100104382D01*
X150924867Y-99890215D01*
X150986027Y-99661960D01*
X151006623Y-99426552D01*
X150986027Y-99191144D01*
X150924867Y-98962889D01*
X150824999Y-98748723D01*
X150689459Y-98555151D01*
X150522365Y-98388057D01*
X150517932Y-98384953D01*
X150517925Y-98384947D01*
X150336806Y-98258127D01*
X150297940Y-98213809D01*
X150283929Y-98156552D01*
X150297940Y-98099295D01*
X150336806Y-98054977D01*
X150517925Y-97928156D01*
X150517925Y-97928155D01*
X150522365Y-97925047D01*
X150689459Y-97757953D01*
X150824999Y-97564382D01*
X150924867Y-97350215D01*
X150986027Y-97121960D01*
X151006623Y-96886552D01*
X150986027Y-96651144D01*
X150924867Y-96422889D01*
X150824999Y-96208723D01*
X150689459Y-96015151D01*
X150522365Y-95848057D01*
X150517932Y-95844953D01*
X150517925Y-95844947D01*
X150336806Y-95718127D01*
X150297940Y-95673809D01*
X150283929Y-95616552D01*
X150297940Y-95559295D01*
X150336806Y-95514977D01*
X150517925Y-95388156D01*
X150517925Y-95388155D01*
X150522365Y-95385047D01*
X150689459Y-95217953D01*
X150824999Y-95024382D01*
X150924867Y-94810215D01*
X150986027Y-94581960D01*
X151006623Y-94346552D01*
X150986027Y-94111144D01*
X150930255Y-93902999D01*
X150926269Y-93888121D01*
X150926268Y-93888119D01*
X150924867Y-93882889D01*
X150824999Y-93668723D01*
X150689459Y-93475151D01*
X150522365Y-93308057D01*
X150517932Y-93304953D01*
X150517925Y-93304947D01*
X150336806Y-93178127D01*
X150297940Y-93133809D01*
X150283929Y-93076552D01*
X150297940Y-93019295D01*
X150336806Y-92974977D01*
X150517925Y-92848156D01*
X150517925Y-92848155D01*
X150522365Y-92845047D01*
X150689459Y-92677953D01*
X150824999Y-92484382D01*
X150924867Y-92270215D01*
X150986027Y-92041960D01*
X151006623Y-91806552D01*
X150986027Y-91571144D01*
X150924867Y-91342889D01*
X150824999Y-91128723D01*
X150689459Y-90935151D01*
X150522365Y-90768057D01*
X150517932Y-90764953D01*
X150517925Y-90764947D01*
X150336806Y-90638127D01*
X150297940Y-90593809D01*
X150283929Y-90536552D01*
X150297940Y-90479295D01*
X150336806Y-90434977D01*
X150517925Y-90308156D01*
X150517925Y-90308155D01*
X150522365Y-90305047D01*
X150689459Y-90137953D01*
X150824999Y-89944382D01*
X150924867Y-89730215D01*
X150986027Y-89501960D01*
X151006623Y-89266552D01*
X150986027Y-89031144D01*
X150924867Y-88802889D01*
X150824999Y-88588723D01*
X150689459Y-88395151D01*
X150522365Y-88228057D01*
X150517932Y-88224953D01*
X150517925Y-88224947D01*
X150336806Y-88098127D01*
X150297940Y-88053809D01*
X150283929Y-87996552D01*
X150297940Y-87939295D01*
X150336806Y-87894977D01*
X150517925Y-87768156D01*
X150517925Y-87768155D01*
X150522365Y-87765047D01*
X150689459Y-87597953D01*
X150824999Y-87404382D01*
X150924867Y-87190215D01*
X150986027Y-86961960D01*
X151006623Y-86726552D01*
X150986027Y-86491144D01*
X150924867Y-86262889D01*
X150824999Y-86048723D01*
X150689459Y-85855151D01*
X150522365Y-85688057D01*
X150517934Y-85684954D01*
X150517930Y-85684951D01*
X150336369Y-85557821D01*
X150297504Y-85513503D01*
X150283493Y-85456246D01*
X150297504Y-85398989D01*
X150336370Y-85354671D01*
X150517602Y-85227771D01*
X150525873Y-85220830D01*
X150685242Y-85061461D01*
X150692179Y-85053195D01*
X150821462Y-84868560D01*
X150826850Y-84859228D01*
X150922107Y-84654949D01*
X150925795Y-84644815D01*
X150977907Y-84450332D01*
X150978275Y-84439103D01*
X150967333Y-84436552D01*
X145794595Y-84436552D01*
X145783652Y-84439103D01*
X145784020Y-84450332D01*
X145836132Y-84644815D01*
X145839820Y-84654949D01*
X145935077Y-84859228D01*
X145940465Y-84868560D01*
X146069748Y-85053195D01*
X146076685Y-85061461D01*
X146236054Y-85220830D01*
X146244320Y-85227767D01*
X146425559Y-85354672D01*
X146464424Y-85398990D01*
X146478435Y-85456247D01*
X146464424Y-85513504D01*
X146425558Y-85557822D01*
X146243998Y-85684951D01*
X146243993Y-85684954D01*
X146239563Y-85688057D01*
X146235739Y-85691880D01*
X146235733Y-85691886D01*
X146076298Y-85851321D01*
X146076292Y-85851327D01*
X146072469Y-85855151D01*
X146069366Y-85859581D01*
X146069363Y-85859586D01*
X145940037Y-86044283D01*
X145940032Y-86044290D01*
X145936929Y-86048723D01*
X145934641Y-86053629D01*
X145934639Y-86053633D01*
X145839350Y-86257979D01*
X145839347Y-86257984D01*
X145837061Y-86262889D01*
X145835662Y-86268109D01*
X145835658Y-86268121D01*
X145777301Y-86485917D01*
X145777299Y-86485923D01*
X145775901Y-86491144D01*
X145775429Y-86496529D01*
X145775429Y-86496534D01*
X145757514Y-86701305D01*
X145755305Y-86726552D01*
X145755777Y-86731947D01*
X145774068Y-86941016D01*
X145775901Y-86961960D01*
X145777300Y-86967182D01*
X145777301Y-86967186D01*
X145835658Y-87184982D01*
X145835661Y-87184990D01*
X145837061Y-87190215D01*
X145839349Y-87195122D01*
X145839350Y-87195124D01*
X145934642Y-87399479D01*
X145934645Y-87399485D01*
X145936929Y-87404382D01*
X145940028Y-87408809D01*
X145940030Y-87408811D01*
X146069363Y-87593518D01*
X146069366Y-87593522D01*
X146072469Y-87597953D01*
X146239563Y-87765047D01*
X146243996Y-87768151D01*
X146244002Y-87768156D01*
X146425122Y-87894977D01*
X146463988Y-87939295D01*
X146477999Y-87996552D01*
X146463988Y-88053809D01*
X146425123Y-88098127D01*
X146244005Y-88224947D01*
X146239563Y-88228057D01*
X146235739Y-88231880D01*
X146235733Y-88231886D01*
X146076298Y-88391321D01*
X146076292Y-88391327D01*
X146072469Y-88395151D01*
X146069366Y-88399581D01*
X146069363Y-88399586D01*
X145940037Y-88584283D01*
X145940032Y-88584290D01*
X145936929Y-88588723D01*
X145934641Y-88593629D01*
X145934639Y-88593633D01*
X145839350Y-88797979D01*
X145839347Y-88797984D01*
X145837061Y-88802889D01*
X145835662Y-88808109D01*
X145835658Y-88808121D01*
X145777301Y-89025917D01*
X145777299Y-89025923D01*
X145775901Y-89031144D01*
X145755305Y-89266552D01*
X145755777Y-89271947D01*
X145774068Y-89481016D01*
X145775901Y-89501960D01*
X145777300Y-89507182D01*
X145777301Y-89507186D01*
X145835658Y-89724982D01*
X145835661Y-89724990D01*
X145837061Y-89730215D01*
X145839349Y-89735122D01*
X145839350Y-89735124D01*
X145934642Y-89939479D01*
X145934645Y-89939485D01*
X145936929Y-89944382D01*
X145940028Y-89948809D01*
X145940030Y-89948811D01*
X146069363Y-90133518D01*
X146069366Y-90133522D01*
X146072469Y-90137953D01*
X146239563Y-90305047D01*
X146243996Y-90308151D01*
X146244002Y-90308156D01*
X146425122Y-90434977D01*
X146463988Y-90479295D01*
X146477999Y-90536552D01*
X146463988Y-90593809D01*
X146425123Y-90638127D01*
X146244005Y-90764947D01*
X146239563Y-90768057D01*
X146235739Y-90771880D01*
X146235733Y-90771886D01*
X146076298Y-90931321D01*
X146076292Y-90931327D01*
X146072469Y-90935151D01*
X146069366Y-90939581D01*
X146069363Y-90939586D01*
X145940037Y-91124283D01*
X145940032Y-91124290D01*
X145936929Y-91128723D01*
X145934641Y-91133629D01*
X145934639Y-91133633D01*
X145839350Y-91337979D01*
X145839347Y-91337984D01*
X145837061Y-91342889D01*
X145835662Y-91348109D01*
X145835658Y-91348121D01*
X145777301Y-91565917D01*
X145777299Y-91565923D01*
X145775901Y-91571144D01*
X145775429Y-91576529D01*
X145775429Y-91576534D01*
X145774345Y-91588929D01*
X145755305Y-91806552D01*
X145755777Y-91811947D01*
X145774068Y-92021016D01*
X145775901Y-92041960D01*
X145777300Y-92047182D01*
X145777301Y-92047186D01*
X145835658Y-92264982D01*
X145835661Y-92264990D01*
X145837061Y-92270215D01*
X145839349Y-92275122D01*
X145839350Y-92275124D01*
X145934642Y-92479479D01*
X145934645Y-92479485D01*
X145936929Y-92484382D01*
X145940028Y-92488809D01*
X145940030Y-92488811D01*
X146069363Y-92673518D01*
X146069366Y-92673522D01*
X146072469Y-92677953D01*
X146239563Y-92845047D01*
X146243996Y-92848151D01*
X146244002Y-92848156D01*
X146425122Y-92974977D01*
X146463988Y-93019295D01*
X146477999Y-93076552D01*
X146463988Y-93133809D01*
X146425123Y-93178127D01*
X146244005Y-93304947D01*
X146239563Y-93308057D01*
X146235739Y-93311880D01*
X146235733Y-93311886D01*
X146076298Y-93471321D01*
X146076292Y-93471327D01*
X146072469Y-93475151D01*
X146069366Y-93479581D01*
X146069363Y-93479586D01*
X145940037Y-93664283D01*
X145940032Y-93664290D01*
X145936929Y-93668723D01*
X145934641Y-93673629D01*
X145934639Y-93673633D01*
X145839350Y-93877979D01*
X145839347Y-93877984D01*
X145837061Y-93882889D01*
X145835662Y-93888109D01*
X145835658Y-93888121D01*
X145777301Y-94105917D01*
X145777299Y-94105923D01*
X145775901Y-94111144D01*
X145775429Y-94116529D01*
X145775429Y-94116534D01*
X145774345Y-94128929D01*
X145755305Y-94346552D01*
X145755777Y-94351947D01*
X145774068Y-94561016D01*
X145775901Y-94581960D01*
X145777300Y-94587182D01*
X145777301Y-94587186D01*
X145835658Y-94804982D01*
X145835661Y-94804990D01*
X145837061Y-94810215D01*
X145839349Y-94815122D01*
X145839350Y-94815124D01*
X145934642Y-95019479D01*
X145934645Y-95019485D01*
X145936929Y-95024382D01*
X145940028Y-95028809D01*
X145940030Y-95028811D01*
X146069363Y-95213518D01*
X146069366Y-95213522D01*
X146072469Y-95217953D01*
X146239563Y-95385047D01*
X146243996Y-95388151D01*
X146244002Y-95388156D01*
X146425122Y-95514977D01*
X146463988Y-95559295D01*
X146477999Y-95616552D01*
X146463988Y-95673809D01*
X146425123Y-95718127D01*
X146244005Y-95844947D01*
X146239563Y-95848057D01*
X146235739Y-95851880D01*
X146235733Y-95851886D01*
X146076298Y-96011321D01*
X146076292Y-96011327D01*
X146072469Y-96015151D01*
X146069366Y-96019581D01*
X146069363Y-96019586D01*
X145940037Y-96204283D01*
X145940032Y-96204290D01*
X145936929Y-96208723D01*
X145934641Y-96213629D01*
X145934639Y-96213633D01*
X145839350Y-96417979D01*
X145839347Y-96417984D01*
X145837061Y-96422889D01*
X145835662Y-96428109D01*
X145835658Y-96428121D01*
X145777301Y-96645917D01*
X145777299Y-96645923D01*
X145775901Y-96651144D01*
X145775429Y-96656529D01*
X145775429Y-96656534D01*
X145774345Y-96668929D01*
X145755305Y-96886552D01*
X145755777Y-96891947D01*
X145774068Y-97101016D01*
X145775901Y-97121960D01*
X145777300Y-97127182D01*
X145777301Y-97127186D01*
X145835658Y-97344982D01*
X145835661Y-97344990D01*
X145837061Y-97350215D01*
X145839349Y-97355122D01*
X145839350Y-97355124D01*
X145934642Y-97559479D01*
X145934645Y-97559485D01*
X145936929Y-97564382D01*
X145940028Y-97568809D01*
X145940030Y-97568811D01*
X146069363Y-97753518D01*
X146069366Y-97753522D01*
X146072469Y-97757953D01*
X146239563Y-97925047D01*
X146243996Y-97928151D01*
X146244002Y-97928156D01*
X146425122Y-98054977D01*
X146463988Y-98099295D01*
X146477999Y-98156552D01*
X146463988Y-98213809D01*
X146425123Y-98258127D01*
X146244005Y-98384947D01*
X146239563Y-98388057D01*
X146235739Y-98391880D01*
X146235733Y-98391886D01*
X146076298Y-98551321D01*
X146076292Y-98551327D01*
X146072469Y-98555151D01*
X146069366Y-98559581D01*
X146069363Y-98559586D01*
X145940037Y-98744283D01*
X145940032Y-98744290D01*
X145936929Y-98748723D01*
X145934641Y-98753629D01*
X145934639Y-98753633D01*
X145839350Y-98957979D01*
X145839347Y-98957984D01*
X145837061Y-98962889D01*
X145835662Y-98968109D01*
X145835658Y-98968121D01*
X145777301Y-99185917D01*
X145777299Y-99185923D01*
X145775901Y-99191144D01*
X145775429Y-99196529D01*
X145775429Y-99196534D01*
X145774345Y-99208929D01*
X145755305Y-99426552D01*
X145755777Y-99431947D01*
X145774068Y-99641016D01*
X145775901Y-99661960D01*
X145777300Y-99667182D01*
X145777301Y-99667186D01*
X145835658Y-99884982D01*
X145835661Y-99884990D01*
X145837061Y-99890215D01*
X145839349Y-99895122D01*
X145839350Y-99895124D01*
X145934642Y-100099479D01*
X145934645Y-100099485D01*
X145936929Y-100104382D01*
X145940028Y-100108809D01*
X145940030Y-100108811D01*
X146069363Y-100293518D01*
X146069366Y-100293522D01*
X146072469Y-100297953D01*
X146239563Y-100465047D01*
X146243996Y-100468151D01*
X146244002Y-100468156D01*
X146425122Y-100594977D01*
X146463988Y-100639295D01*
X146477999Y-100696552D01*
X146463988Y-100753809D01*
X146425124Y-100798126D01*
X146239563Y-100928057D01*
X146235739Y-100931880D01*
X146235733Y-100931886D01*
X146076298Y-101091321D01*
X146076292Y-101091327D01*
X146072469Y-101095151D01*
X146069366Y-101099581D01*
X146069363Y-101099586D01*
X145940037Y-101284283D01*
X145940032Y-101284290D01*
X145936929Y-101288723D01*
X145934641Y-101293629D01*
X145934639Y-101293633D01*
X145839350Y-101497979D01*
X145839347Y-101497984D01*
X145837061Y-101502889D01*
X145835662Y-101508109D01*
X145835658Y-101508121D01*
X145777301Y-101725917D01*
X145777299Y-101725923D01*
X145775901Y-101731144D01*
X145775429Y-101736529D01*
X145775429Y-101736534D01*
X145774345Y-101748929D01*
X145755305Y-101966552D01*
X145755777Y-101971947D01*
X145774068Y-102181016D01*
X145775901Y-102201960D01*
X145777300Y-102207182D01*
X145777301Y-102207186D01*
X145835658Y-102424982D01*
X145835661Y-102424990D01*
X145837061Y-102430215D01*
X145839349Y-102435122D01*
X145839350Y-102435124D01*
X145934642Y-102639479D01*
X145934645Y-102639485D01*
X145936929Y-102644382D01*
X145940028Y-102648809D01*
X145940030Y-102648811D01*
X146069363Y-102833518D01*
X146069366Y-102833522D01*
X146072469Y-102837953D01*
X146239563Y-103005047D01*
X146243996Y-103008151D01*
X146244002Y-103008156D01*
X146425122Y-103134977D01*
X146463988Y-103179295D01*
X146477999Y-103236552D01*
X146463988Y-103293809D01*
X146425123Y-103338127D01*
X146244005Y-103464947D01*
X146239563Y-103468057D01*
X146235739Y-103471880D01*
X146235733Y-103471886D01*
X146076298Y-103631321D01*
X146076292Y-103631327D01*
X146072469Y-103635151D01*
X146069366Y-103639581D01*
X146069363Y-103639586D01*
X145940037Y-103824283D01*
X145940032Y-103824290D01*
X145936929Y-103828723D01*
X145934641Y-103833629D01*
X145934639Y-103833633D01*
X145839350Y-104037979D01*
X145839347Y-104037984D01*
X145837061Y-104042889D01*
X145835662Y-104048109D01*
X145835658Y-104048121D01*
X145777301Y-104265917D01*
X145777299Y-104265923D01*
X145775901Y-104271144D01*
X145775429Y-104276529D01*
X145775429Y-104276534D01*
X145774345Y-104288929D01*
X145755305Y-104506552D01*
X145755777Y-104511947D01*
X145774068Y-104721016D01*
X145775901Y-104741960D01*
X145777300Y-104747182D01*
X145777301Y-104747186D01*
X145835658Y-104964982D01*
X145835661Y-104964990D01*
X145837061Y-104970215D01*
X145839349Y-104975122D01*
X145839350Y-104975124D01*
X145934642Y-105179479D01*
X145934645Y-105179485D01*
X145936929Y-105184382D01*
X145940028Y-105188809D01*
X145940030Y-105188811D01*
X146069363Y-105373518D01*
X146069366Y-105373522D01*
X146072469Y-105377953D01*
X146239563Y-105545047D01*
X146243996Y-105548151D01*
X146244002Y-105548156D01*
X146425122Y-105674977D01*
X146463988Y-105719295D01*
X146477999Y-105776552D01*
X146463988Y-105833809D01*
X146425123Y-105878127D01*
X146244005Y-106004947D01*
X146239563Y-106008057D01*
X146235739Y-106011880D01*
X146235733Y-106011886D01*
X146076298Y-106171321D01*
X146076292Y-106171327D01*
X146072469Y-106175151D01*
X146069366Y-106179581D01*
X146069363Y-106179586D01*
X145940037Y-106364283D01*
X145940032Y-106364290D01*
X145936929Y-106368723D01*
X145934641Y-106373629D01*
X145934639Y-106373633D01*
X145839350Y-106577979D01*
X145839347Y-106577984D01*
X145837061Y-106582889D01*
X145835662Y-106588109D01*
X145835658Y-106588121D01*
X145777301Y-106805917D01*
X145777299Y-106805923D01*
X145775901Y-106811144D01*
X145775429Y-106816529D01*
X145775429Y-106816534D01*
X145774345Y-106828929D01*
X145755305Y-107046552D01*
X145755777Y-107051947D01*
X145774068Y-107261016D01*
X145775901Y-107281960D01*
X145777300Y-107287182D01*
X145777301Y-107287186D01*
X145835658Y-107504982D01*
X145835661Y-107504990D01*
X145837061Y-107510215D01*
X145839349Y-107515122D01*
X145839350Y-107515124D01*
X145934642Y-107719479D01*
X145934645Y-107719485D01*
X145936929Y-107724382D01*
X145940028Y-107728809D01*
X145940030Y-107728811D01*
X146069363Y-107913518D01*
X146069366Y-107913522D01*
X146072469Y-107917953D01*
X146239563Y-108085047D01*
X146243996Y-108088151D01*
X146244002Y-108088156D01*
X146425122Y-108214977D01*
X146463988Y-108259295D01*
X146477999Y-108316552D01*
X146463988Y-108373809D01*
X146425124Y-108418126D01*
X146239563Y-108548057D01*
X146235739Y-108551880D01*
X146235733Y-108551886D01*
X146076298Y-108711321D01*
X146076292Y-108711327D01*
X146072469Y-108715151D01*
X146069366Y-108719581D01*
X146069363Y-108719586D01*
X145940037Y-108904283D01*
X145940032Y-108904290D01*
X145936929Y-108908723D01*
X145934641Y-108913629D01*
X145934639Y-108913633D01*
X145839350Y-109117979D01*
X145839347Y-109117984D01*
X145837061Y-109122889D01*
X145835662Y-109128109D01*
X145835658Y-109128121D01*
X145777301Y-109345917D01*
X145777299Y-109345923D01*
X145775901Y-109351144D01*
X145775429Y-109356529D01*
X145775429Y-109356534D01*
X145764015Y-109487000D01*
X145755305Y-109586552D01*
X145755777Y-109591947D01*
X145774068Y-109801016D01*
X145775901Y-109821960D01*
X145777300Y-109827182D01*
X145777301Y-109827186D01*
X145835658Y-110044982D01*
X145835661Y-110044990D01*
X145837061Y-110050215D01*
X145839349Y-110055122D01*
X145839350Y-110055124D01*
X145934642Y-110259479D01*
X145934645Y-110259485D01*
X145936929Y-110264382D01*
X145940028Y-110268809D01*
X145940030Y-110268811D01*
X146069363Y-110453518D01*
X146069366Y-110453522D01*
X146072469Y-110457953D01*
X146239563Y-110625047D01*
X146243996Y-110628151D01*
X146244002Y-110628156D01*
X146425122Y-110754977D01*
X146463988Y-110799295D01*
X146477999Y-110856552D01*
X146463988Y-110913809D01*
X146425123Y-110958127D01*
X146244005Y-111084947D01*
X146239563Y-111088057D01*
X146235739Y-111091880D01*
X146235733Y-111091886D01*
X146076298Y-111251321D01*
X146076292Y-111251327D01*
X146072469Y-111255151D01*
X146069366Y-111259581D01*
X146069363Y-111259586D01*
X145940037Y-111444283D01*
X145940032Y-111444290D01*
X145936929Y-111448723D01*
X145934641Y-111453629D01*
X145934639Y-111453633D01*
X145839350Y-111657979D01*
X145839347Y-111657984D01*
X145837061Y-111662889D01*
X145835662Y-111668109D01*
X145835658Y-111668121D01*
X145777301Y-111885917D01*
X145777299Y-111885923D01*
X145775901Y-111891144D01*
X145775429Y-111896529D01*
X145775429Y-111896534D01*
X145774345Y-111908929D01*
X145755305Y-112126552D01*
X145755777Y-112131947D01*
X145774068Y-112341016D01*
X145775901Y-112361960D01*
X145777300Y-112367182D01*
X145777301Y-112367186D01*
X145835658Y-112584982D01*
X145835661Y-112584990D01*
X145837061Y-112590215D01*
X145839349Y-112595122D01*
X145839350Y-112595124D01*
X145934642Y-112799479D01*
X145934645Y-112799485D01*
X145936929Y-112804382D01*
X145940028Y-112808809D01*
X145940030Y-112808811D01*
X146069363Y-112993518D01*
X146069366Y-112993522D01*
X146072469Y-112997953D01*
X146239563Y-113165047D01*
X146243996Y-113168151D01*
X146244002Y-113168156D01*
X146425122Y-113294977D01*
X146463988Y-113339295D01*
X146477999Y-113396552D01*
X146463988Y-113453809D01*
X146425123Y-113498127D01*
X146244005Y-113624947D01*
X146239563Y-113628057D01*
X146235739Y-113631880D01*
X146235733Y-113631886D01*
X146076298Y-113791321D01*
X146076292Y-113791327D01*
X146072469Y-113795151D01*
X146069366Y-113799581D01*
X146069363Y-113799586D01*
X145940037Y-113984283D01*
X145940032Y-113984290D01*
X145936929Y-113988723D01*
X145934641Y-113993629D01*
X145934639Y-113993633D01*
X145839350Y-114197979D01*
X145839347Y-114197984D01*
X145837061Y-114202889D01*
X145835662Y-114208109D01*
X145835658Y-114208121D01*
X145777301Y-114425917D01*
X145777299Y-114425923D01*
X145775901Y-114431144D01*
X145775429Y-114436529D01*
X145775429Y-114436534D01*
X145766329Y-114540552D01*
X145755305Y-114666552D01*
X114148100Y-114666552D01*
X114148100Y-111506000D01*
X118786802Y-111506000D01*
X118787331Y-111511709D01*
X118800383Y-111652568D01*
X118805552Y-111708345D01*
X118861163Y-111903799D01*
X118863715Y-111908924D01*
X118863717Y-111908929D01*
X118949188Y-112080576D01*
X118949190Y-112080580D01*
X118951743Y-112085706D01*
X118955192Y-112090273D01*
X118955195Y-112090278D01*
X119070747Y-112243294D01*
X119070751Y-112243299D01*
X119074205Y-112247872D01*
X119078441Y-112251733D01*
X119078445Y-112251738D01*
X119176379Y-112341016D01*
X119224380Y-112384775D01*
X119397154Y-112491752D01*
X119586643Y-112565160D01*
X119786394Y-112602500D01*
X119983877Y-112602500D01*
X119989606Y-112602500D01*
X120189357Y-112565160D01*
X120378846Y-112491752D01*
X120551620Y-112384775D01*
X120701795Y-112247872D01*
X120824257Y-112085706D01*
X120914837Y-111903799D01*
X120970448Y-111708345D01*
X120989198Y-111506000D01*
X126406802Y-111506000D01*
X126407331Y-111511709D01*
X126420383Y-111652568D01*
X126425552Y-111708345D01*
X126481163Y-111903799D01*
X126483715Y-111908924D01*
X126483717Y-111908929D01*
X126569188Y-112080576D01*
X126569190Y-112080580D01*
X126571743Y-112085706D01*
X126575192Y-112090273D01*
X126575195Y-112090278D01*
X126690747Y-112243294D01*
X126690751Y-112243299D01*
X126694205Y-112247872D01*
X126698441Y-112251733D01*
X126698445Y-112251738D01*
X126796379Y-112341016D01*
X126844380Y-112384775D01*
X127017154Y-112491752D01*
X127206643Y-112565160D01*
X127406394Y-112602500D01*
X127603877Y-112602500D01*
X127609606Y-112602500D01*
X127809357Y-112565160D01*
X127998846Y-112491752D01*
X128171620Y-112384775D01*
X128321795Y-112247872D01*
X128444257Y-112085706D01*
X128534837Y-111903799D01*
X128590448Y-111708345D01*
X128609198Y-111506000D01*
X128590448Y-111303655D01*
X128534837Y-111108201D01*
X128444257Y-110926294D01*
X128399852Y-110867492D01*
X128325252Y-110768705D01*
X128325248Y-110768701D01*
X128321795Y-110764128D01*
X128317558Y-110760265D01*
X128317554Y-110760261D01*
X128175854Y-110631085D01*
X128175855Y-110631085D01*
X128171620Y-110627225D01*
X128166754Y-110624212D01*
X128166750Y-110624209D01*
X128017145Y-110531578D01*
X134175500Y-110531578D01*
X134175501Y-110534872D01*
X134175853Y-110538150D01*
X134175854Y-110538161D01*
X134181079Y-110586768D01*
X134181080Y-110586773D01*
X134181909Y-110594483D01*
X134184619Y-110601749D01*
X134184620Y-110601753D01*
X134213718Y-110679767D01*
X134232204Y-110729331D01*
X134237518Y-110736430D01*
X134237519Y-110736431D01*
X134243425Y-110744321D01*
X134318454Y-110844546D01*
X134433669Y-110930796D01*
X134568517Y-110981091D01*
X134628127Y-110987500D01*
X136723872Y-110987499D01*
X136783483Y-110981091D01*
X136918331Y-110930796D01*
X137033546Y-110844546D01*
X137119796Y-110729331D01*
X137121368Y-110730507D01*
X137146538Y-110701578D01*
X137195168Y-110679767D01*
X137248462Y-110680385D01*
X137296573Y-110703318D01*
X137348712Y-110743899D01*
X137357276Y-110749495D01*
X137566885Y-110862929D01*
X137576239Y-110867032D01*
X137801656Y-110944417D01*
X137811568Y-110946928D01*
X138046643Y-110986155D01*
X138056839Y-110987000D01*
X138295161Y-110987000D01*
X138305356Y-110986155D01*
X138540431Y-110946928D01*
X138550343Y-110944417D01*
X138775760Y-110867032D01*
X138785114Y-110862929D01*
X138994723Y-110749495D01*
X139003281Y-110743903D01*
X139032146Y-110721437D01*
X139040250Y-110710250D01*
X139033589Y-110698142D01*
X137910128Y-109574681D01*
X137878034Y-109519094D01*
X137878034Y-109487000D01*
X138534431Y-109487000D01*
X138541095Y-109498542D01*
X139389653Y-110347100D01*
X139403525Y-110355859D01*
X139447463Y-110371261D01*
X139481060Y-110404084D01*
X139481882Y-110403445D01*
X139485028Y-110407487D01*
X139487836Y-110411785D01*
X139491310Y-110415559D01*
X139491311Y-110415560D01*
X139652784Y-110590967D01*
X139652787Y-110590970D01*
X139656256Y-110594738D01*
X139852491Y-110747474D01*
X140071190Y-110865828D01*
X140306386Y-110946571D01*
X140551665Y-110987500D01*
X140795201Y-110987500D01*
X140800335Y-110987500D01*
X141045614Y-110946571D01*
X141280810Y-110865828D01*
X141499509Y-110747474D01*
X141695744Y-110594738D01*
X141864164Y-110411785D01*
X142000173Y-110203607D01*
X142100063Y-109975881D01*
X142161108Y-109734821D01*
X142181643Y-109487000D01*
X142161108Y-109239179D01*
X142100063Y-108998119D01*
X142000173Y-108770393D01*
X141961579Y-108711321D01*
X141869611Y-108570553D01*
X141864164Y-108562215D01*
X141854657Y-108551888D01*
X141699215Y-108383032D01*
X141699211Y-108383029D01*
X141695744Y-108379262D01*
X141521628Y-108243742D01*
X141503559Y-108229678D01*
X141503557Y-108229676D01*
X141499509Y-108226526D01*
X141488535Y-108220587D01*
X141285316Y-108110610D01*
X141285310Y-108110607D01*
X141280810Y-108108172D01*
X141275969Y-108106510D01*
X141275962Y-108106507D01*
X141050465Y-108029094D01*
X141050461Y-108029093D01*
X141045614Y-108027429D01*
X141036768Y-108025952D01*
X140805398Y-107987344D01*
X140805387Y-107987343D01*
X140800335Y-107986500D01*
X140551665Y-107986500D01*
X140546613Y-107987343D01*
X140546601Y-107987344D01*
X140311443Y-108026585D01*
X140311441Y-108026585D01*
X140306386Y-108027429D01*
X140301541Y-108029092D01*
X140301534Y-108029094D01*
X140076037Y-108106507D01*
X140076026Y-108106511D01*
X140071190Y-108108172D01*
X140066693Y-108110605D01*
X140066683Y-108110610D01*
X139857002Y-108224084D01*
X139856995Y-108224088D01*
X139852491Y-108226526D01*
X139848448Y-108229672D01*
X139848440Y-108229678D01*
X139663263Y-108373808D01*
X139656256Y-108379262D01*
X139652793Y-108383023D01*
X139652784Y-108383032D01*
X139491306Y-108558444D01*
X139491298Y-108558454D01*
X139487836Y-108562215D01*
X139485033Y-108566503D01*
X139481883Y-108570553D01*
X139481064Y-108569915D01*
X139447458Y-108602741D01*
X139403524Y-108618139D01*
X139389653Y-108626898D01*
X138541095Y-109475457D01*
X138534431Y-109487000D01*
X137878034Y-109487000D01*
X137878034Y-109454906D01*
X137910128Y-109399319D01*
X138176000Y-109133447D01*
X139033590Y-108275855D01*
X139040250Y-108263749D01*
X139032143Y-108252559D01*
X139003286Y-108230099D01*
X138994719Y-108224503D01*
X138785114Y-108111070D01*
X138775760Y-108106967D01*
X138550343Y-108029582D01*
X138540431Y-108027071D01*
X138305356Y-107987844D01*
X138295161Y-107987000D01*
X138056839Y-107987000D01*
X138046643Y-107987844D01*
X137811568Y-108027071D01*
X137801656Y-108029582D01*
X137576239Y-108106967D01*
X137566885Y-108111070D01*
X137357277Y-108224504D01*
X137348716Y-108230098D01*
X137296573Y-108270682D01*
X137248477Y-108293610D01*
X137195198Y-108294237D01*
X137146575Y-108272448D01*
X137121364Y-108243494D01*
X137119796Y-108244669D01*
X137033546Y-108129454D01*
X136977135Y-108087225D01*
X136925431Y-108048519D01*
X136925430Y-108048518D01*
X136918331Y-108043204D01*
X136783483Y-107992909D01*
X136775770Y-107992079D01*
X136775767Y-107992079D01*
X136727180Y-107986855D01*
X136727169Y-107986854D01*
X136723873Y-107986500D01*
X136720550Y-107986500D01*
X134631439Y-107986500D01*
X134631420Y-107986500D01*
X134628128Y-107986501D01*
X134624850Y-107986853D01*
X134624838Y-107986854D01*
X134576231Y-107992079D01*
X134576225Y-107992080D01*
X134568517Y-107992909D01*
X134561252Y-107995618D01*
X134561246Y-107995620D01*
X134441980Y-108040104D01*
X134441978Y-108040104D01*
X134433669Y-108043204D01*
X134426572Y-108048516D01*
X134426568Y-108048519D01*
X134325550Y-108124141D01*
X134325546Y-108124144D01*
X134318454Y-108129454D01*
X134313144Y-108136546D01*
X134313141Y-108136550D01*
X134237519Y-108237568D01*
X134237516Y-108237572D01*
X134232204Y-108244669D01*
X134229104Y-108252978D01*
X134229104Y-108252980D01*
X134184620Y-108372247D01*
X134184619Y-108372250D01*
X134181909Y-108379517D01*
X134181079Y-108387227D01*
X134181079Y-108387232D01*
X134175855Y-108435819D01*
X134175854Y-108435831D01*
X134175500Y-108439127D01*
X134175500Y-108442448D01*
X134175500Y-108442449D01*
X134175500Y-110531560D01*
X134175500Y-110531578D01*
X128017145Y-110531578D01*
X128003717Y-110523264D01*
X127998846Y-110520248D01*
X127993508Y-110518180D01*
X127993504Y-110518178D01*
X127814704Y-110448911D01*
X127814699Y-110448909D01*
X127809357Y-110446840D01*
X127803719Y-110445786D01*
X127615235Y-110410552D01*
X127615232Y-110410551D01*
X127609606Y-110409500D01*
X127406394Y-110409500D01*
X127400768Y-110410551D01*
X127400764Y-110410552D01*
X127212280Y-110445786D01*
X127212277Y-110445786D01*
X127206643Y-110446840D01*
X127201302Y-110448908D01*
X127201295Y-110448911D01*
X127022495Y-110518178D01*
X127022486Y-110518182D01*
X127017154Y-110520248D01*
X127012287Y-110523261D01*
X127012282Y-110523264D01*
X126849249Y-110624209D01*
X126849239Y-110624215D01*
X126844380Y-110627225D01*
X126840149Y-110631081D01*
X126840145Y-110631085D01*
X126698445Y-110760261D01*
X126698435Y-110760271D01*
X126694205Y-110764128D01*
X126690756Y-110768694D01*
X126690747Y-110768705D01*
X126575195Y-110921721D01*
X126575188Y-110921731D01*
X126571743Y-110926294D01*
X126569193Y-110931414D01*
X126569188Y-110931423D01*
X126483717Y-111103070D01*
X126483713Y-111103078D01*
X126481163Y-111108201D01*
X126479594Y-111113713D01*
X126479594Y-111113715D01*
X126427121Y-111298140D01*
X126425552Y-111303655D01*
X126425023Y-111309360D01*
X126425023Y-111309362D01*
X126410692Y-111464024D01*
X126406802Y-111506000D01*
X120989198Y-111506000D01*
X120970448Y-111303655D01*
X120914837Y-111108201D01*
X120824257Y-110926294D01*
X120779852Y-110867492D01*
X120705252Y-110768705D01*
X120705248Y-110768701D01*
X120701795Y-110764128D01*
X120697558Y-110760265D01*
X120697554Y-110760261D01*
X120555854Y-110631085D01*
X120555855Y-110631085D01*
X120551620Y-110627225D01*
X120546754Y-110624212D01*
X120546750Y-110624209D01*
X120383717Y-110523264D01*
X120378846Y-110520248D01*
X120373508Y-110518180D01*
X120373504Y-110518178D01*
X120194704Y-110448911D01*
X120194699Y-110448909D01*
X120189357Y-110446840D01*
X120183719Y-110445786D01*
X119995235Y-110410552D01*
X119995232Y-110410551D01*
X119989606Y-110409500D01*
X119786394Y-110409500D01*
X119780768Y-110410551D01*
X119780764Y-110410552D01*
X119592280Y-110445786D01*
X119592277Y-110445786D01*
X119586643Y-110446840D01*
X119581302Y-110448908D01*
X119581295Y-110448911D01*
X119402495Y-110518178D01*
X119402486Y-110518182D01*
X119397154Y-110520248D01*
X119392287Y-110523261D01*
X119392282Y-110523264D01*
X119229249Y-110624209D01*
X119229239Y-110624215D01*
X119224380Y-110627225D01*
X119220149Y-110631081D01*
X119220145Y-110631085D01*
X119078445Y-110760261D01*
X119078435Y-110760271D01*
X119074205Y-110764128D01*
X119070756Y-110768694D01*
X119070747Y-110768705D01*
X118955195Y-110921721D01*
X118955188Y-110921731D01*
X118951743Y-110926294D01*
X118949193Y-110931414D01*
X118949188Y-110931423D01*
X118863717Y-111103070D01*
X118863713Y-111103078D01*
X118861163Y-111108201D01*
X118859594Y-111113713D01*
X118859594Y-111113715D01*
X118807121Y-111298140D01*
X118805552Y-111303655D01*
X118805023Y-111309360D01*
X118805023Y-111309362D01*
X118790692Y-111464024D01*
X118786802Y-111506000D01*
X114148100Y-111506000D01*
X114148100Y-108966000D01*
X118786802Y-108966000D01*
X118787331Y-108971709D01*
X118800383Y-109112568D01*
X118805552Y-109168345D01*
X118861163Y-109363799D01*
X118863715Y-109368924D01*
X118863717Y-109368929D01*
X118949188Y-109540576D01*
X118949190Y-109540580D01*
X118951743Y-109545706D01*
X118955192Y-109550273D01*
X118955195Y-109550278D01*
X119070747Y-109703294D01*
X119070751Y-109703299D01*
X119074205Y-109707872D01*
X119078441Y-109711733D01*
X119078445Y-109711738D01*
X119176379Y-109801016D01*
X119224380Y-109844775D01*
X119397154Y-109951752D01*
X119586643Y-110025160D01*
X119786394Y-110062500D01*
X119983877Y-110062500D01*
X119989606Y-110062500D01*
X120189357Y-110025160D01*
X120378846Y-109951752D01*
X120551620Y-109844775D01*
X120701795Y-109707872D01*
X120824257Y-109545706D01*
X120914837Y-109363799D01*
X120970448Y-109168345D01*
X120989198Y-108966000D01*
X126406802Y-108966000D01*
X126407331Y-108971709D01*
X126420383Y-109112568D01*
X126425552Y-109168345D01*
X126481163Y-109363799D01*
X126483715Y-109368924D01*
X126483717Y-109368929D01*
X126569188Y-109540576D01*
X126569190Y-109540580D01*
X126571743Y-109545706D01*
X126575192Y-109550273D01*
X126575195Y-109550278D01*
X126690747Y-109703294D01*
X126690751Y-109703299D01*
X126694205Y-109707872D01*
X126698441Y-109711733D01*
X126698445Y-109711738D01*
X126796379Y-109801016D01*
X126844380Y-109844775D01*
X127017154Y-109951752D01*
X127206643Y-110025160D01*
X127406394Y-110062500D01*
X127603877Y-110062500D01*
X127609606Y-110062500D01*
X127809357Y-110025160D01*
X127998846Y-109951752D01*
X128171620Y-109844775D01*
X128321795Y-109707872D01*
X128444257Y-109545706D01*
X128534837Y-109363799D01*
X128590448Y-109168345D01*
X128609198Y-108966000D01*
X128590448Y-108763655D01*
X128534837Y-108568201D01*
X128444257Y-108386294D01*
X128440804Y-108381721D01*
X128325252Y-108228705D01*
X128325248Y-108228701D01*
X128321795Y-108224128D01*
X128317558Y-108220265D01*
X128317554Y-108220261D01*
X128175854Y-108091085D01*
X128175855Y-108091085D01*
X128171620Y-108087225D01*
X128166754Y-108084212D01*
X128166750Y-108084209D01*
X128003717Y-107983264D01*
X127998846Y-107980248D01*
X127993508Y-107978180D01*
X127993504Y-107978178D01*
X127814704Y-107908911D01*
X127814699Y-107908909D01*
X127809357Y-107906840D01*
X127803719Y-107905786D01*
X127615235Y-107870552D01*
X127615232Y-107870551D01*
X127609606Y-107869500D01*
X127406394Y-107869500D01*
X127400768Y-107870551D01*
X127400764Y-107870552D01*
X127212280Y-107905786D01*
X127212277Y-107905786D01*
X127206643Y-107906840D01*
X127201302Y-107908908D01*
X127201295Y-107908911D01*
X127022495Y-107978178D01*
X127022486Y-107978182D01*
X127017154Y-107980248D01*
X127012287Y-107983261D01*
X127012282Y-107983264D01*
X126849249Y-108084209D01*
X126849239Y-108084215D01*
X126844380Y-108087225D01*
X126840149Y-108091081D01*
X126840145Y-108091085D01*
X126698445Y-108220261D01*
X126698435Y-108220271D01*
X126694205Y-108224128D01*
X126690756Y-108228694D01*
X126690747Y-108228705D01*
X126575195Y-108381721D01*
X126575188Y-108381731D01*
X126571743Y-108386294D01*
X126569193Y-108391414D01*
X126569188Y-108391423D01*
X126483717Y-108563070D01*
X126483713Y-108563078D01*
X126481163Y-108568201D01*
X126479594Y-108573713D01*
X126479594Y-108573715D01*
X126427121Y-108758140D01*
X126425552Y-108763655D01*
X126425023Y-108769360D01*
X126425023Y-108769362D01*
X126410692Y-108924024D01*
X126406802Y-108966000D01*
X120989198Y-108966000D01*
X120970448Y-108763655D01*
X120914837Y-108568201D01*
X120824257Y-108386294D01*
X120820804Y-108381721D01*
X120705252Y-108228705D01*
X120705248Y-108228701D01*
X120701795Y-108224128D01*
X120697558Y-108220265D01*
X120697554Y-108220261D01*
X120555854Y-108091085D01*
X120555855Y-108091085D01*
X120551620Y-108087225D01*
X120546754Y-108084212D01*
X120546750Y-108084209D01*
X120383717Y-107983264D01*
X120378846Y-107980248D01*
X120373508Y-107978180D01*
X120373504Y-107978178D01*
X120194704Y-107908911D01*
X120194699Y-107908909D01*
X120189357Y-107906840D01*
X120183719Y-107905786D01*
X119995235Y-107870552D01*
X119995232Y-107870551D01*
X119989606Y-107869500D01*
X119786394Y-107869500D01*
X119780768Y-107870551D01*
X119780764Y-107870552D01*
X119592280Y-107905786D01*
X119592277Y-107905786D01*
X119586643Y-107906840D01*
X119581302Y-107908908D01*
X119581295Y-107908911D01*
X119402495Y-107978178D01*
X119402486Y-107978182D01*
X119397154Y-107980248D01*
X119392287Y-107983261D01*
X119392282Y-107983264D01*
X119229249Y-108084209D01*
X119229239Y-108084215D01*
X119224380Y-108087225D01*
X119220149Y-108091081D01*
X119220145Y-108091085D01*
X119078445Y-108220261D01*
X119078435Y-108220271D01*
X119074205Y-108224128D01*
X119070756Y-108228694D01*
X119070747Y-108228705D01*
X118955195Y-108381721D01*
X118955188Y-108381731D01*
X118951743Y-108386294D01*
X118949193Y-108391414D01*
X118949188Y-108391423D01*
X118863717Y-108563070D01*
X118863713Y-108563078D01*
X118861163Y-108568201D01*
X118859594Y-108573713D01*
X118859594Y-108573715D01*
X118807121Y-108758140D01*
X118805552Y-108763655D01*
X118805023Y-108769360D01*
X118805023Y-108769362D01*
X118790692Y-108924024D01*
X118786802Y-108966000D01*
X114148100Y-108966000D01*
X114148100Y-106426000D01*
X118786802Y-106426000D01*
X118787331Y-106431709D01*
X118800383Y-106572568D01*
X118805552Y-106628345D01*
X118861163Y-106823799D01*
X118863715Y-106828924D01*
X118863717Y-106828929D01*
X118949188Y-107000576D01*
X118949190Y-107000580D01*
X118951743Y-107005706D01*
X118955192Y-107010273D01*
X118955195Y-107010278D01*
X119070747Y-107163294D01*
X119070751Y-107163299D01*
X119074205Y-107167872D01*
X119078441Y-107171733D01*
X119078445Y-107171738D01*
X119176379Y-107261016D01*
X119224380Y-107304775D01*
X119397154Y-107411752D01*
X119586643Y-107485160D01*
X119786394Y-107522500D01*
X119983877Y-107522500D01*
X119989606Y-107522500D01*
X120189357Y-107485160D01*
X120378846Y-107411752D01*
X120551620Y-107304775D01*
X120701795Y-107167872D01*
X120824257Y-107005706D01*
X120914837Y-106823799D01*
X120970448Y-106628345D01*
X120989198Y-106426000D01*
X126406802Y-106426000D01*
X126407331Y-106431709D01*
X126420383Y-106572568D01*
X126425552Y-106628345D01*
X126481163Y-106823799D01*
X126483715Y-106828924D01*
X126483717Y-106828929D01*
X126569188Y-107000576D01*
X126569190Y-107000580D01*
X126571743Y-107005706D01*
X126575192Y-107010273D01*
X126575195Y-107010278D01*
X126690747Y-107163294D01*
X126690751Y-107163299D01*
X126694205Y-107167872D01*
X126698441Y-107171733D01*
X126698445Y-107171738D01*
X126796379Y-107261016D01*
X126844380Y-107304775D01*
X127017154Y-107411752D01*
X127206643Y-107485160D01*
X127406394Y-107522500D01*
X127603877Y-107522500D01*
X127609606Y-107522500D01*
X127809357Y-107485160D01*
X127998846Y-107411752D01*
X128171620Y-107304775D01*
X128321795Y-107167872D01*
X128444257Y-107005706D01*
X128534837Y-106823799D01*
X128590448Y-106628345D01*
X128609198Y-106426000D01*
X128590448Y-106223655D01*
X128534837Y-106028201D01*
X128444257Y-105846294D01*
X128423084Y-105818256D01*
X128325252Y-105688705D01*
X128325248Y-105688701D01*
X128321795Y-105684128D01*
X128317558Y-105680265D01*
X128317554Y-105680261D01*
X128175854Y-105551085D01*
X128175855Y-105551085D01*
X128171620Y-105547225D01*
X128166754Y-105544212D01*
X128166750Y-105544209D01*
X128003717Y-105443264D01*
X127998846Y-105440248D01*
X127993508Y-105438180D01*
X127993504Y-105438178D01*
X127814704Y-105368911D01*
X127814699Y-105368909D01*
X127809357Y-105366840D01*
X127803719Y-105365786D01*
X127615235Y-105330552D01*
X127615232Y-105330551D01*
X127609606Y-105329500D01*
X127406394Y-105329500D01*
X127400768Y-105330551D01*
X127400764Y-105330552D01*
X127212280Y-105365786D01*
X127212277Y-105365786D01*
X127206643Y-105366840D01*
X127201302Y-105368908D01*
X127201295Y-105368911D01*
X127022495Y-105438178D01*
X127022486Y-105438182D01*
X127017154Y-105440248D01*
X127012287Y-105443261D01*
X127012282Y-105443264D01*
X126849249Y-105544209D01*
X126849239Y-105544215D01*
X126844380Y-105547225D01*
X126840149Y-105551081D01*
X126840145Y-105551085D01*
X126698445Y-105680261D01*
X126698435Y-105680271D01*
X126694205Y-105684128D01*
X126690756Y-105688694D01*
X126690747Y-105688705D01*
X126575195Y-105841721D01*
X126575188Y-105841731D01*
X126571743Y-105846294D01*
X126569193Y-105851414D01*
X126569188Y-105851423D01*
X126483717Y-106023070D01*
X126483713Y-106023078D01*
X126481163Y-106028201D01*
X126479594Y-106033713D01*
X126479594Y-106033715D01*
X126427121Y-106218140D01*
X126425552Y-106223655D01*
X126425023Y-106229360D01*
X126425023Y-106229362D01*
X126410692Y-106384024D01*
X126406802Y-106426000D01*
X120989198Y-106426000D01*
X120970448Y-106223655D01*
X120914837Y-106028201D01*
X120824257Y-105846294D01*
X120803084Y-105818256D01*
X120705252Y-105688705D01*
X120705248Y-105688701D01*
X120701795Y-105684128D01*
X120697558Y-105680265D01*
X120697554Y-105680261D01*
X120555854Y-105551085D01*
X120555855Y-105551085D01*
X120551620Y-105547225D01*
X120546754Y-105544212D01*
X120546750Y-105544209D01*
X120383717Y-105443264D01*
X120378846Y-105440248D01*
X120373508Y-105438180D01*
X120373504Y-105438178D01*
X120194704Y-105368911D01*
X120194699Y-105368909D01*
X120189357Y-105366840D01*
X120183719Y-105365786D01*
X119995235Y-105330552D01*
X119995232Y-105330551D01*
X119989606Y-105329500D01*
X119786394Y-105329500D01*
X119780768Y-105330551D01*
X119780764Y-105330552D01*
X119592280Y-105365786D01*
X119592277Y-105365786D01*
X119586643Y-105366840D01*
X119581302Y-105368908D01*
X119581295Y-105368911D01*
X119402495Y-105438178D01*
X119402486Y-105438182D01*
X119397154Y-105440248D01*
X119392287Y-105443261D01*
X119392282Y-105443264D01*
X119229249Y-105544209D01*
X119229239Y-105544215D01*
X119224380Y-105547225D01*
X119220149Y-105551081D01*
X119220145Y-105551085D01*
X119078445Y-105680261D01*
X119078435Y-105680271D01*
X119074205Y-105684128D01*
X119070756Y-105688694D01*
X119070747Y-105688705D01*
X118955195Y-105841721D01*
X118955188Y-105841731D01*
X118951743Y-105846294D01*
X118949193Y-105851414D01*
X118949188Y-105851423D01*
X118863717Y-106023070D01*
X118863713Y-106023078D01*
X118861163Y-106028201D01*
X118859594Y-106033713D01*
X118859594Y-106033715D01*
X118807121Y-106218140D01*
X118805552Y-106223655D01*
X118805023Y-106229360D01*
X118805023Y-106229362D01*
X118790692Y-106384024D01*
X118786802Y-106426000D01*
X114148100Y-106426000D01*
X114148100Y-103886000D01*
X118786802Y-103886000D01*
X118787331Y-103891709D01*
X118804628Y-104078379D01*
X118805552Y-104088345D01*
X118861163Y-104283799D01*
X118863715Y-104288924D01*
X118863717Y-104288929D01*
X118949188Y-104460576D01*
X118949190Y-104460580D01*
X118951743Y-104465706D01*
X118955192Y-104470273D01*
X118955195Y-104470278D01*
X119070747Y-104623294D01*
X119070751Y-104623299D01*
X119074205Y-104627872D01*
X119078441Y-104631733D01*
X119078445Y-104631738D01*
X119176379Y-104721016D01*
X119224380Y-104764775D01*
X119397154Y-104871752D01*
X119586643Y-104945160D01*
X119786394Y-104982500D01*
X119983877Y-104982500D01*
X119989606Y-104982500D01*
X120189357Y-104945160D01*
X120378846Y-104871752D01*
X120551620Y-104764775D01*
X120701795Y-104627872D01*
X120824257Y-104465706D01*
X120914837Y-104283799D01*
X120970448Y-104088345D01*
X120989198Y-103886000D01*
X126406802Y-103886000D01*
X126407331Y-103891709D01*
X126424628Y-104078379D01*
X126425552Y-104088345D01*
X126481163Y-104283799D01*
X126483715Y-104288924D01*
X126483717Y-104288929D01*
X126569188Y-104460576D01*
X126569190Y-104460580D01*
X126571743Y-104465706D01*
X126575192Y-104470273D01*
X126575195Y-104470278D01*
X126690747Y-104623294D01*
X126690751Y-104623299D01*
X126694205Y-104627872D01*
X126698441Y-104631733D01*
X126698445Y-104631738D01*
X126796379Y-104721016D01*
X126844380Y-104764775D01*
X127017154Y-104871752D01*
X127206643Y-104945160D01*
X127406394Y-104982500D01*
X127603877Y-104982500D01*
X127609606Y-104982500D01*
X127809357Y-104945160D01*
X127998846Y-104871752D01*
X128171620Y-104764775D01*
X128321795Y-104627872D01*
X128444257Y-104465706D01*
X128534837Y-104283799D01*
X128590448Y-104088345D01*
X128609198Y-103886000D01*
X128590448Y-103683655D01*
X128575631Y-103631578D01*
X131075500Y-103631578D01*
X131075501Y-103634872D01*
X131075853Y-103638150D01*
X131075854Y-103638161D01*
X131081079Y-103686768D01*
X131081080Y-103686773D01*
X131081909Y-103694483D01*
X131084619Y-103701749D01*
X131084620Y-103701753D01*
X131118217Y-103791831D01*
X131132204Y-103829331D01*
X131218454Y-103944546D01*
X131333669Y-104030796D01*
X131468517Y-104081091D01*
X131528127Y-104087500D01*
X133623872Y-104087499D01*
X133683483Y-104081091D01*
X133818331Y-104030796D01*
X133933546Y-103944546D01*
X134019796Y-103829331D01*
X134070091Y-103694483D01*
X134076500Y-103634873D01*
X134076500Y-103631578D01*
X142275500Y-103631578D01*
X142275501Y-103634872D01*
X142275853Y-103638150D01*
X142275854Y-103638161D01*
X142281079Y-103686768D01*
X142281080Y-103686773D01*
X142281909Y-103694483D01*
X142284619Y-103701749D01*
X142284620Y-103701753D01*
X142318217Y-103791831D01*
X142332204Y-103829331D01*
X142418454Y-103944546D01*
X142533669Y-104030796D01*
X142668517Y-104081091D01*
X142728127Y-104087500D01*
X144823872Y-104087499D01*
X144883483Y-104081091D01*
X145018331Y-104030796D01*
X145133546Y-103944546D01*
X145219796Y-103829331D01*
X145270091Y-103694483D01*
X145276500Y-103634873D01*
X145276499Y-100339128D01*
X145270091Y-100279517D01*
X145219796Y-100144669D01*
X145133546Y-100029454D01*
X145018331Y-99943204D01*
X144906375Y-99901447D01*
X144890752Y-99895620D01*
X144890750Y-99895619D01*
X144883483Y-99892909D01*
X144875770Y-99892079D01*
X144875767Y-99892079D01*
X144827180Y-99886855D01*
X144827169Y-99886854D01*
X144823873Y-99886500D01*
X144820550Y-99886500D01*
X142731439Y-99886500D01*
X142731420Y-99886500D01*
X142728128Y-99886501D01*
X142724850Y-99886853D01*
X142724838Y-99886854D01*
X142676231Y-99892079D01*
X142676225Y-99892080D01*
X142668517Y-99892909D01*
X142661252Y-99895618D01*
X142661246Y-99895620D01*
X142541980Y-99940104D01*
X142541978Y-99940104D01*
X142533669Y-99943204D01*
X142526572Y-99948516D01*
X142526568Y-99948519D01*
X142425550Y-100024141D01*
X142425546Y-100024144D01*
X142418454Y-100029454D01*
X142413144Y-100036546D01*
X142413141Y-100036550D01*
X142337519Y-100137568D01*
X142337516Y-100137572D01*
X142332204Y-100144669D01*
X142329104Y-100152978D01*
X142329104Y-100152980D01*
X142284620Y-100272247D01*
X142284619Y-100272250D01*
X142281909Y-100279517D01*
X142281079Y-100287227D01*
X142281079Y-100287232D01*
X142275855Y-100335819D01*
X142275854Y-100335831D01*
X142275500Y-100339127D01*
X142275500Y-100342448D01*
X142275500Y-100342449D01*
X142275500Y-103631560D01*
X142275500Y-103631578D01*
X134076500Y-103631578D01*
X134076499Y-100339128D01*
X134070091Y-100279517D01*
X134019796Y-100144669D01*
X133933546Y-100029454D01*
X133818331Y-99943204D01*
X133706375Y-99901447D01*
X133690752Y-99895620D01*
X133690750Y-99895619D01*
X133683483Y-99892909D01*
X133675770Y-99892079D01*
X133675767Y-99892079D01*
X133627180Y-99886855D01*
X133627169Y-99886854D01*
X133623873Y-99886500D01*
X133620550Y-99886500D01*
X131531439Y-99886500D01*
X131531420Y-99886500D01*
X131528128Y-99886501D01*
X131524850Y-99886853D01*
X131524838Y-99886854D01*
X131476231Y-99892079D01*
X131476225Y-99892080D01*
X131468517Y-99892909D01*
X131461252Y-99895618D01*
X131461246Y-99895620D01*
X131341980Y-99940104D01*
X131341978Y-99940104D01*
X131333669Y-99943204D01*
X131326572Y-99948516D01*
X131326568Y-99948519D01*
X131225550Y-100024141D01*
X131225546Y-100024144D01*
X131218454Y-100029454D01*
X131213144Y-100036546D01*
X131213141Y-100036550D01*
X131137519Y-100137568D01*
X131137516Y-100137572D01*
X131132204Y-100144669D01*
X131129104Y-100152978D01*
X131129104Y-100152980D01*
X131084620Y-100272247D01*
X131084619Y-100272250D01*
X131081909Y-100279517D01*
X131081079Y-100287227D01*
X131081079Y-100287232D01*
X131075855Y-100335819D01*
X131075854Y-100335831D01*
X131075500Y-100339127D01*
X131075500Y-100342448D01*
X131075500Y-100342449D01*
X131075500Y-103631560D01*
X131075500Y-103631578D01*
X128575631Y-103631578D01*
X128534837Y-103488201D01*
X128444257Y-103306294D01*
X128423084Y-103278256D01*
X128325252Y-103148705D01*
X128325248Y-103148701D01*
X128321795Y-103144128D01*
X128317558Y-103140265D01*
X128317554Y-103140261D01*
X128175854Y-103011085D01*
X128175855Y-103011085D01*
X128171620Y-103007225D01*
X128166754Y-103004212D01*
X128166750Y-103004209D01*
X128003717Y-102903264D01*
X127998846Y-102900248D01*
X127993508Y-102898180D01*
X127993504Y-102898178D01*
X127814704Y-102828911D01*
X127814699Y-102828909D01*
X127809357Y-102826840D01*
X127803719Y-102825786D01*
X127615235Y-102790552D01*
X127615232Y-102790551D01*
X127609606Y-102789500D01*
X127406394Y-102789500D01*
X127400768Y-102790551D01*
X127400764Y-102790552D01*
X127212280Y-102825786D01*
X127212277Y-102825786D01*
X127206643Y-102826840D01*
X127201302Y-102828908D01*
X127201295Y-102828911D01*
X127022495Y-102898178D01*
X127022486Y-102898182D01*
X127017154Y-102900248D01*
X127012287Y-102903261D01*
X127012282Y-102903264D01*
X126849249Y-103004209D01*
X126849239Y-103004215D01*
X126844380Y-103007225D01*
X126840149Y-103011081D01*
X126840145Y-103011085D01*
X126698445Y-103140261D01*
X126698435Y-103140271D01*
X126694205Y-103144128D01*
X126690756Y-103148694D01*
X126690747Y-103148705D01*
X126575195Y-103301721D01*
X126575188Y-103301731D01*
X126571743Y-103306294D01*
X126569193Y-103311414D01*
X126569188Y-103311423D01*
X126483717Y-103483070D01*
X126483713Y-103483078D01*
X126481163Y-103488201D01*
X126479594Y-103493713D01*
X126479594Y-103493715D01*
X126427121Y-103678140D01*
X126425552Y-103683655D01*
X126425023Y-103689360D01*
X126425023Y-103689362D01*
X126411395Y-103836431D01*
X126406802Y-103886000D01*
X120989198Y-103886000D01*
X120970448Y-103683655D01*
X120914837Y-103488201D01*
X120824257Y-103306294D01*
X120803084Y-103278256D01*
X120705252Y-103148705D01*
X120705248Y-103148701D01*
X120701795Y-103144128D01*
X120697558Y-103140265D01*
X120697554Y-103140261D01*
X120555854Y-103011085D01*
X120555855Y-103011085D01*
X120551620Y-103007225D01*
X120546754Y-103004212D01*
X120546750Y-103004209D01*
X120383717Y-102903264D01*
X120378846Y-102900248D01*
X120373508Y-102898180D01*
X120373504Y-102898178D01*
X120194704Y-102828911D01*
X120194699Y-102828909D01*
X120189357Y-102826840D01*
X120183719Y-102825786D01*
X119995235Y-102790552D01*
X119995232Y-102790551D01*
X119989606Y-102789500D01*
X119786394Y-102789500D01*
X119780768Y-102790551D01*
X119780764Y-102790552D01*
X119592280Y-102825786D01*
X119592277Y-102825786D01*
X119586643Y-102826840D01*
X119581302Y-102828908D01*
X119581295Y-102828911D01*
X119402495Y-102898178D01*
X119402486Y-102898182D01*
X119397154Y-102900248D01*
X119392287Y-102903261D01*
X119392282Y-102903264D01*
X119229249Y-103004209D01*
X119229239Y-103004215D01*
X119224380Y-103007225D01*
X119220149Y-103011081D01*
X119220145Y-103011085D01*
X119078445Y-103140261D01*
X119078435Y-103140271D01*
X119074205Y-103144128D01*
X119070756Y-103148694D01*
X119070747Y-103148705D01*
X118955195Y-103301721D01*
X118955188Y-103301731D01*
X118951743Y-103306294D01*
X118949193Y-103311414D01*
X118949188Y-103311423D01*
X118863717Y-103483070D01*
X118863713Y-103483078D01*
X118861163Y-103488201D01*
X118859594Y-103493713D01*
X118859594Y-103493715D01*
X118807121Y-103678140D01*
X118805552Y-103683655D01*
X118805023Y-103689360D01*
X118805023Y-103689362D01*
X118791395Y-103836431D01*
X118786802Y-103886000D01*
X114148100Y-103886000D01*
X114148100Y-102374025D01*
X114148100Y-102362099D01*
X114148141Y-102362000D01*
X114147983Y-102361617D01*
X114147699Y-102361500D01*
X114147600Y-102361459D01*
X114147501Y-102361500D01*
X103936899Y-102361500D01*
X103936800Y-102361459D01*
X103936701Y-102361500D01*
X103936417Y-102361617D01*
X103936259Y-102362000D01*
X103936300Y-102362099D01*
X103936300Y-102374025D01*
X103936300Y-116868853D01*
X103919763Y-116930722D01*
X103874561Y-116976089D01*
X103812753Y-116992852D01*
X101991674Y-116999499D01*
X101991221Y-116999500D01*
X90141600Y-116999500D01*
X90079600Y-116982887D01*
X90034213Y-116937500D01*
X90017600Y-116875500D01*
X90017600Y-114650999D01*
X94993131Y-114650999D01*
X95013727Y-114886407D01*
X95015126Y-114891629D01*
X95015127Y-114891633D01*
X95073484Y-115109429D01*
X95073487Y-115109437D01*
X95074887Y-115114662D01*
X95077175Y-115119569D01*
X95077176Y-115119571D01*
X95172468Y-115323926D01*
X95172471Y-115323932D01*
X95174755Y-115328829D01*
X95177854Y-115333256D01*
X95177856Y-115333258D01*
X95307189Y-115517965D01*
X95307192Y-115517969D01*
X95310295Y-115522400D01*
X95477389Y-115689494D01*
X95481821Y-115692597D01*
X95481823Y-115692599D01*
X95504035Y-115708152D01*
X95670960Y-115825034D01*
X95885127Y-115924902D01*
X96113382Y-115986062D01*
X96348790Y-116006658D01*
X96584198Y-115986062D01*
X96812453Y-115924902D01*
X97026620Y-115825034D01*
X97220191Y-115689494D01*
X97387285Y-115522400D01*
X97517520Y-115336404D01*
X97561838Y-115297539D01*
X97619095Y-115283528D01*
X97676352Y-115297539D01*
X97720670Y-115336404D01*
X97847574Y-115517642D01*
X97854511Y-115525908D01*
X98013880Y-115685277D01*
X98022146Y-115692214D01*
X98206781Y-115821497D01*
X98216113Y-115826885D01*
X98420392Y-115922142D01*
X98430526Y-115925830D01*
X98625009Y-115977942D01*
X98636238Y-115978310D01*
X98638790Y-115967368D01*
X99138790Y-115967368D01*
X99141341Y-115978310D01*
X99152570Y-115977942D01*
X99347053Y-115925830D01*
X99357187Y-115922142D01*
X99561466Y-115826885D01*
X99570798Y-115821497D01*
X99755433Y-115692214D01*
X99763699Y-115685277D01*
X99923068Y-115525908D01*
X99930005Y-115517642D01*
X100059288Y-115333007D01*
X100064676Y-115323675D01*
X100159933Y-115119396D01*
X100163621Y-115109262D01*
X100215733Y-114914779D01*
X100216101Y-114903550D01*
X100205159Y-114900999D01*
X99155116Y-114900999D01*
X99142240Y-114904449D01*
X99138790Y-114917325D01*
X99138790Y-115967368D01*
X98638790Y-115967368D01*
X98638790Y-114524999D01*
X98655403Y-114462999D01*
X98700790Y-114417612D01*
X98762790Y-114400999D01*
X100205159Y-114400999D01*
X100216101Y-114398447D01*
X100215733Y-114387218D01*
X100163621Y-114192735D01*
X100159933Y-114182601D01*
X100064679Y-113978331D01*
X100059281Y-113968981D01*
X99930005Y-113784356D01*
X99923070Y-113776091D01*
X99763699Y-113616720D01*
X99755433Y-113609783D01*
X99574195Y-113482879D01*
X99535330Y-113438561D01*
X99521319Y-113381304D01*
X99535330Y-113324047D01*
X99574196Y-113279729D01*
X99755751Y-113152603D01*
X99755751Y-113152602D01*
X99760191Y-113149494D01*
X99927285Y-112982400D01*
X100062825Y-112788829D01*
X100162693Y-112574662D01*
X100223853Y-112346407D01*
X100244449Y-112110999D01*
X100223853Y-111875591D01*
X100162693Y-111647336D01*
X100062825Y-111433170D01*
X99927285Y-111239598D01*
X99760191Y-111072504D01*
X99755758Y-111069400D01*
X99755751Y-111069394D01*
X99574632Y-110942574D01*
X99535766Y-110898256D01*
X99521755Y-110840999D01*
X99535766Y-110783742D01*
X99574632Y-110739424D01*
X99755751Y-110612603D01*
X99755751Y-110612602D01*
X99760191Y-110609494D01*
X99927285Y-110442400D01*
X100062825Y-110248829D01*
X100162693Y-110034662D01*
X100223853Y-109806407D01*
X100244449Y-109570999D01*
X100223853Y-109335591D01*
X100162693Y-109107336D01*
X100062825Y-108893170D01*
X99927285Y-108699598D01*
X99760191Y-108532504D01*
X99755758Y-108529400D01*
X99755751Y-108529394D01*
X99574632Y-108402574D01*
X99535766Y-108358256D01*
X99521755Y-108300999D01*
X99535766Y-108243742D01*
X99574632Y-108199424D01*
X99755751Y-108072603D01*
X99755751Y-108072602D01*
X99760191Y-108069494D01*
X99927285Y-107902400D01*
X100062825Y-107708829D01*
X100162693Y-107494662D01*
X100223853Y-107266407D01*
X100244449Y-107030999D01*
X100223853Y-106795591D01*
X100162693Y-106567336D01*
X100062825Y-106353170D01*
X99927285Y-106159598D01*
X99760191Y-105992504D01*
X99755758Y-105989400D01*
X99755751Y-105989394D01*
X99574632Y-105862574D01*
X99535766Y-105818256D01*
X99521755Y-105760999D01*
X99535766Y-105703742D01*
X99574632Y-105659424D01*
X99755751Y-105532603D01*
X99755751Y-105532602D01*
X99760191Y-105529494D01*
X99927285Y-105362400D01*
X100062825Y-105168829D01*
X100162693Y-104954662D01*
X100223853Y-104726407D01*
X100244449Y-104490999D01*
X100223853Y-104255591D01*
X100164618Y-104034519D01*
X100164095Y-104032568D01*
X100164094Y-104032566D01*
X100162693Y-104027336D01*
X100062825Y-103813170D01*
X99927285Y-103619598D01*
X99760191Y-103452504D01*
X99755758Y-103449400D01*
X99755751Y-103449394D01*
X99574632Y-103322574D01*
X99535766Y-103278256D01*
X99521755Y-103220999D01*
X99535766Y-103163742D01*
X99574632Y-103119424D01*
X99755751Y-102992603D01*
X99755751Y-102992602D01*
X99760191Y-102989494D01*
X99927285Y-102822400D01*
X100062825Y-102628829D01*
X100162693Y-102414662D01*
X100223853Y-102186407D01*
X100244449Y-101950999D01*
X100223853Y-101715591D01*
X100162693Y-101487336D01*
X100096786Y-101346000D01*
X118786802Y-101346000D01*
X118787331Y-101351709D01*
X118800383Y-101492568D01*
X118805552Y-101548345D01*
X118861163Y-101743799D01*
X118863715Y-101748924D01*
X118863717Y-101748929D01*
X118949188Y-101920576D01*
X118949190Y-101920580D01*
X118951743Y-101925706D01*
X118955192Y-101930273D01*
X118955195Y-101930278D01*
X119070747Y-102083294D01*
X119070751Y-102083299D01*
X119074205Y-102087872D01*
X119078441Y-102091733D01*
X119078445Y-102091738D01*
X119176379Y-102181016D01*
X119224380Y-102224775D01*
X119397154Y-102331752D01*
X119586643Y-102405160D01*
X119786394Y-102442500D01*
X119983877Y-102442500D01*
X119989606Y-102442500D01*
X120189357Y-102405160D01*
X120378846Y-102331752D01*
X120551620Y-102224775D01*
X120701795Y-102087872D01*
X120824257Y-101925706D01*
X120914837Y-101743799D01*
X120970448Y-101548345D01*
X120989198Y-101346000D01*
X126406802Y-101346000D01*
X126407331Y-101351709D01*
X126420383Y-101492568D01*
X126425552Y-101548345D01*
X126481163Y-101743799D01*
X126483715Y-101748924D01*
X126483717Y-101748929D01*
X126569188Y-101920576D01*
X126569190Y-101920580D01*
X126571743Y-101925706D01*
X126575192Y-101930273D01*
X126575195Y-101930278D01*
X126690747Y-102083294D01*
X126690751Y-102083299D01*
X126694205Y-102087872D01*
X126698441Y-102091733D01*
X126698445Y-102091738D01*
X126796379Y-102181016D01*
X126844380Y-102224775D01*
X127017154Y-102331752D01*
X127206643Y-102405160D01*
X127406394Y-102442500D01*
X127603877Y-102442500D01*
X127609606Y-102442500D01*
X127809357Y-102405160D01*
X127998846Y-102331752D01*
X128171620Y-102224775D01*
X128321795Y-102087872D01*
X128444257Y-101925706D01*
X128534837Y-101743799D01*
X128590448Y-101548345D01*
X128609198Y-101346000D01*
X128590448Y-101143655D01*
X128534837Y-100948201D01*
X128444257Y-100766294D01*
X128423083Y-100738255D01*
X128325252Y-100608705D01*
X128325248Y-100608701D01*
X128321795Y-100604128D01*
X128317558Y-100600265D01*
X128317554Y-100600261D01*
X128175854Y-100471085D01*
X128175855Y-100471085D01*
X128171620Y-100467225D01*
X128166754Y-100464212D01*
X128166750Y-100464209D01*
X128003717Y-100363264D01*
X127998846Y-100360248D01*
X127993508Y-100358180D01*
X127993504Y-100358178D01*
X127814704Y-100288911D01*
X127814699Y-100288909D01*
X127809357Y-100286840D01*
X127803719Y-100285786D01*
X127615235Y-100250552D01*
X127615232Y-100250551D01*
X127609606Y-100249500D01*
X127406394Y-100249500D01*
X127400768Y-100250551D01*
X127400764Y-100250552D01*
X127212280Y-100285786D01*
X127212277Y-100285786D01*
X127206643Y-100286840D01*
X127201302Y-100288908D01*
X127201295Y-100288911D01*
X127022495Y-100358178D01*
X127022486Y-100358182D01*
X127017154Y-100360248D01*
X127012287Y-100363261D01*
X127012282Y-100363264D01*
X126849249Y-100464209D01*
X126849239Y-100464215D01*
X126844380Y-100467225D01*
X126840149Y-100471081D01*
X126840145Y-100471085D01*
X126698445Y-100600261D01*
X126698435Y-100600271D01*
X126694205Y-100604128D01*
X126690756Y-100608694D01*
X126690747Y-100608705D01*
X126575195Y-100761721D01*
X126575188Y-100761731D01*
X126571743Y-100766294D01*
X126569193Y-100771414D01*
X126569188Y-100771423D01*
X126483717Y-100943070D01*
X126483713Y-100943078D01*
X126481163Y-100948201D01*
X126479594Y-100953713D01*
X126479594Y-100953715D01*
X126427121Y-101138140D01*
X126425552Y-101143655D01*
X126425023Y-101149360D01*
X126425023Y-101149362D01*
X126410692Y-101304024D01*
X126406802Y-101346000D01*
X120989198Y-101346000D01*
X120970448Y-101143655D01*
X120914837Y-100948201D01*
X120824257Y-100766294D01*
X120803083Y-100738255D01*
X120705252Y-100608705D01*
X120705248Y-100608701D01*
X120701795Y-100604128D01*
X120697558Y-100600265D01*
X120697554Y-100600261D01*
X120555854Y-100471085D01*
X120555855Y-100471085D01*
X120551620Y-100467225D01*
X120546754Y-100464212D01*
X120546750Y-100464209D01*
X120383717Y-100363264D01*
X120378846Y-100360248D01*
X120373508Y-100358180D01*
X120373504Y-100358178D01*
X120194704Y-100288911D01*
X120194699Y-100288909D01*
X120189357Y-100286840D01*
X120183719Y-100285786D01*
X119995235Y-100250552D01*
X119995232Y-100250551D01*
X119989606Y-100249500D01*
X119786394Y-100249500D01*
X119780768Y-100250551D01*
X119780764Y-100250552D01*
X119592280Y-100285786D01*
X119592277Y-100285786D01*
X119586643Y-100286840D01*
X119581302Y-100288908D01*
X119581295Y-100288911D01*
X119402495Y-100358178D01*
X119402486Y-100358182D01*
X119397154Y-100360248D01*
X119392287Y-100363261D01*
X119392282Y-100363264D01*
X119229249Y-100464209D01*
X119229239Y-100464215D01*
X119224380Y-100467225D01*
X119220149Y-100471081D01*
X119220145Y-100471085D01*
X119078445Y-100600261D01*
X119078435Y-100600271D01*
X119074205Y-100604128D01*
X119070756Y-100608694D01*
X119070747Y-100608705D01*
X118955195Y-100761721D01*
X118955188Y-100761731D01*
X118951743Y-100766294D01*
X118949193Y-100771414D01*
X118949188Y-100771423D01*
X118863717Y-100943070D01*
X118863713Y-100943078D01*
X118861163Y-100948201D01*
X118859594Y-100953713D01*
X118859594Y-100953715D01*
X118807121Y-101138140D01*
X118805552Y-101143655D01*
X118805023Y-101149360D01*
X118805023Y-101149362D01*
X118790692Y-101304024D01*
X118786802Y-101346000D01*
X100096786Y-101346000D01*
X100062825Y-101273170D01*
X99927285Y-101079598D01*
X99760191Y-100912504D01*
X99755760Y-100909401D01*
X99755756Y-100909398D01*
X99574631Y-100782573D01*
X99535766Y-100738255D01*
X99521755Y-100680998D01*
X99535766Y-100623741D01*
X99574629Y-100579425D01*
X99760191Y-100449494D01*
X99927285Y-100282400D01*
X100062825Y-100088829D01*
X100162693Y-99874662D01*
X100223853Y-99646407D01*
X100244449Y-99410999D01*
X100223853Y-99175591D01*
X100162693Y-98947336D01*
X100096786Y-98806000D01*
X118786802Y-98806000D01*
X118787331Y-98811709D01*
X118800383Y-98952568D01*
X118805552Y-99008345D01*
X118861163Y-99203799D01*
X118863715Y-99208924D01*
X118863717Y-99208929D01*
X118949188Y-99380576D01*
X118949190Y-99380580D01*
X118951743Y-99385706D01*
X118955192Y-99390273D01*
X118955195Y-99390278D01*
X119070747Y-99543294D01*
X119070751Y-99543299D01*
X119074205Y-99547872D01*
X119078441Y-99551733D01*
X119078445Y-99551738D01*
X119176379Y-99641016D01*
X119224380Y-99684775D01*
X119397154Y-99791752D01*
X119586643Y-99865160D01*
X119786394Y-99902500D01*
X119983877Y-99902500D01*
X119989606Y-99902500D01*
X120189357Y-99865160D01*
X120378846Y-99791752D01*
X120551620Y-99684775D01*
X120701795Y-99547872D01*
X120824257Y-99385706D01*
X120914837Y-99203799D01*
X120970448Y-99008345D01*
X120989198Y-98806000D01*
X126406802Y-98806000D01*
X126407331Y-98811709D01*
X126420383Y-98952568D01*
X126425552Y-99008345D01*
X126481163Y-99203799D01*
X126483715Y-99208924D01*
X126483717Y-99208929D01*
X126569188Y-99380576D01*
X126569190Y-99380580D01*
X126571743Y-99385706D01*
X126575192Y-99390273D01*
X126575195Y-99390278D01*
X126690747Y-99543294D01*
X126690751Y-99543299D01*
X126694205Y-99547872D01*
X126698441Y-99551733D01*
X126698445Y-99551738D01*
X126796379Y-99641016D01*
X126844380Y-99684775D01*
X127017154Y-99791752D01*
X127206643Y-99865160D01*
X127406394Y-99902500D01*
X127603877Y-99902500D01*
X127609606Y-99902500D01*
X127809357Y-99865160D01*
X127998846Y-99791752D01*
X128171620Y-99684775D01*
X128321795Y-99547872D01*
X128444257Y-99385706D01*
X128534837Y-99203799D01*
X128590448Y-99008345D01*
X128609198Y-98806000D01*
X128590448Y-98603655D01*
X128534837Y-98408201D01*
X128444257Y-98226294D01*
X128423084Y-98198256D01*
X128325252Y-98068705D01*
X128325248Y-98068701D01*
X128321795Y-98064128D01*
X128317558Y-98060265D01*
X128317554Y-98060261D01*
X128175854Y-97931085D01*
X128175855Y-97931085D01*
X128171620Y-97927225D01*
X128166754Y-97924212D01*
X128166750Y-97924209D01*
X128003717Y-97823264D01*
X127998846Y-97820248D01*
X127993508Y-97818180D01*
X127993504Y-97818178D01*
X127814704Y-97748911D01*
X127814699Y-97748909D01*
X127809357Y-97746840D01*
X127803719Y-97745786D01*
X127615235Y-97710552D01*
X127615232Y-97710551D01*
X127609606Y-97709500D01*
X127406394Y-97709500D01*
X127400768Y-97710551D01*
X127400764Y-97710552D01*
X127212280Y-97745786D01*
X127212277Y-97745786D01*
X127206643Y-97746840D01*
X127201302Y-97748908D01*
X127201295Y-97748911D01*
X127022495Y-97818178D01*
X127022486Y-97818182D01*
X127017154Y-97820248D01*
X127012287Y-97823261D01*
X127012282Y-97823264D01*
X126849249Y-97924209D01*
X126849239Y-97924215D01*
X126844380Y-97927225D01*
X126840149Y-97931081D01*
X126840145Y-97931085D01*
X126698445Y-98060261D01*
X126698435Y-98060271D01*
X126694205Y-98064128D01*
X126690756Y-98068694D01*
X126690747Y-98068705D01*
X126575195Y-98221721D01*
X126575188Y-98221731D01*
X126571743Y-98226294D01*
X126569193Y-98231414D01*
X126569188Y-98231423D01*
X126483717Y-98403070D01*
X126483713Y-98403078D01*
X126481163Y-98408201D01*
X126479594Y-98413713D01*
X126479594Y-98413715D01*
X126427121Y-98598140D01*
X126425552Y-98603655D01*
X126425023Y-98609360D01*
X126425023Y-98609362D01*
X126410692Y-98764024D01*
X126406802Y-98806000D01*
X120989198Y-98806000D01*
X120970448Y-98603655D01*
X120914837Y-98408201D01*
X120824257Y-98226294D01*
X120803084Y-98198256D01*
X120705252Y-98068705D01*
X120705248Y-98068701D01*
X120701795Y-98064128D01*
X120697558Y-98060265D01*
X120697554Y-98060261D01*
X120555854Y-97931085D01*
X120555855Y-97931085D01*
X120551620Y-97927225D01*
X120546754Y-97924212D01*
X120546750Y-97924209D01*
X120383717Y-97823264D01*
X120378846Y-97820248D01*
X120373508Y-97818180D01*
X120373504Y-97818178D01*
X120194704Y-97748911D01*
X120194699Y-97748909D01*
X120189357Y-97746840D01*
X120183719Y-97745786D01*
X119995235Y-97710552D01*
X119995232Y-97710551D01*
X119989606Y-97709500D01*
X119786394Y-97709500D01*
X119780768Y-97710551D01*
X119780764Y-97710552D01*
X119592280Y-97745786D01*
X119592277Y-97745786D01*
X119586643Y-97746840D01*
X119581302Y-97748908D01*
X119581295Y-97748911D01*
X119402495Y-97818178D01*
X119402486Y-97818182D01*
X119397154Y-97820248D01*
X119392287Y-97823261D01*
X119392282Y-97823264D01*
X119229249Y-97924209D01*
X119229239Y-97924215D01*
X119224380Y-97927225D01*
X119220149Y-97931081D01*
X119220145Y-97931085D01*
X119078445Y-98060261D01*
X119078435Y-98060271D01*
X119074205Y-98064128D01*
X119070756Y-98068694D01*
X119070747Y-98068705D01*
X118955195Y-98221721D01*
X118955188Y-98221731D01*
X118951743Y-98226294D01*
X118949193Y-98231414D01*
X118949188Y-98231423D01*
X118863717Y-98403070D01*
X118863713Y-98403078D01*
X118861163Y-98408201D01*
X118859594Y-98413713D01*
X118859594Y-98413715D01*
X118807121Y-98598140D01*
X118805552Y-98603655D01*
X118805023Y-98609360D01*
X118805023Y-98609362D01*
X118790692Y-98764024D01*
X118786802Y-98806000D01*
X100096786Y-98806000D01*
X100062825Y-98733170D01*
X99927285Y-98539598D01*
X99760191Y-98372504D01*
X99755758Y-98369400D01*
X99755751Y-98369394D01*
X99574632Y-98242574D01*
X99535766Y-98198256D01*
X99521755Y-98140999D01*
X99535766Y-98083742D01*
X99574632Y-98039424D01*
X99755751Y-97912603D01*
X99755751Y-97912602D01*
X99760191Y-97909494D01*
X99927285Y-97742400D01*
X100062825Y-97548829D01*
X100162693Y-97334662D01*
X100223853Y-97106407D01*
X100244449Y-96870999D01*
X100223853Y-96635591D01*
X100162693Y-96407336D01*
X100096786Y-96266000D01*
X118786802Y-96266000D01*
X118787331Y-96271709D01*
X118800383Y-96412568D01*
X118805552Y-96468345D01*
X118861163Y-96663799D01*
X118863715Y-96668924D01*
X118863717Y-96668929D01*
X118949188Y-96840576D01*
X118949190Y-96840580D01*
X118951743Y-96845706D01*
X118955192Y-96850273D01*
X118955195Y-96850278D01*
X119070747Y-97003294D01*
X119070751Y-97003299D01*
X119074205Y-97007872D01*
X119078441Y-97011733D01*
X119078445Y-97011738D01*
X119176379Y-97101016D01*
X119224380Y-97144775D01*
X119397154Y-97251752D01*
X119586643Y-97325160D01*
X119786394Y-97362500D01*
X119983877Y-97362500D01*
X119989606Y-97362500D01*
X120189357Y-97325160D01*
X120378846Y-97251752D01*
X120551620Y-97144775D01*
X120701795Y-97007872D01*
X120824257Y-96845706D01*
X120914837Y-96663799D01*
X120970448Y-96468345D01*
X120989198Y-96266000D01*
X126406802Y-96266000D01*
X126407331Y-96271709D01*
X126420383Y-96412568D01*
X126425552Y-96468345D01*
X126481163Y-96663799D01*
X126483715Y-96668924D01*
X126483717Y-96668929D01*
X126569188Y-96840576D01*
X126569190Y-96840580D01*
X126571743Y-96845706D01*
X126575192Y-96850273D01*
X126575195Y-96850278D01*
X126690747Y-97003294D01*
X126690751Y-97003299D01*
X126694205Y-97007872D01*
X126698441Y-97011733D01*
X126698445Y-97011738D01*
X126796379Y-97101016D01*
X126844380Y-97144775D01*
X127017154Y-97251752D01*
X127206643Y-97325160D01*
X127406394Y-97362500D01*
X127603877Y-97362500D01*
X127609606Y-97362500D01*
X127809357Y-97325160D01*
X127998846Y-97251752D01*
X128171620Y-97144775D01*
X128321795Y-97007872D01*
X128444257Y-96845706D01*
X128534837Y-96663799D01*
X128590448Y-96468345D01*
X128609198Y-96266000D01*
X128590448Y-96063655D01*
X128534837Y-95868201D01*
X128444257Y-95686294D01*
X128423084Y-95658256D01*
X128325252Y-95528705D01*
X128325248Y-95528701D01*
X128321795Y-95524128D01*
X128317558Y-95520265D01*
X128317554Y-95520261D01*
X128175854Y-95391085D01*
X128175855Y-95391085D01*
X128171620Y-95387225D01*
X128166754Y-95384212D01*
X128166750Y-95384209D01*
X128003717Y-95283264D01*
X127998846Y-95280248D01*
X127993508Y-95278180D01*
X127993504Y-95278178D01*
X127814704Y-95208911D01*
X127814699Y-95208909D01*
X127809357Y-95206840D01*
X127799391Y-95204977D01*
X127615235Y-95170552D01*
X127615232Y-95170551D01*
X127609606Y-95169500D01*
X127406394Y-95169500D01*
X127400768Y-95170551D01*
X127400764Y-95170552D01*
X127212280Y-95205786D01*
X127212277Y-95205786D01*
X127206643Y-95206840D01*
X127201302Y-95208908D01*
X127201295Y-95208911D01*
X127022495Y-95278178D01*
X127022486Y-95278182D01*
X127017154Y-95280248D01*
X127012287Y-95283261D01*
X127012282Y-95283264D01*
X126849249Y-95384209D01*
X126849239Y-95384215D01*
X126844380Y-95387225D01*
X126840149Y-95391081D01*
X126840145Y-95391085D01*
X126698445Y-95520261D01*
X126698435Y-95520271D01*
X126694205Y-95524128D01*
X126690756Y-95528694D01*
X126690747Y-95528705D01*
X126575195Y-95681721D01*
X126575188Y-95681731D01*
X126571743Y-95686294D01*
X126569193Y-95691414D01*
X126569188Y-95691423D01*
X126483717Y-95863070D01*
X126483713Y-95863078D01*
X126481163Y-95868201D01*
X126479594Y-95873713D01*
X126479594Y-95873715D01*
X126427121Y-96058140D01*
X126425552Y-96063655D01*
X126425023Y-96069360D01*
X126425023Y-96069362D01*
X126410897Y-96221805D01*
X126406802Y-96266000D01*
X120989198Y-96266000D01*
X120970448Y-96063655D01*
X120914837Y-95868201D01*
X120824257Y-95686294D01*
X120803084Y-95658256D01*
X120705252Y-95528705D01*
X120705248Y-95528701D01*
X120701795Y-95524128D01*
X120697558Y-95520265D01*
X120697554Y-95520261D01*
X120555854Y-95391085D01*
X120555855Y-95391085D01*
X120551620Y-95387225D01*
X120546754Y-95384212D01*
X120546750Y-95384209D01*
X120383717Y-95283264D01*
X120378846Y-95280248D01*
X120373508Y-95278180D01*
X120373504Y-95278178D01*
X120194704Y-95208911D01*
X120194699Y-95208909D01*
X120189357Y-95206840D01*
X120179391Y-95204977D01*
X119995235Y-95170552D01*
X119995232Y-95170551D01*
X119989606Y-95169500D01*
X119786394Y-95169500D01*
X119780768Y-95170551D01*
X119780764Y-95170552D01*
X119592280Y-95205786D01*
X119592277Y-95205786D01*
X119586643Y-95206840D01*
X119581302Y-95208908D01*
X119581295Y-95208911D01*
X119402495Y-95278178D01*
X119402486Y-95278182D01*
X119397154Y-95280248D01*
X119392287Y-95283261D01*
X119392282Y-95283264D01*
X119229249Y-95384209D01*
X119229239Y-95384215D01*
X119224380Y-95387225D01*
X119220149Y-95391081D01*
X119220145Y-95391085D01*
X119078445Y-95520261D01*
X119078435Y-95520271D01*
X119074205Y-95524128D01*
X119070756Y-95528694D01*
X119070747Y-95528705D01*
X118955195Y-95681721D01*
X118955188Y-95681731D01*
X118951743Y-95686294D01*
X118949193Y-95691414D01*
X118949188Y-95691423D01*
X118863717Y-95863070D01*
X118863713Y-95863078D01*
X118861163Y-95868201D01*
X118859594Y-95873713D01*
X118859594Y-95873715D01*
X118807121Y-96058140D01*
X118805552Y-96063655D01*
X118805023Y-96069360D01*
X118805023Y-96069362D01*
X118790897Y-96221805D01*
X118786802Y-96266000D01*
X100096786Y-96266000D01*
X100062825Y-96193170D01*
X99927285Y-95999598D01*
X99760191Y-95832504D01*
X99755758Y-95829400D01*
X99755751Y-95829394D01*
X99574632Y-95702574D01*
X99535766Y-95658256D01*
X99521755Y-95600999D01*
X99535766Y-95543742D01*
X99574632Y-95499424D01*
X99755751Y-95372603D01*
X99755751Y-95372602D01*
X99760191Y-95369494D01*
X99927285Y-95202400D01*
X100062825Y-95008829D01*
X100073004Y-94987000D01*
X134420723Y-94987000D01*
X134421195Y-94992395D01*
X134439320Y-95199578D01*
X134439321Y-95199585D01*
X134439793Y-95204977D01*
X134441192Y-95210199D01*
X134441194Y-95210209D01*
X134495024Y-95411102D01*
X134496425Y-95416330D01*
X134498709Y-95421229D01*
X134498712Y-95421236D01*
X134586611Y-95609736D01*
X134586614Y-95609742D01*
X134588898Y-95614639D01*
X134591997Y-95619066D01*
X134591999Y-95619068D01*
X134711296Y-95789442D01*
X134711299Y-95789446D01*
X134714402Y-95793877D01*
X134869123Y-95948598D01*
X134873555Y-95951701D01*
X134873557Y-95951703D01*
X134964170Y-96015151D01*
X135048361Y-96074102D01*
X135246670Y-96166575D01*
X135374067Y-96200711D01*
X135452790Y-96221805D01*
X135452791Y-96221805D01*
X135458023Y-96223207D01*
X135676000Y-96242277D01*
X135893977Y-96223207D01*
X136105330Y-96166575D01*
X136303639Y-96074102D01*
X136482877Y-95948598D01*
X136637598Y-95793877D01*
X136763102Y-95614639D01*
X136855575Y-95416330D01*
X136912207Y-95204977D01*
X136931277Y-94987000D01*
X139420723Y-94987000D01*
X139421195Y-94992395D01*
X139439320Y-95199578D01*
X139439321Y-95199585D01*
X139439793Y-95204977D01*
X139441192Y-95210199D01*
X139441194Y-95210209D01*
X139495024Y-95411102D01*
X139496425Y-95416330D01*
X139498709Y-95421229D01*
X139498712Y-95421236D01*
X139586611Y-95609736D01*
X139586614Y-95609742D01*
X139588898Y-95614639D01*
X139591997Y-95619066D01*
X139591999Y-95619068D01*
X139711296Y-95789442D01*
X139711299Y-95789446D01*
X139714402Y-95793877D01*
X139869123Y-95948598D01*
X139873555Y-95951701D01*
X139873557Y-95951703D01*
X139964170Y-96015151D01*
X140048361Y-96074102D01*
X140246670Y-96166575D01*
X140374067Y-96200711D01*
X140452790Y-96221805D01*
X140452791Y-96221805D01*
X140458023Y-96223207D01*
X140676000Y-96242277D01*
X140893977Y-96223207D01*
X141105330Y-96166575D01*
X141303639Y-96074102D01*
X141482877Y-95948598D01*
X141637598Y-95793877D01*
X141763102Y-95614639D01*
X141855575Y-95416330D01*
X141912207Y-95204977D01*
X141931277Y-94987000D01*
X141912207Y-94769023D01*
X141855575Y-94557670D01*
X141763102Y-94359362D01*
X141637598Y-94180123D01*
X141482877Y-94025402D01*
X141478446Y-94022299D01*
X141478442Y-94022296D01*
X141308068Y-93902999D01*
X141308066Y-93902997D01*
X141303639Y-93899898D01*
X141298742Y-93897614D01*
X141298736Y-93897611D01*
X141110236Y-93809712D01*
X141110229Y-93809709D01*
X141105330Y-93807425D01*
X141100103Y-93806024D01*
X141100102Y-93806024D01*
X140899209Y-93752194D01*
X140899199Y-93752192D01*
X140893977Y-93750793D01*
X140888585Y-93750321D01*
X140888578Y-93750320D01*
X140681395Y-93732195D01*
X140676000Y-93731723D01*
X140670605Y-93732195D01*
X140463421Y-93750320D01*
X140463412Y-93750321D01*
X140458023Y-93750793D01*
X140452802Y-93752191D01*
X140452790Y-93752194D01*
X140251897Y-93806024D01*
X140251892Y-93806025D01*
X140246670Y-93807425D01*
X140241774Y-93809707D01*
X140241763Y-93809712D01*
X140053272Y-93897608D01*
X140053268Y-93897610D01*
X140048362Y-93899898D01*
X140043929Y-93903001D01*
X140043922Y-93903006D01*
X139873558Y-94022296D01*
X139873553Y-94022299D01*
X139869123Y-94025402D01*
X139865299Y-94029225D01*
X139865293Y-94029231D01*
X139718231Y-94176293D01*
X139718225Y-94176299D01*
X139714402Y-94180123D01*
X139711299Y-94184553D01*
X139711296Y-94184558D01*
X139592006Y-94354922D01*
X139592001Y-94354929D01*
X139588898Y-94359362D01*
X139586610Y-94364268D01*
X139586608Y-94364272D01*
X139498712Y-94552763D01*
X139498707Y-94552774D01*
X139496425Y-94557670D01*
X139495025Y-94562892D01*
X139495024Y-94562897D01*
X139441194Y-94763790D01*
X139441191Y-94763802D01*
X139439793Y-94769023D01*
X139439321Y-94774412D01*
X139439320Y-94774421D01*
X139435114Y-94822500D01*
X139420723Y-94987000D01*
X136931277Y-94987000D01*
X136912207Y-94769023D01*
X136855575Y-94557670D01*
X136763102Y-94359362D01*
X136637598Y-94180123D01*
X136482877Y-94025402D01*
X136478446Y-94022299D01*
X136478442Y-94022296D01*
X136308068Y-93902999D01*
X136308066Y-93902997D01*
X136303639Y-93899898D01*
X136298742Y-93897614D01*
X136298736Y-93897611D01*
X136110236Y-93809712D01*
X136110229Y-93809709D01*
X136105330Y-93807425D01*
X136100103Y-93806024D01*
X136100102Y-93806024D01*
X135899209Y-93752194D01*
X135899199Y-93752192D01*
X135893977Y-93750793D01*
X135888585Y-93750321D01*
X135888578Y-93750320D01*
X135681395Y-93732195D01*
X135676000Y-93731723D01*
X135670605Y-93732195D01*
X135463421Y-93750320D01*
X135463412Y-93750321D01*
X135458023Y-93750793D01*
X135452802Y-93752191D01*
X135452790Y-93752194D01*
X135251897Y-93806024D01*
X135251892Y-93806025D01*
X135246670Y-93807425D01*
X135241774Y-93809707D01*
X135241763Y-93809712D01*
X135053272Y-93897608D01*
X135053268Y-93897610D01*
X135048362Y-93899898D01*
X135043929Y-93903001D01*
X135043922Y-93903006D01*
X134873558Y-94022296D01*
X134873553Y-94022299D01*
X134869123Y-94025402D01*
X134865299Y-94029225D01*
X134865293Y-94029231D01*
X134718231Y-94176293D01*
X134718225Y-94176299D01*
X134714402Y-94180123D01*
X134711299Y-94184553D01*
X134711296Y-94184558D01*
X134592006Y-94354922D01*
X134592001Y-94354929D01*
X134588898Y-94359362D01*
X134586610Y-94364268D01*
X134586608Y-94364272D01*
X134498712Y-94552763D01*
X134498707Y-94552774D01*
X134496425Y-94557670D01*
X134495025Y-94562892D01*
X134495024Y-94562897D01*
X134441194Y-94763790D01*
X134441191Y-94763802D01*
X134439793Y-94769023D01*
X134439321Y-94774412D01*
X134439320Y-94774421D01*
X134435114Y-94822500D01*
X134420723Y-94987000D01*
X100073004Y-94987000D01*
X100162693Y-94794662D01*
X100223853Y-94566407D01*
X100244449Y-94330999D01*
X100223853Y-94095591D01*
X100162693Y-93867336D01*
X100096786Y-93726000D01*
X118786802Y-93726000D01*
X118787331Y-93731709D01*
X118800383Y-93872568D01*
X118805552Y-93928345D01*
X118861163Y-94123799D01*
X118863715Y-94128924D01*
X118863717Y-94128929D01*
X118949188Y-94300576D01*
X118949190Y-94300580D01*
X118951743Y-94305706D01*
X118955192Y-94310273D01*
X118955195Y-94310278D01*
X119070747Y-94463294D01*
X119070751Y-94463299D01*
X119074205Y-94467872D01*
X119078441Y-94471733D01*
X119078445Y-94471738D01*
X119167326Y-94552763D01*
X119224380Y-94604775D01*
X119397154Y-94711752D01*
X119586643Y-94785160D01*
X119786394Y-94822500D01*
X119983877Y-94822500D01*
X119989606Y-94822500D01*
X120189357Y-94785160D01*
X120378846Y-94711752D01*
X120551620Y-94604775D01*
X120701795Y-94467872D01*
X120824257Y-94305706D01*
X120914837Y-94123799D01*
X120970448Y-93928345D01*
X120989198Y-93726000D01*
X126406802Y-93726000D01*
X126407331Y-93731709D01*
X126420383Y-93872568D01*
X126425552Y-93928345D01*
X126481163Y-94123799D01*
X126483715Y-94128924D01*
X126483717Y-94128929D01*
X126569188Y-94300576D01*
X126569190Y-94300580D01*
X126571743Y-94305706D01*
X126575192Y-94310273D01*
X126575195Y-94310278D01*
X126690747Y-94463294D01*
X126690751Y-94463299D01*
X126694205Y-94467872D01*
X126698441Y-94471733D01*
X126698445Y-94471738D01*
X126787326Y-94552763D01*
X126844380Y-94604775D01*
X127017154Y-94711752D01*
X127206643Y-94785160D01*
X127406394Y-94822500D01*
X127603877Y-94822500D01*
X127609606Y-94822500D01*
X127809357Y-94785160D01*
X127998846Y-94711752D01*
X128171620Y-94604775D01*
X128321795Y-94467872D01*
X128444257Y-94305706D01*
X128534837Y-94123799D01*
X128590448Y-93928345D01*
X128609198Y-93726000D01*
X128590448Y-93523655D01*
X128534837Y-93328201D01*
X128444257Y-93146294D01*
X128423084Y-93118256D01*
X128325252Y-92988705D01*
X128325248Y-92988701D01*
X128321795Y-92984128D01*
X128317558Y-92980265D01*
X128317554Y-92980261D01*
X128175854Y-92851085D01*
X128175855Y-92851085D01*
X128171620Y-92847225D01*
X128166754Y-92844212D01*
X128166750Y-92844209D01*
X128003717Y-92743264D01*
X127998846Y-92740248D01*
X127993508Y-92738180D01*
X127993504Y-92738178D01*
X127814704Y-92668911D01*
X127814699Y-92668909D01*
X127809357Y-92666840D01*
X127803719Y-92665786D01*
X127615235Y-92630552D01*
X127615232Y-92630551D01*
X127609606Y-92629500D01*
X127406394Y-92629500D01*
X127400768Y-92630551D01*
X127400764Y-92630552D01*
X127212280Y-92665786D01*
X127212277Y-92665786D01*
X127206643Y-92666840D01*
X127201302Y-92668908D01*
X127201295Y-92668911D01*
X127022495Y-92738178D01*
X127022486Y-92738182D01*
X127017154Y-92740248D01*
X127012287Y-92743261D01*
X127012282Y-92743264D01*
X126849249Y-92844209D01*
X126849239Y-92844215D01*
X126844380Y-92847225D01*
X126840149Y-92851081D01*
X126840145Y-92851085D01*
X126698445Y-92980261D01*
X126698435Y-92980271D01*
X126694205Y-92984128D01*
X126690756Y-92988694D01*
X126690747Y-92988705D01*
X126575195Y-93141721D01*
X126575188Y-93141731D01*
X126571743Y-93146294D01*
X126569193Y-93151414D01*
X126569188Y-93151423D01*
X126483717Y-93323070D01*
X126483713Y-93323078D01*
X126481163Y-93328201D01*
X126479594Y-93333713D01*
X126479594Y-93333715D01*
X126427121Y-93518140D01*
X126425552Y-93523655D01*
X126425023Y-93529360D01*
X126425023Y-93529362D01*
X126410692Y-93684024D01*
X126406802Y-93726000D01*
X120989198Y-93726000D01*
X120970448Y-93523655D01*
X120914837Y-93328201D01*
X120824257Y-93146294D01*
X120803084Y-93118256D01*
X120705252Y-92988705D01*
X120705248Y-92988701D01*
X120701795Y-92984128D01*
X120697558Y-92980265D01*
X120697554Y-92980261D01*
X120555854Y-92851085D01*
X120555855Y-92851085D01*
X120551620Y-92847225D01*
X120546754Y-92844212D01*
X120546750Y-92844209D01*
X120383717Y-92743264D01*
X120378846Y-92740248D01*
X120373508Y-92738180D01*
X120373504Y-92738178D01*
X120194704Y-92668911D01*
X120194699Y-92668909D01*
X120189357Y-92666840D01*
X120183719Y-92665786D01*
X119995235Y-92630552D01*
X119995232Y-92630551D01*
X119989606Y-92629500D01*
X119786394Y-92629500D01*
X119780768Y-92630551D01*
X119780764Y-92630552D01*
X119592280Y-92665786D01*
X119592277Y-92665786D01*
X119586643Y-92666840D01*
X119581302Y-92668908D01*
X119581295Y-92668911D01*
X119402495Y-92738178D01*
X119402486Y-92738182D01*
X119397154Y-92740248D01*
X119392287Y-92743261D01*
X119392282Y-92743264D01*
X119229249Y-92844209D01*
X119229239Y-92844215D01*
X119224380Y-92847225D01*
X119220149Y-92851081D01*
X119220145Y-92851085D01*
X119078445Y-92980261D01*
X119078435Y-92980271D01*
X119074205Y-92984128D01*
X119070756Y-92988694D01*
X119070747Y-92988705D01*
X118955195Y-93141721D01*
X118955188Y-93141731D01*
X118951743Y-93146294D01*
X118949193Y-93151414D01*
X118949188Y-93151423D01*
X118863717Y-93323070D01*
X118863713Y-93323078D01*
X118861163Y-93328201D01*
X118859594Y-93333713D01*
X118859594Y-93333715D01*
X118807121Y-93518140D01*
X118805552Y-93523655D01*
X118805023Y-93529360D01*
X118805023Y-93529362D01*
X118790692Y-93684024D01*
X118786802Y-93726000D01*
X100096786Y-93726000D01*
X100062825Y-93653170D01*
X99927285Y-93459598D01*
X99760191Y-93292504D01*
X99755758Y-93289400D01*
X99755751Y-93289394D01*
X99574632Y-93162574D01*
X99535766Y-93118256D01*
X99521755Y-93060999D01*
X99535766Y-93003742D01*
X99574632Y-92959424D01*
X99755751Y-92832603D01*
X99755751Y-92832602D01*
X99760191Y-92829494D01*
X99927285Y-92662400D01*
X100062825Y-92468829D01*
X100162693Y-92254662D01*
X100223853Y-92026407D01*
X100244449Y-91790999D01*
X100223853Y-91555591D01*
X100162693Y-91327336D01*
X100062825Y-91113170D01*
X99927285Y-90919598D01*
X99760191Y-90752504D01*
X99755758Y-90749400D01*
X99755751Y-90749394D01*
X99574632Y-90622574D01*
X99535766Y-90578256D01*
X99521755Y-90520999D01*
X99535766Y-90463742D01*
X99574632Y-90419424D01*
X99755751Y-90292603D01*
X99755751Y-90292602D01*
X99760191Y-90289494D01*
X99927285Y-90122400D01*
X100062825Y-89928829D01*
X100162693Y-89714662D01*
X100223853Y-89486407D01*
X100244046Y-89255600D01*
X108387071Y-89255600D01*
X108387337Y-89259658D01*
X108403218Y-89501960D01*
X108406366Y-89549980D01*
X108407157Y-89553961D01*
X108407158Y-89553962D01*
X108463126Y-89835338D01*
X108463128Y-89835345D01*
X108463919Y-89839322D01*
X108465219Y-89843153D01*
X108465223Y-89843166D01*
X108549201Y-90090552D01*
X108558748Y-90118677D01*
X108560541Y-90122313D01*
X108560544Y-90122320D01*
X108687432Y-90379625D01*
X108687438Y-90379636D01*
X108689228Y-90383265D01*
X108691479Y-90386634D01*
X108691482Y-90386639D01*
X108743001Y-90463742D01*
X108853127Y-90628557D01*
X109047642Y-90850358D01*
X109269443Y-91044873D01*
X109272825Y-91047132D01*
X109272824Y-91047132D01*
X109441109Y-91159577D01*
X109514735Y-91208772D01*
X109518368Y-91210563D01*
X109518374Y-91210567D01*
X109738187Y-91318966D01*
X109779323Y-91339252D01*
X109940189Y-91393859D01*
X110054833Y-91432776D01*
X110054835Y-91432776D01*
X110058678Y-91434081D01*
X110348020Y-91491634D01*
X110642400Y-91510929D01*
X110936780Y-91491634D01*
X111226122Y-91434081D01*
X111505477Y-91339252D01*
X111770065Y-91208772D01*
X111804146Y-91186000D01*
X118786802Y-91186000D01*
X118787331Y-91191709D01*
X118800383Y-91332568D01*
X118805552Y-91388345D01*
X118861163Y-91583799D01*
X118863715Y-91588924D01*
X118863717Y-91588929D01*
X118949188Y-91760576D01*
X118949190Y-91760580D01*
X118951743Y-91765706D01*
X118955192Y-91770273D01*
X118955195Y-91770278D01*
X119070747Y-91923294D01*
X119070751Y-91923299D01*
X119074205Y-91927872D01*
X119078441Y-91931733D01*
X119078445Y-91931738D01*
X119176379Y-92021016D01*
X119224380Y-92064775D01*
X119397154Y-92171752D01*
X119586643Y-92245160D01*
X119786394Y-92282500D01*
X119983877Y-92282500D01*
X119989606Y-92282500D01*
X120189357Y-92245160D01*
X120378846Y-92171752D01*
X120551620Y-92064775D01*
X120701795Y-91927872D01*
X120824257Y-91765706D01*
X120914837Y-91583799D01*
X120970448Y-91388345D01*
X120989198Y-91186000D01*
X126406802Y-91186000D01*
X126407331Y-91191709D01*
X126420383Y-91332568D01*
X126425552Y-91388345D01*
X126481163Y-91583799D01*
X126483715Y-91588924D01*
X126483717Y-91588929D01*
X126569188Y-91760576D01*
X126569190Y-91760580D01*
X126571743Y-91765706D01*
X126575192Y-91770273D01*
X126575195Y-91770278D01*
X126690747Y-91923294D01*
X126690751Y-91923299D01*
X126694205Y-91927872D01*
X126698441Y-91931733D01*
X126698445Y-91931738D01*
X126796379Y-92021016D01*
X126844380Y-92064775D01*
X127017154Y-92171752D01*
X127206643Y-92245160D01*
X127406394Y-92282500D01*
X127603877Y-92282500D01*
X127609606Y-92282500D01*
X127809357Y-92245160D01*
X127998846Y-92171752D01*
X128171620Y-92064775D01*
X128321795Y-91927872D01*
X128444257Y-91765706D01*
X128534837Y-91583799D01*
X128590448Y-91388345D01*
X128609198Y-91186000D01*
X128590448Y-90983655D01*
X128534837Y-90788201D01*
X128444257Y-90606294D01*
X128423084Y-90578256D01*
X128325252Y-90448705D01*
X128325248Y-90448701D01*
X128321795Y-90444128D01*
X128317558Y-90440265D01*
X128317554Y-90440261D01*
X128175854Y-90311085D01*
X128175855Y-90311085D01*
X128171620Y-90307225D01*
X128166754Y-90304212D01*
X128166750Y-90304209D01*
X128003717Y-90203264D01*
X127998846Y-90200248D01*
X127993508Y-90198180D01*
X127993504Y-90198178D01*
X127814704Y-90128911D01*
X127814699Y-90128909D01*
X127809357Y-90126840D01*
X127803719Y-90125786D01*
X127615235Y-90090552D01*
X127615232Y-90090551D01*
X127609606Y-90089500D01*
X127406394Y-90089500D01*
X127400768Y-90090551D01*
X127400764Y-90090552D01*
X127212280Y-90125786D01*
X127212277Y-90125786D01*
X127206643Y-90126840D01*
X127201302Y-90128908D01*
X127201295Y-90128911D01*
X127022495Y-90198178D01*
X127022486Y-90198182D01*
X127017154Y-90200248D01*
X127012287Y-90203261D01*
X127012282Y-90203264D01*
X126849249Y-90304209D01*
X126849239Y-90304215D01*
X126844380Y-90307225D01*
X126840149Y-90311081D01*
X126840145Y-90311085D01*
X126698445Y-90440261D01*
X126698435Y-90440271D01*
X126694205Y-90444128D01*
X126690756Y-90448694D01*
X126690747Y-90448705D01*
X126575195Y-90601721D01*
X126575188Y-90601731D01*
X126571743Y-90606294D01*
X126569193Y-90611414D01*
X126569188Y-90611423D01*
X126483717Y-90783070D01*
X126483713Y-90783078D01*
X126481163Y-90788201D01*
X126479594Y-90793713D01*
X126479594Y-90793715D01*
X126427121Y-90978140D01*
X126425552Y-90983655D01*
X126425023Y-90989360D01*
X126425023Y-90989362D01*
X126410692Y-91144024D01*
X126406802Y-91186000D01*
X120989198Y-91186000D01*
X120970448Y-90983655D01*
X120914837Y-90788201D01*
X120824257Y-90606294D01*
X120803084Y-90578256D01*
X120705252Y-90448705D01*
X120705248Y-90448701D01*
X120701795Y-90444128D01*
X120697558Y-90440265D01*
X120697554Y-90440261D01*
X120555854Y-90311085D01*
X120555855Y-90311085D01*
X120551620Y-90307225D01*
X120546754Y-90304212D01*
X120546750Y-90304209D01*
X120383717Y-90203264D01*
X120378846Y-90200248D01*
X120373508Y-90198180D01*
X120373504Y-90198178D01*
X120194704Y-90128911D01*
X120194699Y-90128909D01*
X120189357Y-90126840D01*
X120183719Y-90125786D01*
X119995235Y-90090552D01*
X119995232Y-90090551D01*
X119989606Y-90089500D01*
X119786394Y-90089500D01*
X119780768Y-90090551D01*
X119780764Y-90090552D01*
X119592280Y-90125786D01*
X119592277Y-90125786D01*
X119586643Y-90126840D01*
X119581302Y-90128908D01*
X119581295Y-90128911D01*
X119402495Y-90198178D01*
X119402486Y-90198182D01*
X119397154Y-90200248D01*
X119392287Y-90203261D01*
X119392282Y-90203264D01*
X119229249Y-90304209D01*
X119229239Y-90304215D01*
X119224380Y-90307225D01*
X119220149Y-90311081D01*
X119220145Y-90311085D01*
X119078445Y-90440261D01*
X119078435Y-90440271D01*
X119074205Y-90444128D01*
X119070756Y-90448694D01*
X119070747Y-90448705D01*
X118955195Y-90601721D01*
X118955188Y-90601731D01*
X118951743Y-90606294D01*
X118949193Y-90611414D01*
X118949188Y-90611423D01*
X118863717Y-90783070D01*
X118863713Y-90783078D01*
X118861163Y-90788201D01*
X118859594Y-90793713D01*
X118859594Y-90793715D01*
X118807121Y-90978140D01*
X118805552Y-90983655D01*
X118805023Y-90989360D01*
X118805023Y-90989362D01*
X118790692Y-91144024D01*
X118786802Y-91186000D01*
X111804146Y-91186000D01*
X112015357Y-91044873D01*
X112237158Y-90850358D01*
X112431673Y-90628557D01*
X112595572Y-90383265D01*
X112726052Y-90118677D01*
X112820881Y-89839322D01*
X112878434Y-89549980D01*
X112897729Y-89255600D01*
X132313871Y-89255600D01*
X132314137Y-89259658D01*
X132330018Y-89501960D01*
X132333166Y-89549980D01*
X132333957Y-89553961D01*
X132333958Y-89553962D01*
X132389926Y-89835338D01*
X132389928Y-89835345D01*
X132390719Y-89839322D01*
X132392019Y-89843153D01*
X132392023Y-89843166D01*
X132476001Y-90090552D01*
X132485548Y-90118677D01*
X132487341Y-90122313D01*
X132487344Y-90122320D01*
X132614232Y-90379625D01*
X132614238Y-90379636D01*
X132616028Y-90383265D01*
X132618279Y-90386634D01*
X132618282Y-90386639D01*
X132669801Y-90463742D01*
X132779927Y-90628557D01*
X132974442Y-90850358D01*
X133196243Y-91044873D01*
X133199625Y-91047132D01*
X133199624Y-91047132D01*
X133367909Y-91159577D01*
X133441535Y-91208772D01*
X133445168Y-91210563D01*
X133445174Y-91210567D01*
X133664987Y-91318966D01*
X133706123Y-91339252D01*
X133866989Y-91393859D01*
X133981633Y-91432776D01*
X133981635Y-91432776D01*
X133985478Y-91434081D01*
X134274820Y-91491634D01*
X134569200Y-91510929D01*
X134863580Y-91491634D01*
X135152922Y-91434081D01*
X135432277Y-91339252D01*
X135696865Y-91208772D01*
X135942157Y-91044873D01*
X136163958Y-90850358D01*
X136358473Y-90628557D01*
X136522372Y-90383265D01*
X136652852Y-90118677D01*
X136747681Y-89839322D01*
X136805234Y-89549980D01*
X136824529Y-89255600D01*
X136805234Y-88961220D01*
X136747681Y-88671878D01*
X136724647Y-88604024D01*
X136711454Y-88565158D01*
X136652852Y-88392523D01*
X136522372Y-88127936D01*
X136358473Y-87882643D01*
X136163958Y-87660842D01*
X135942157Y-87466327D01*
X135861441Y-87412394D01*
X135700239Y-87304682D01*
X135700234Y-87304679D01*
X135696865Y-87302428D01*
X135693236Y-87300638D01*
X135693225Y-87300632D01*
X135435920Y-87173744D01*
X135435913Y-87173741D01*
X135432277Y-87171948D01*
X135428430Y-87170642D01*
X135156766Y-87078423D01*
X135156753Y-87078419D01*
X135152922Y-87077119D01*
X135148945Y-87076328D01*
X135148938Y-87076326D01*
X134867562Y-87020358D01*
X134867561Y-87020357D01*
X134863580Y-87019566D01*
X134859530Y-87019300D01*
X134859526Y-87019300D01*
X134573258Y-87000537D01*
X134569200Y-87000271D01*
X134565142Y-87000537D01*
X134278873Y-87019300D01*
X134278867Y-87019300D01*
X134274820Y-87019566D01*
X134270840Y-87020357D01*
X134270837Y-87020358D01*
X133989461Y-87076326D01*
X133989450Y-87076328D01*
X133985478Y-87077119D01*
X133981649Y-87078418D01*
X133981633Y-87078423D01*
X133709969Y-87170642D01*
X133709962Y-87170644D01*
X133706123Y-87171948D01*
X133702486Y-87173741D01*
X133702480Y-87173744D01*
X133445176Y-87300632D01*
X133445164Y-87300638D01*
X133441536Y-87302428D01*
X133438173Y-87304675D01*
X133438161Y-87304682D01*
X133199624Y-87464067D01*
X133199614Y-87464073D01*
X133196243Y-87466327D01*
X133193192Y-87469002D01*
X133193185Y-87469008D01*
X132977490Y-87658168D01*
X132977482Y-87658175D01*
X132974442Y-87660842D01*
X132971775Y-87663882D01*
X132971768Y-87663890D01*
X132782608Y-87879585D01*
X132782602Y-87879592D01*
X132779927Y-87882643D01*
X132777673Y-87886014D01*
X132777667Y-87886024D01*
X132618282Y-88124561D01*
X132618275Y-88124573D01*
X132616028Y-88127936D01*
X132614238Y-88131564D01*
X132614232Y-88131576D01*
X132487344Y-88388880D01*
X132487341Y-88388886D01*
X132485548Y-88392523D01*
X132484244Y-88396362D01*
X132484242Y-88396369D01*
X132392023Y-88668033D01*
X132392018Y-88668049D01*
X132390719Y-88671878D01*
X132389928Y-88675850D01*
X132389926Y-88675861D01*
X132333958Y-88957237D01*
X132333166Y-88961220D01*
X132332900Y-88965267D01*
X132332900Y-88965273D01*
X132315170Y-89235778D01*
X132313871Y-89255600D01*
X112897729Y-89255600D01*
X112878434Y-88961220D01*
X112820881Y-88671878D01*
X112797847Y-88604024D01*
X112784654Y-88565158D01*
X112726052Y-88392523D01*
X112595572Y-88127936D01*
X112431673Y-87882643D01*
X112237158Y-87660842D01*
X112015357Y-87466327D01*
X111934641Y-87412394D01*
X111773439Y-87304682D01*
X111773434Y-87304679D01*
X111770065Y-87302428D01*
X111766436Y-87300638D01*
X111766425Y-87300632D01*
X111509120Y-87173744D01*
X111509113Y-87173741D01*
X111505477Y-87171948D01*
X111501630Y-87170642D01*
X111229966Y-87078423D01*
X111229953Y-87078419D01*
X111226122Y-87077119D01*
X111222145Y-87076328D01*
X111222138Y-87076326D01*
X110940762Y-87020358D01*
X110940761Y-87020357D01*
X110936780Y-87019566D01*
X110932730Y-87019300D01*
X110932726Y-87019300D01*
X110646458Y-87000537D01*
X110642400Y-87000271D01*
X110638342Y-87000537D01*
X110352073Y-87019300D01*
X110352067Y-87019300D01*
X110348020Y-87019566D01*
X110344040Y-87020357D01*
X110344037Y-87020358D01*
X110062661Y-87076326D01*
X110062650Y-87076328D01*
X110058678Y-87077119D01*
X110054849Y-87078418D01*
X110054833Y-87078423D01*
X109783169Y-87170642D01*
X109783162Y-87170644D01*
X109779323Y-87171948D01*
X109775686Y-87173741D01*
X109775680Y-87173744D01*
X109518376Y-87300632D01*
X109518364Y-87300638D01*
X109514736Y-87302428D01*
X109511373Y-87304675D01*
X109511361Y-87304682D01*
X109272824Y-87464067D01*
X109272814Y-87464073D01*
X109269443Y-87466327D01*
X109266392Y-87469002D01*
X109266385Y-87469008D01*
X109050690Y-87658168D01*
X109050682Y-87658175D01*
X109047642Y-87660842D01*
X109044975Y-87663882D01*
X109044968Y-87663890D01*
X108855808Y-87879585D01*
X108855802Y-87879592D01*
X108853127Y-87882643D01*
X108850873Y-87886014D01*
X108850867Y-87886024D01*
X108691482Y-88124561D01*
X108691475Y-88124573D01*
X108689228Y-88127936D01*
X108687438Y-88131564D01*
X108687432Y-88131576D01*
X108560544Y-88388880D01*
X108560541Y-88388886D01*
X108558748Y-88392523D01*
X108557444Y-88396362D01*
X108557442Y-88396369D01*
X108465223Y-88668033D01*
X108465218Y-88668049D01*
X108463919Y-88671878D01*
X108463128Y-88675850D01*
X108463126Y-88675861D01*
X108407158Y-88957237D01*
X108406366Y-88961220D01*
X108406100Y-88965267D01*
X108406100Y-88965273D01*
X108388370Y-89235778D01*
X108387071Y-89255600D01*
X100244046Y-89255600D01*
X100244449Y-89250999D01*
X100223853Y-89015591D01*
X100162693Y-88787336D01*
X100062825Y-88573170D01*
X99927285Y-88379598D01*
X99760191Y-88212504D01*
X99755760Y-88209401D01*
X99755756Y-88209398D01*
X99574631Y-88082573D01*
X99535766Y-88038255D01*
X99521755Y-87980998D01*
X99535766Y-87923741D01*
X99574629Y-87879425D01*
X99760191Y-87749494D01*
X99927285Y-87582400D01*
X100062825Y-87388829D01*
X100162693Y-87174662D01*
X100223853Y-86946407D01*
X100244449Y-86710999D01*
X100223853Y-86475591D01*
X100162693Y-86247336D01*
X100062825Y-86033170D01*
X99927285Y-85839598D01*
X99760191Y-85672504D01*
X99755760Y-85669401D01*
X99755756Y-85669398D01*
X99574195Y-85542268D01*
X99535330Y-85497950D01*
X99521319Y-85440693D01*
X99524914Y-85426000D01*
X117790341Y-85426000D01*
X117790813Y-85431395D01*
X117792672Y-85452649D01*
X117810937Y-85661408D01*
X117812336Y-85666630D01*
X117812337Y-85666634D01*
X117870694Y-85884430D01*
X117870697Y-85884438D01*
X117872097Y-85889663D01*
X117874385Y-85894570D01*
X117874386Y-85894572D01*
X117969678Y-86098927D01*
X117969681Y-86098933D01*
X117971965Y-86103830D01*
X117975064Y-86108257D01*
X117975066Y-86108259D01*
X118104399Y-86292966D01*
X118104402Y-86292970D01*
X118107505Y-86297401D01*
X118274599Y-86464495D01*
X118279031Y-86467598D01*
X118279033Y-86467600D01*
X118320355Y-86496534D01*
X118468170Y-86600035D01*
X118682337Y-86699903D01*
X118687567Y-86701304D01*
X118687569Y-86701305D01*
X118723748Y-86710999D01*
X118910592Y-86761063D01*
X119146000Y-86781659D01*
X119381408Y-86761063D01*
X119609663Y-86699903D01*
X119823830Y-86600035D01*
X120017401Y-86464495D01*
X120184495Y-86297401D01*
X120215888Y-86252568D01*
X120314425Y-86111842D01*
X120358743Y-86072976D01*
X120416000Y-86058965D01*
X120473257Y-86072976D01*
X120517575Y-86111842D01*
X120644395Y-86292961D01*
X120644401Y-86292968D01*
X120647505Y-86297401D01*
X120814599Y-86464495D01*
X120819031Y-86467598D01*
X120819033Y-86467600D01*
X120860355Y-86496534D01*
X121008170Y-86600035D01*
X121222337Y-86699903D01*
X121227567Y-86701304D01*
X121227569Y-86701305D01*
X121263748Y-86710999D01*
X121450592Y-86761063D01*
X121686000Y-86781659D01*
X121921408Y-86761063D01*
X122149663Y-86699903D01*
X122363830Y-86600035D01*
X122557401Y-86464495D01*
X122724495Y-86297401D01*
X122755888Y-86252568D01*
X122854425Y-86111842D01*
X122898743Y-86072976D01*
X122956000Y-86058965D01*
X123013257Y-86072976D01*
X123057575Y-86111842D01*
X123184395Y-86292961D01*
X123184401Y-86292968D01*
X123187505Y-86297401D01*
X123354599Y-86464495D01*
X123359031Y-86467598D01*
X123359033Y-86467600D01*
X123400355Y-86496534D01*
X123548170Y-86600035D01*
X123762337Y-86699903D01*
X123767567Y-86701304D01*
X123767569Y-86701305D01*
X123803748Y-86710999D01*
X123990592Y-86761063D01*
X124226000Y-86781659D01*
X124461408Y-86761063D01*
X124689663Y-86699903D01*
X124903830Y-86600035D01*
X125097401Y-86464495D01*
X125264495Y-86297401D01*
X125295888Y-86252568D01*
X125394425Y-86111842D01*
X125438743Y-86072976D01*
X125496000Y-86058965D01*
X125553257Y-86072976D01*
X125597575Y-86111842D01*
X125724395Y-86292961D01*
X125724401Y-86292968D01*
X125727505Y-86297401D01*
X125894599Y-86464495D01*
X125899031Y-86467598D01*
X125899033Y-86467600D01*
X125940355Y-86496534D01*
X126088170Y-86600035D01*
X126302337Y-86699903D01*
X126307567Y-86701304D01*
X126307569Y-86701305D01*
X126343748Y-86710999D01*
X126530592Y-86761063D01*
X126766000Y-86781659D01*
X127001408Y-86761063D01*
X127229663Y-86699903D01*
X127443830Y-86600035D01*
X127637401Y-86464495D01*
X127759717Y-86342178D01*
X127812460Y-86310885D01*
X127873753Y-86308696D01*
X127928597Y-86336149D01*
X127963577Y-86386528D01*
X128009548Y-86509779D01*
X128017962Y-86525189D01*
X128093498Y-86626092D01*
X128105907Y-86638501D01*
X128206810Y-86714037D01*
X128222222Y-86722452D01*
X128341358Y-86766888D01*
X128356332Y-86770426D01*
X128404885Y-86775646D01*
X128411482Y-86776000D01*
X129039674Y-86776000D01*
X129052549Y-86772549D01*
X129056000Y-86759674D01*
X129556000Y-86759674D01*
X129559450Y-86772549D01*
X129572326Y-86776000D01*
X130200518Y-86776000D01*
X130207114Y-86775646D01*
X130255667Y-86770426D01*
X130270641Y-86766888D01*
X130389777Y-86722452D01*
X130405189Y-86714037D01*
X130506092Y-86638501D01*
X130518501Y-86626092D01*
X130594037Y-86525189D01*
X130602452Y-86509777D01*
X130646888Y-86390641D01*
X130650426Y-86375667D01*
X130655646Y-86327114D01*
X130656000Y-86320518D01*
X130656000Y-85692326D01*
X130652549Y-85679450D01*
X130639674Y-85676000D01*
X129572326Y-85676000D01*
X129559450Y-85679450D01*
X129556000Y-85692326D01*
X129556000Y-86759674D01*
X129056000Y-86759674D01*
X129056000Y-85159674D01*
X129556000Y-85159674D01*
X129559450Y-85172549D01*
X129572326Y-85176000D01*
X130639674Y-85176000D01*
X130652549Y-85172549D01*
X130656000Y-85159674D01*
X130656000Y-84531482D01*
X130655646Y-84524885D01*
X130650426Y-84476332D01*
X130646888Y-84461358D01*
X130602452Y-84342222D01*
X130594037Y-84326810D01*
X130518501Y-84225907D01*
X130506092Y-84213498D01*
X130405189Y-84137962D01*
X130389777Y-84129547D01*
X130270641Y-84085111D01*
X130255667Y-84081573D01*
X130207114Y-84076353D01*
X130200518Y-84076000D01*
X129572326Y-84076000D01*
X129559450Y-84079450D01*
X129556000Y-84092326D01*
X129556000Y-85159674D01*
X129056000Y-85159674D01*
X129056000Y-84092326D01*
X129052549Y-84079450D01*
X129039674Y-84076000D01*
X128411482Y-84076000D01*
X128404885Y-84076353D01*
X128356332Y-84081573D01*
X128341358Y-84085111D01*
X128222222Y-84129547D01*
X128206810Y-84137962D01*
X128105907Y-84213498D01*
X128093498Y-84225907D01*
X128017962Y-84326810D01*
X128009544Y-84342226D01*
X127963576Y-84465471D01*
X127928597Y-84515850D01*
X127873753Y-84543303D01*
X127812460Y-84541114D01*
X127759714Y-84509818D01*
X127641232Y-84391336D01*
X127641230Y-84391334D01*
X127637401Y-84387505D01*
X127632970Y-84384402D01*
X127632966Y-84384399D01*
X127448259Y-84255066D01*
X127448257Y-84255064D01*
X127443830Y-84251965D01*
X127438933Y-84249681D01*
X127438927Y-84249678D01*
X127234572Y-84154386D01*
X127234570Y-84154385D01*
X127229663Y-84152097D01*
X127224438Y-84150697D01*
X127224430Y-84150694D01*
X127006634Y-84092337D01*
X127006630Y-84092336D01*
X127001408Y-84090937D01*
X126996020Y-84090465D01*
X126996017Y-84090465D01*
X126771395Y-84070813D01*
X126766000Y-84070341D01*
X126760605Y-84070813D01*
X126535982Y-84090465D01*
X126535977Y-84090465D01*
X126530592Y-84090937D01*
X126525371Y-84092335D01*
X126525365Y-84092337D01*
X126307569Y-84150694D01*
X126307557Y-84150698D01*
X126302337Y-84152097D01*
X126297432Y-84154383D01*
X126297427Y-84154386D01*
X126093081Y-84249675D01*
X126093077Y-84249677D01*
X126088171Y-84251965D01*
X126083738Y-84255068D01*
X126083731Y-84255073D01*
X125899034Y-84384399D01*
X125899029Y-84384402D01*
X125894599Y-84387505D01*
X125890775Y-84391328D01*
X125890769Y-84391334D01*
X125731334Y-84550769D01*
X125731328Y-84550775D01*
X125727505Y-84554599D01*
X125724402Y-84559029D01*
X125724399Y-84559034D01*
X125597575Y-84740159D01*
X125553257Y-84779025D01*
X125496000Y-84793036D01*
X125438743Y-84779025D01*
X125394425Y-84740159D01*
X125383327Y-84724310D01*
X125264495Y-84554599D01*
X125097401Y-84387505D01*
X125092970Y-84384402D01*
X125092966Y-84384399D01*
X124908259Y-84255066D01*
X124908257Y-84255064D01*
X124903830Y-84251965D01*
X124898933Y-84249681D01*
X124898927Y-84249678D01*
X124694572Y-84154386D01*
X124694570Y-84154385D01*
X124689663Y-84152097D01*
X124684438Y-84150697D01*
X124684430Y-84150694D01*
X124466634Y-84092337D01*
X124466630Y-84092336D01*
X124461408Y-84090937D01*
X124456020Y-84090465D01*
X124456017Y-84090465D01*
X124231395Y-84070813D01*
X124226000Y-84070341D01*
X124220605Y-84070813D01*
X123995982Y-84090465D01*
X123995977Y-84090465D01*
X123990592Y-84090937D01*
X123985371Y-84092335D01*
X123985365Y-84092337D01*
X123767569Y-84150694D01*
X123767557Y-84150698D01*
X123762337Y-84152097D01*
X123757432Y-84154383D01*
X123757427Y-84154386D01*
X123553081Y-84249675D01*
X123553077Y-84249677D01*
X123548171Y-84251965D01*
X123543738Y-84255068D01*
X123543731Y-84255073D01*
X123359034Y-84384399D01*
X123359029Y-84384402D01*
X123354599Y-84387505D01*
X123350775Y-84391328D01*
X123350769Y-84391334D01*
X123191334Y-84550769D01*
X123191328Y-84550775D01*
X123187505Y-84554599D01*
X123184402Y-84559029D01*
X123184399Y-84559034D01*
X123057575Y-84740159D01*
X123013257Y-84779025D01*
X122956000Y-84793036D01*
X122898743Y-84779025D01*
X122854425Y-84740159D01*
X122843327Y-84724310D01*
X122724495Y-84554599D01*
X122557401Y-84387505D01*
X122552970Y-84384402D01*
X122552966Y-84384399D01*
X122368259Y-84255066D01*
X122368257Y-84255064D01*
X122363830Y-84251965D01*
X122358933Y-84249681D01*
X122358927Y-84249678D01*
X122154572Y-84154386D01*
X122154570Y-84154385D01*
X122149663Y-84152097D01*
X122144438Y-84150697D01*
X122144430Y-84150694D01*
X121926634Y-84092337D01*
X121926630Y-84092336D01*
X121921408Y-84090937D01*
X121916020Y-84090465D01*
X121916017Y-84090465D01*
X121691395Y-84070813D01*
X121686000Y-84070341D01*
X121680605Y-84070813D01*
X121455982Y-84090465D01*
X121455977Y-84090465D01*
X121450592Y-84090937D01*
X121445371Y-84092335D01*
X121445365Y-84092337D01*
X121227569Y-84150694D01*
X121227557Y-84150698D01*
X121222337Y-84152097D01*
X121217432Y-84154383D01*
X121217427Y-84154386D01*
X121013081Y-84249675D01*
X121013077Y-84249677D01*
X121008171Y-84251965D01*
X121003738Y-84255068D01*
X121003731Y-84255073D01*
X120819034Y-84384399D01*
X120819029Y-84384402D01*
X120814599Y-84387505D01*
X120810775Y-84391328D01*
X120810769Y-84391334D01*
X120651334Y-84550769D01*
X120651328Y-84550775D01*
X120647505Y-84554599D01*
X120644402Y-84559029D01*
X120644399Y-84559034D01*
X120517575Y-84740159D01*
X120473257Y-84779025D01*
X120416000Y-84793036D01*
X120358743Y-84779025D01*
X120314425Y-84740159D01*
X120303327Y-84724310D01*
X120184495Y-84554599D01*
X120017401Y-84387505D01*
X120012970Y-84384402D01*
X120012966Y-84384399D01*
X119828259Y-84255066D01*
X119828257Y-84255064D01*
X119823830Y-84251965D01*
X119818933Y-84249681D01*
X119818927Y-84249678D01*
X119614572Y-84154386D01*
X119614570Y-84154385D01*
X119609663Y-84152097D01*
X119604438Y-84150697D01*
X119604430Y-84150694D01*
X119386634Y-84092337D01*
X119386630Y-84092336D01*
X119381408Y-84090937D01*
X119376020Y-84090465D01*
X119376017Y-84090465D01*
X119151395Y-84070813D01*
X119146000Y-84070341D01*
X119140605Y-84070813D01*
X118915982Y-84090465D01*
X118915977Y-84090465D01*
X118910592Y-84090937D01*
X118905371Y-84092335D01*
X118905365Y-84092337D01*
X118687569Y-84150694D01*
X118687557Y-84150698D01*
X118682337Y-84152097D01*
X118677432Y-84154383D01*
X118677427Y-84154386D01*
X118473081Y-84249675D01*
X118473077Y-84249677D01*
X118468171Y-84251965D01*
X118463738Y-84255068D01*
X118463731Y-84255073D01*
X118279034Y-84384399D01*
X118279029Y-84384402D01*
X118274599Y-84387505D01*
X118270775Y-84391328D01*
X118270769Y-84391334D01*
X118111334Y-84550769D01*
X118111328Y-84550775D01*
X118107505Y-84554599D01*
X118104402Y-84559029D01*
X118104399Y-84559034D01*
X117975073Y-84743731D01*
X117975068Y-84743738D01*
X117971965Y-84748171D01*
X117969677Y-84753077D01*
X117969675Y-84753081D01*
X117874386Y-84957427D01*
X117874383Y-84957432D01*
X117872097Y-84962337D01*
X117870698Y-84967557D01*
X117870694Y-84967569D01*
X117812337Y-85185365D01*
X117812335Y-85185371D01*
X117810937Y-85190592D01*
X117810465Y-85195977D01*
X117810465Y-85195982D01*
X117796523Y-85355340D01*
X117790341Y-85426000D01*
X99524914Y-85426000D01*
X99535330Y-85383436D01*
X99574196Y-85339118D01*
X99755428Y-85212218D01*
X99763699Y-85205277D01*
X99923068Y-85045908D01*
X99930005Y-85037642D01*
X100059288Y-84853007D01*
X100064676Y-84843675D01*
X100159933Y-84639396D01*
X100163621Y-84629262D01*
X100215733Y-84434779D01*
X100216101Y-84423550D01*
X100205159Y-84420999D01*
X95032421Y-84420999D01*
X95021478Y-84423550D01*
X95021846Y-84434779D01*
X95073958Y-84629262D01*
X95077646Y-84639396D01*
X95172903Y-84843675D01*
X95178291Y-84853007D01*
X95307574Y-85037642D01*
X95314511Y-85045908D01*
X95473880Y-85205277D01*
X95482146Y-85212214D01*
X95663385Y-85339119D01*
X95702250Y-85383437D01*
X95716261Y-85440694D01*
X95702250Y-85497951D01*
X95663384Y-85542269D01*
X95481824Y-85669398D01*
X95481819Y-85669401D01*
X95477389Y-85672504D01*
X95473565Y-85676327D01*
X95473559Y-85676333D01*
X95314124Y-85835768D01*
X95314118Y-85835774D01*
X95310295Y-85839598D01*
X95307192Y-85844028D01*
X95307189Y-85844033D01*
X95177863Y-86028730D01*
X95177858Y-86028737D01*
X95174755Y-86033170D01*
X95172467Y-86038076D01*
X95172465Y-86038080D01*
X95077176Y-86242426D01*
X95077173Y-86242431D01*
X95074887Y-86247336D01*
X95073488Y-86252556D01*
X95073484Y-86252568D01*
X95015127Y-86470364D01*
X95015125Y-86470370D01*
X95013727Y-86475591D01*
X95013255Y-86480976D01*
X95013255Y-86480981D01*
X94999474Y-86638501D01*
X94993131Y-86710999D01*
X94993603Y-86716394D01*
X94997388Y-86759662D01*
X95013727Y-86946407D01*
X95015126Y-86951629D01*
X95015127Y-86951633D01*
X95073484Y-87169429D01*
X95073487Y-87169437D01*
X95074887Y-87174662D01*
X95077175Y-87179569D01*
X95077176Y-87179571D01*
X95172468Y-87383926D01*
X95172471Y-87383932D01*
X95174755Y-87388829D01*
X95177854Y-87393256D01*
X95177856Y-87393258D01*
X95307189Y-87577965D01*
X95307192Y-87577969D01*
X95310295Y-87582400D01*
X95477389Y-87749494D01*
X95481822Y-87752598D01*
X95481828Y-87752603D01*
X95662948Y-87879424D01*
X95701814Y-87923742D01*
X95715825Y-87980999D01*
X95701814Y-88038256D01*
X95662950Y-88082573D01*
X95477389Y-88212504D01*
X95473565Y-88216327D01*
X95473559Y-88216333D01*
X95314124Y-88375768D01*
X95314118Y-88375774D01*
X95310295Y-88379598D01*
X95307192Y-88384028D01*
X95307189Y-88384033D01*
X95177863Y-88568730D01*
X95177858Y-88568737D01*
X95174755Y-88573170D01*
X95172467Y-88578076D01*
X95172465Y-88578080D01*
X95077176Y-88782426D01*
X95077173Y-88782431D01*
X95074887Y-88787336D01*
X95073488Y-88792556D01*
X95073484Y-88792568D01*
X95015127Y-89010364D01*
X95015125Y-89010370D01*
X95013727Y-89015591D01*
X95013255Y-89020976D01*
X95013255Y-89020981D01*
X94993603Y-89245604D01*
X94993131Y-89250999D01*
X95013727Y-89486407D01*
X95015126Y-89491629D01*
X95015127Y-89491633D01*
X95073484Y-89709429D01*
X95073487Y-89709437D01*
X95074887Y-89714662D01*
X95077175Y-89719569D01*
X95077176Y-89719571D01*
X95172468Y-89923926D01*
X95172471Y-89923932D01*
X95174755Y-89928829D01*
X95177854Y-89933256D01*
X95177856Y-89933258D01*
X95307189Y-90117965D01*
X95307192Y-90117969D01*
X95310295Y-90122400D01*
X95477389Y-90289494D01*
X95481822Y-90292598D01*
X95481828Y-90292603D01*
X95662948Y-90419424D01*
X95701814Y-90463742D01*
X95715825Y-90520999D01*
X95701814Y-90578256D01*
X95662949Y-90622574D01*
X95481831Y-90749394D01*
X95477389Y-90752504D01*
X95473565Y-90756327D01*
X95473559Y-90756333D01*
X95314124Y-90915768D01*
X95314118Y-90915774D01*
X95310295Y-90919598D01*
X95307192Y-90924028D01*
X95307189Y-90924033D01*
X95177863Y-91108730D01*
X95177858Y-91108737D01*
X95174755Y-91113170D01*
X95172467Y-91118076D01*
X95172465Y-91118080D01*
X95077176Y-91322426D01*
X95077173Y-91322431D01*
X95074887Y-91327336D01*
X95073488Y-91332556D01*
X95073484Y-91332568D01*
X95015127Y-91550364D01*
X95015125Y-91550370D01*
X95013727Y-91555591D01*
X95013255Y-91560976D01*
X95013255Y-91560981D01*
X95011259Y-91583799D01*
X94993131Y-91790999D01*
X94993603Y-91796394D01*
X95004705Y-91923294D01*
X95013727Y-92026407D01*
X95015126Y-92031629D01*
X95015127Y-92031633D01*
X95073484Y-92249429D01*
X95073487Y-92249437D01*
X95074887Y-92254662D01*
X95077175Y-92259569D01*
X95077176Y-92259571D01*
X95172468Y-92463926D01*
X95172471Y-92463932D01*
X95174755Y-92468829D01*
X95177854Y-92473256D01*
X95177856Y-92473258D01*
X95307189Y-92657965D01*
X95307192Y-92657969D01*
X95310295Y-92662400D01*
X95477389Y-92829494D01*
X95481822Y-92832598D01*
X95481828Y-92832603D01*
X95662948Y-92959424D01*
X95701814Y-93003742D01*
X95715825Y-93060999D01*
X95701814Y-93118256D01*
X95662949Y-93162574D01*
X95481831Y-93289394D01*
X95477389Y-93292504D01*
X95473565Y-93296327D01*
X95473559Y-93296333D01*
X95314124Y-93455768D01*
X95314118Y-93455774D01*
X95310295Y-93459598D01*
X95307192Y-93464028D01*
X95307189Y-93464033D01*
X95177863Y-93648730D01*
X95177858Y-93648737D01*
X95174755Y-93653170D01*
X95172467Y-93658076D01*
X95172465Y-93658080D01*
X95077176Y-93862426D01*
X95077173Y-93862431D01*
X95074887Y-93867336D01*
X95073488Y-93872556D01*
X95073484Y-93872568D01*
X95015127Y-94090364D01*
X95015125Y-94090370D01*
X95013727Y-94095591D01*
X95013255Y-94100976D01*
X95013255Y-94100981D01*
X95011259Y-94123799D01*
X94993131Y-94330999D01*
X94993603Y-94336394D01*
X95012962Y-94557670D01*
X95013727Y-94566407D01*
X95015126Y-94571629D01*
X95015127Y-94571633D01*
X95073484Y-94789429D01*
X95073487Y-94789437D01*
X95074887Y-94794662D01*
X95077175Y-94799569D01*
X95077176Y-94799571D01*
X95172468Y-95003926D01*
X95172471Y-95003932D01*
X95174755Y-95008829D01*
X95177854Y-95013256D01*
X95177856Y-95013258D01*
X95307189Y-95197965D01*
X95307192Y-95197969D01*
X95310295Y-95202400D01*
X95477389Y-95369494D01*
X95481822Y-95372598D01*
X95481828Y-95372603D01*
X95662948Y-95499424D01*
X95701814Y-95543742D01*
X95715825Y-95600999D01*
X95701814Y-95658256D01*
X95662949Y-95702574D01*
X95481831Y-95829394D01*
X95477389Y-95832504D01*
X95473565Y-95836327D01*
X95473559Y-95836333D01*
X95314124Y-95995768D01*
X95314118Y-95995774D01*
X95310295Y-95999598D01*
X95307192Y-96004028D01*
X95307189Y-96004033D01*
X95177863Y-96188730D01*
X95177858Y-96188737D01*
X95174755Y-96193170D01*
X95172467Y-96198076D01*
X95172465Y-96198080D01*
X95077176Y-96402426D01*
X95077173Y-96402431D01*
X95074887Y-96407336D01*
X95073488Y-96412556D01*
X95073484Y-96412568D01*
X95015127Y-96630364D01*
X95015125Y-96630370D01*
X95013727Y-96635591D01*
X95013255Y-96640976D01*
X95013255Y-96640981D01*
X95011259Y-96663799D01*
X94993131Y-96870999D01*
X94993603Y-96876394D01*
X95004705Y-97003294D01*
X95013727Y-97106407D01*
X95015126Y-97111629D01*
X95015127Y-97111633D01*
X95073484Y-97329429D01*
X95073487Y-97329437D01*
X95074887Y-97334662D01*
X95077175Y-97339569D01*
X95077176Y-97339571D01*
X95172468Y-97543926D01*
X95172471Y-97543932D01*
X95174755Y-97548829D01*
X95177854Y-97553256D01*
X95177856Y-97553258D01*
X95307189Y-97737965D01*
X95307192Y-97737969D01*
X95310295Y-97742400D01*
X95477389Y-97909494D01*
X95481822Y-97912598D01*
X95481828Y-97912603D01*
X95662948Y-98039424D01*
X95701814Y-98083742D01*
X95715825Y-98140999D01*
X95701814Y-98198256D01*
X95662949Y-98242574D01*
X95481831Y-98369394D01*
X95477389Y-98372504D01*
X95473565Y-98376327D01*
X95473559Y-98376333D01*
X95314124Y-98535768D01*
X95314118Y-98535774D01*
X95310295Y-98539598D01*
X95307192Y-98544028D01*
X95307189Y-98544033D01*
X95177863Y-98728730D01*
X95177858Y-98728737D01*
X95174755Y-98733170D01*
X95172467Y-98738076D01*
X95172465Y-98738080D01*
X95077176Y-98942426D01*
X95077173Y-98942431D01*
X95074887Y-98947336D01*
X95073488Y-98952556D01*
X95073484Y-98952568D01*
X95015127Y-99170364D01*
X95015125Y-99170370D01*
X95013727Y-99175591D01*
X95013255Y-99180976D01*
X95013255Y-99180981D01*
X95011259Y-99203799D01*
X94993131Y-99410999D01*
X94993603Y-99416394D01*
X95004705Y-99543294D01*
X95013727Y-99646407D01*
X95015126Y-99651629D01*
X95015127Y-99651633D01*
X95073484Y-99869429D01*
X95073487Y-99869437D01*
X95074887Y-99874662D01*
X95077175Y-99879569D01*
X95077176Y-99879571D01*
X95172468Y-100083926D01*
X95172471Y-100083932D01*
X95174755Y-100088829D01*
X95177854Y-100093256D01*
X95177856Y-100093258D01*
X95307189Y-100277965D01*
X95307192Y-100277969D01*
X95310295Y-100282400D01*
X95477389Y-100449494D01*
X95481822Y-100452598D01*
X95481828Y-100452603D01*
X95662948Y-100579424D01*
X95701814Y-100623742D01*
X95715825Y-100680999D01*
X95701814Y-100738256D01*
X95662950Y-100782573D01*
X95477389Y-100912504D01*
X95473565Y-100916327D01*
X95473559Y-100916333D01*
X95314124Y-101075768D01*
X95314118Y-101075774D01*
X95310295Y-101079598D01*
X95307192Y-101084028D01*
X95307189Y-101084033D01*
X95177863Y-101268730D01*
X95177858Y-101268737D01*
X95174755Y-101273170D01*
X95172467Y-101278076D01*
X95172465Y-101278080D01*
X95077176Y-101482426D01*
X95077173Y-101482431D01*
X95074887Y-101487336D01*
X95073488Y-101492556D01*
X95073484Y-101492568D01*
X95015127Y-101710364D01*
X95015125Y-101710370D01*
X95013727Y-101715591D01*
X95013255Y-101720976D01*
X95013255Y-101720981D01*
X95011259Y-101743799D01*
X94993131Y-101950999D01*
X94993603Y-101956394D01*
X95004705Y-102083294D01*
X95013727Y-102186407D01*
X95015126Y-102191629D01*
X95015127Y-102191633D01*
X95073484Y-102409429D01*
X95073487Y-102409437D01*
X95074887Y-102414662D01*
X95077175Y-102419569D01*
X95077176Y-102419571D01*
X95172468Y-102623926D01*
X95172471Y-102623932D01*
X95174755Y-102628829D01*
X95177854Y-102633256D01*
X95177856Y-102633258D01*
X95307189Y-102817965D01*
X95307192Y-102817969D01*
X95310295Y-102822400D01*
X95477389Y-102989494D01*
X95481822Y-102992598D01*
X95481828Y-102992603D01*
X95662948Y-103119424D01*
X95701814Y-103163742D01*
X95715825Y-103220999D01*
X95701814Y-103278256D01*
X95662949Y-103322574D01*
X95481831Y-103449394D01*
X95477389Y-103452504D01*
X95473565Y-103456327D01*
X95473559Y-103456333D01*
X95314124Y-103615768D01*
X95314118Y-103615774D01*
X95310295Y-103619598D01*
X95307192Y-103624028D01*
X95307189Y-103624033D01*
X95177863Y-103808730D01*
X95177858Y-103808737D01*
X95174755Y-103813170D01*
X95172467Y-103818076D01*
X95172465Y-103818080D01*
X95077176Y-104022426D01*
X95077173Y-104022431D01*
X95074887Y-104027336D01*
X95073488Y-104032556D01*
X95073484Y-104032568D01*
X95015127Y-104250364D01*
X95015125Y-104250370D01*
X95013727Y-104255591D01*
X95013255Y-104260976D01*
X95013255Y-104260981D01*
X95011259Y-104283799D01*
X94993131Y-104490999D01*
X94993603Y-104496394D01*
X95004705Y-104623294D01*
X95013727Y-104726407D01*
X95015126Y-104731629D01*
X95015127Y-104731633D01*
X95073484Y-104949429D01*
X95073487Y-104949437D01*
X95074887Y-104954662D01*
X95077175Y-104959569D01*
X95077176Y-104959571D01*
X95172468Y-105163926D01*
X95172471Y-105163932D01*
X95174755Y-105168829D01*
X95177854Y-105173256D01*
X95177856Y-105173258D01*
X95307189Y-105357965D01*
X95307192Y-105357969D01*
X95310295Y-105362400D01*
X95477389Y-105529494D01*
X95481822Y-105532598D01*
X95481828Y-105532603D01*
X95662948Y-105659424D01*
X95701814Y-105703742D01*
X95715825Y-105760999D01*
X95701814Y-105818256D01*
X95662949Y-105862574D01*
X95481831Y-105989394D01*
X95477389Y-105992504D01*
X95473565Y-105996327D01*
X95473559Y-105996333D01*
X95314124Y-106155768D01*
X95314118Y-106155774D01*
X95310295Y-106159598D01*
X95307192Y-106164028D01*
X95307189Y-106164033D01*
X95177863Y-106348730D01*
X95177858Y-106348737D01*
X95174755Y-106353170D01*
X95172467Y-106358076D01*
X95172465Y-106358080D01*
X95077176Y-106562426D01*
X95077173Y-106562431D01*
X95074887Y-106567336D01*
X95073488Y-106572556D01*
X95073484Y-106572568D01*
X95015127Y-106790364D01*
X95015125Y-106790370D01*
X95013727Y-106795591D01*
X95013255Y-106800976D01*
X95013255Y-106800981D01*
X95011259Y-106823799D01*
X94993131Y-107030999D01*
X94993603Y-107036394D01*
X95004705Y-107163294D01*
X95013727Y-107266407D01*
X95015126Y-107271629D01*
X95015127Y-107271633D01*
X95073484Y-107489429D01*
X95073487Y-107489437D01*
X95074887Y-107494662D01*
X95077175Y-107499569D01*
X95077176Y-107499571D01*
X95172468Y-107703926D01*
X95172471Y-107703932D01*
X95174755Y-107708829D01*
X95177854Y-107713256D01*
X95177856Y-107713258D01*
X95307189Y-107897965D01*
X95307192Y-107897969D01*
X95310295Y-107902400D01*
X95477389Y-108069494D01*
X95481822Y-108072598D01*
X95481828Y-108072603D01*
X95662948Y-108199424D01*
X95701814Y-108243742D01*
X95715825Y-108300999D01*
X95701814Y-108358256D01*
X95662949Y-108402574D01*
X95481831Y-108529394D01*
X95477389Y-108532504D01*
X95473565Y-108536327D01*
X95473559Y-108536333D01*
X95314124Y-108695768D01*
X95314118Y-108695774D01*
X95310295Y-108699598D01*
X95307192Y-108704028D01*
X95307189Y-108704033D01*
X95177863Y-108888730D01*
X95177858Y-108888737D01*
X95174755Y-108893170D01*
X95172467Y-108898076D01*
X95172465Y-108898080D01*
X95077176Y-109102426D01*
X95077173Y-109102431D01*
X95074887Y-109107336D01*
X95073488Y-109112556D01*
X95073484Y-109112568D01*
X95015127Y-109330364D01*
X95015125Y-109330370D01*
X95013727Y-109335591D01*
X95013255Y-109340976D01*
X95013255Y-109340981D01*
X95011259Y-109363799D01*
X94993131Y-109570999D01*
X94993603Y-109576394D01*
X95004705Y-109703294D01*
X95013727Y-109806407D01*
X95015126Y-109811629D01*
X95015127Y-109811633D01*
X95073484Y-110029429D01*
X95073487Y-110029437D01*
X95074887Y-110034662D01*
X95077175Y-110039569D01*
X95077176Y-110039571D01*
X95172468Y-110243926D01*
X95172471Y-110243932D01*
X95174755Y-110248829D01*
X95177854Y-110253256D01*
X95177856Y-110253258D01*
X95307189Y-110437965D01*
X95307192Y-110437969D01*
X95310295Y-110442400D01*
X95477389Y-110609494D01*
X95481822Y-110612598D01*
X95481828Y-110612603D01*
X95662948Y-110739424D01*
X95701814Y-110783742D01*
X95715825Y-110840999D01*
X95701814Y-110898256D01*
X95662949Y-110942574D01*
X95481831Y-111069394D01*
X95477389Y-111072504D01*
X95473565Y-111076327D01*
X95473559Y-111076333D01*
X95314124Y-111235768D01*
X95314118Y-111235774D01*
X95310295Y-111239598D01*
X95307192Y-111244028D01*
X95307189Y-111244033D01*
X95177863Y-111428730D01*
X95177858Y-111428737D01*
X95174755Y-111433170D01*
X95172467Y-111438076D01*
X95172465Y-111438080D01*
X95077176Y-111642426D01*
X95077173Y-111642431D01*
X95074887Y-111647336D01*
X95073488Y-111652556D01*
X95073484Y-111652568D01*
X95015127Y-111870364D01*
X95015125Y-111870370D01*
X95013727Y-111875591D01*
X95013255Y-111880976D01*
X95013255Y-111880981D01*
X95011259Y-111903799D01*
X94993131Y-112110999D01*
X94993603Y-112116394D01*
X95004705Y-112243294D01*
X95013727Y-112346407D01*
X95015126Y-112351629D01*
X95015127Y-112351633D01*
X95073484Y-112569429D01*
X95073487Y-112569437D01*
X95074887Y-112574662D01*
X95077175Y-112579569D01*
X95077176Y-112579571D01*
X95172468Y-112783926D01*
X95172471Y-112783932D01*
X95174755Y-112788829D01*
X95177854Y-112793256D01*
X95177856Y-112793258D01*
X95307189Y-112977965D01*
X95307192Y-112977969D01*
X95310295Y-112982400D01*
X95477389Y-113149494D01*
X95481822Y-113152598D01*
X95481828Y-113152603D01*
X95662948Y-113279424D01*
X95701814Y-113323742D01*
X95715825Y-113380999D01*
X95701814Y-113438256D01*
X95662950Y-113482573D01*
X95477389Y-113612504D01*
X95473565Y-113616327D01*
X95473559Y-113616333D01*
X95314124Y-113775768D01*
X95314118Y-113775774D01*
X95310295Y-113779598D01*
X95307192Y-113784028D01*
X95307189Y-113784033D01*
X95177863Y-113968730D01*
X95177858Y-113968737D01*
X95174755Y-113973170D01*
X95172467Y-113978076D01*
X95172465Y-113978080D01*
X95077176Y-114182426D01*
X95077173Y-114182431D01*
X95074887Y-114187336D01*
X95073488Y-114192556D01*
X95073484Y-114192568D01*
X95015127Y-114410364D01*
X95015125Y-114410370D01*
X95013727Y-114415591D01*
X95013255Y-114420976D01*
X95013255Y-114420981D01*
X95004155Y-114524999D01*
X94993131Y-114650999D01*
X90017600Y-114650999D01*
X90017600Y-81630999D01*
X94993131Y-81630999D01*
X95013727Y-81866407D01*
X95015126Y-81871629D01*
X95015127Y-81871633D01*
X95073484Y-82089429D01*
X95073487Y-82089437D01*
X95074887Y-82094662D01*
X95077175Y-82099569D01*
X95077176Y-82099571D01*
X95172468Y-82303926D01*
X95172471Y-82303932D01*
X95174755Y-82308829D01*
X95177854Y-82313256D01*
X95177856Y-82313258D01*
X95307189Y-82497965D01*
X95307192Y-82497969D01*
X95310295Y-82502400D01*
X95477389Y-82669494D01*
X95481821Y-82672597D01*
X95481823Y-82672599D01*
X95663385Y-82799730D01*
X95702250Y-82844048D01*
X95716261Y-82901305D01*
X95702250Y-82958562D01*
X95663385Y-83002880D01*
X95482142Y-83129787D01*
X95473882Y-83136718D01*
X95314509Y-83296091D01*
X95307574Y-83304356D01*
X95178298Y-83488981D01*
X95172900Y-83498331D01*
X95077646Y-83702601D01*
X95073958Y-83712735D01*
X95021846Y-83907218D01*
X95021478Y-83918447D01*
X95032421Y-83920999D01*
X100205159Y-83920999D01*
X100216101Y-83918447D01*
X100215733Y-83907218D01*
X100163621Y-83712735D01*
X100159933Y-83702601D01*
X100064679Y-83498331D01*
X100059281Y-83488981D01*
X99930005Y-83304356D01*
X99923070Y-83296091D01*
X99763699Y-83136720D01*
X99755433Y-83129783D01*
X99574195Y-83002879D01*
X99535330Y-82958561D01*
X99521319Y-82901304D01*
X99535330Y-82844047D01*
X99574196Y-82799729D01*
X99755751Y-82672603D01*
X99755751Y-82672602D01*
X99760191Y-82669494D01*
X99927285Y-82502400D01*
X100062825Y-82308829D01*
X100162693Y-82094662D01*
X100223853Y-81866407D01*
X100243088Y-81646552D01*
X145755305Y-81646552D01*
X145755777Y-81651947D01*
X145774068Y-81861016D01*
X145775901Y-81881960D01*
X145777300Y-81887182D01*
X145777301Y-81887186D01*
X145835658Y-82104982D01*
X145835661Y-82104990D01*
X145837061Y-82110215D01*
X145839349Y-82115122D01*
X145839350Y-82115124D01*
X145934642Y-82319479D01*
X145934645Y-82319485D01*
X145936929Y-82324382D01*
X145940028Y-82328809D01*
X145940030Y-82328811D01*
X146069363Y-82513518D01*
X146069366Y-82513522D01*
X146072469Y-82517953D01*
X146239563Y-82685047D01*
X146243995Y-82688150D01*
X146243997Y-82688152D01*
X146425559Y-82815283D01*
X146464424Y-82859601D01*
X146478435Y-82916858D01*
X146464424Y-82974115D01*
X146425559Y-83018433D01*
X146244316Y-83145340D01*
X146236056Y-83152271D01*
X146076683Y-83311644D01*
X146069748Y-83319909D01*
X145940472Y-83504534D01*
X145935074Y-83513884D01*
X145839820Y-83718154D01*
X145836132Y-83728288D01*
X145784020Y-83922771D01*
X145783652Y-83934000D01*
X145794595Y-83936552D01*
X150967333Y-83936552D01*
X150978275Y-83934000D01*
X150977907Y-83922771D01*
X150925795Y-83728288D01*
X150922107Y-83718154D01*
X150826853Y-83513884D01*
X150821455Y-83504534D01*
X150692179Y-83319909D01*
X150685244Y-83311644D01*
X150525873Y-83152273D01*
X150517607Y-83145336D01*
X150336369Y-83018432D01*
X150297504Y-82974114D01*
X150283493Y-82916857D01*
X150297504Y-82859600D01*
X150336370Y-82815282D01*
X150517925Y-82688156D01*
X150517925Y-82688155D01*
X150522365Y-82685047D01*
X150689459Y-82517953D01*
X150824999Y-82324382D01*
X150924867Y-82110215D01*
X150986027Y-81881960D01*
X151006623Y-81646552D01*
X150986027Y-81411144D01*
X150924867Y-81182889D01*
X150824999Y-80968723D01*
X150689459Y-80775151D01*
X150522365Y-80608057D01*
X150517932Y-80604953D01*
X150517925Y-80604947D01*
X150336806Y-80478127D01*
X150297940Y-80433809D01*
X150283929Y-80376552D01*
X150297940Y-80319295D01*
X150336806Y-80274977D01*
X150517925Y-80148156D01*
X150517925Y-80148155D01*
X150522365Y-80145047D01*
X150689459Y-79977953D01*
X150824999Y-79784382D01*
X150924867Y-79570215D01*
X150986027Y-79341960D01*
X151006623Y-79106552D01*
X150986027Y-78871144D01*
X150924867Y-78642889D01*
X150824999Y-78428723D01*
X150689459Y-78235151D01*
X150522365Y-78068057D01*
X150517932Y-78064953D01*
X150517925Y-78064947D01*
X150336806Y-77938127D01*
X150297940Y-77893809D01*
X150283929Y-77836552D01*
X150297940Y-77779295D01*
X150336806Y-77734977D01*
X150517925Y-77608156D01*
X150517925Y-77608155D01*
X150522365Y-77605047D01*
X150689459Y-77437953D01*
X150824999Y-77244382D01*
X150924867Y-77030215D01*
X150986027Y-76801960D01*
X151006623Y-76566552D01*
X150986027Y-76331144D01*
X150924867Y-76102889D01*
X150824999Y-75888723D01*
X150689459Y-75695151D01*
X150522365Y-75528057D01*
X150517932Y-75524953D01*
X150517925Y-75524947D01*
X150336806Y-75398127D01*
X150297940Y-75353809D01*
X150283929Y-75296552D01*
X150297940Y-75239295D01*
X150336806Y-75194977D01*
X150517925Y-75068156D01*
X150517925Y-75068155D01*
X150522365Y-75065047D01*
X150689459Y-74897953D01*
X150824999Y-74704382D01*
X150924867Y-74490215D01*
X150986027Y-74261960D01*
X151006623Y-74026552D01*
X150986027Y-73791144D01*
X150924867Y-73562889D01*
X150824999Y-73348723D01*
X150689459Y-73155151D01*
X150522365Y-72988057D01*
X150517932Y-72984953D01*
X150517925Y-72984947D01*
X150336806Y-72858127D01*
X150297940Y-72813809D01*
X150283929Y-72756552D01*
X150297940Y-72699295D01*
X150336806Y-72654977D01*
X150517925Y-72528156D01*
X150517925Y-72528155D01*
X150522365Y-72525047D01*
X150689459Y-72357953D01*
X150824999Y-72164382D01*
X150924867Y-71950215D01*
X150986027Y-71721960D01*
X151006623Y-71486552D01*
X150986027Y-71251144D01*
X150924867Y-71022889D01*
X150824999Y-70808723D01*
X150689459Y-70615151D01*
X150522365Y-70448057D01*
X150517932Y-70444953D01*
X150517925Y-70444947D01*
X150336806Y-70318127D01*
X150297940Y-70273809D01*
X150283929Y-70216552D01*
X150297940Y-70159295D01*
X150336806Y-70114977D01*
X150517925Y-69988156D01*
X150517925Y-69988155D01*
X150522365Y-69985047D01*
X150689459Y-69817953D01*
X150824999Y-69624382D01*
X150924867Y-69410215D01*
X150986027Y-69181960D01*
X151006623Y-68946552D01*
X150986027Y-68711144D01*
X150924867Y-68482889D01*
X150824999Y-68268723D01*
X150689459Y-68075151D01*
X150522365Y-67908057D01*
X150517932Y-67904953D01*
X150517925Y-67904947D01*
X150336806Y-67778127D01*
X150297940Y-67733809D01*
X150283929Y-67676552D01*
X150297940Y-67619295D01*
X150336806Y-67574977D01*
X150517925Y-67448156D01*
X150517925Y-67448155D01*
X150522365Y-67445047D01*
X150689459Y-67277953D01*
X150824999Y-67084382D01*
X150924867Y-66870215D01*
X150986027Y-66641960D01*
X151006623Y-66406552D01*
X150986027Y-66171144D01*
X150924867Y-65942889D01*
X150824999Y-65728723D01*
X150689459Y-65535151D01*
X150522365Y-65368057D01*
X150517932Y-65364953D01*
X150517925Y-65364947D01*
X150336806Y-65238127D01*
X150297940Y-65193809D01*
X150283929Y-65136552D01*
X150297940Y-65079295D01*
X150336806Y-65034977D01*
X150517925Y-64908156D01*
X150517925Y-64908155D01*
X150522365Y-64905047D01*
X150689459Y-64737953D01*
X150824999Y-64544382D01*
X150924867Y-64330215D01*
X150986027Y-64101960D01*
X151006623Y-63866552D01*
X150986027Y-63631144D01*
X150924867Y-63402889D01*
X150824999Y-63188723D01*
X150689459Y-62995151D01*
X150522365Y-62828057D01*
X150517934Y-62824954D01*
X150517930Y-62824951D01*
X150336805Y-62698126D01*
X150297940Y-62653808D01*
X150283929Y-62596551D01*
X150297940Y-62539294D01*
X150336803Y-62494978D01*
X150522365Y-62365047D01*
X150689459Y-62197953D01*
X150824999Y-62004382D01*
X150924867Y-61790215D01*
X150986027Y-61561960D01*
X151006623Y-61326552D01*
X150986027Y-61091144D01*
X150924867Y-60862889D01*
X150824999Y-60648723D01*
X150689459Y-60455151D01*
X150522365Y-60288057D01*
X150517932Y-60284953D01*
X150517925Y-60284947D01*
X150336806Y-60158127D01*
X150297940Y-60113809D01*
X150283929Y-60056552D01*
X150297940Y-59999295D01*
X150336806Y-59954977D01*
X150517925Y-59828156D01*
X150517925Y-59828155D01*
X150522365Y-59825047D01*
X150689459Y-59657953D01*
X150824999Y-59464382D01*
X150924867Y-59250215D01*
X150986027Y-59021960D01*
X151006623Y-58786552D01*
X150986027Y-58551144D01*
X150924867Y-58322889D01*
X150824999Y-58108723D01*
X150689459Y-57915151D01*
X150522365Y-57748057D01*
X150517932Y-57744953D01*
X150517925Y-57744947D01*
X150336806Y-57618127D01*
X150297940Y-57573809D01*
X150283929Y-57516552D01*
X150297940Y-57459295D01*
X150336806Y-57414977D01*
X150517925Y-57288156D01*
X150517925Y-57288155D01*
X150522365Y-57285047D01*
X150689459Y-57117953D01*
X150824999Y-56924382D01*
X150924867Y-56710215D01*
X150986027Y-56481960D01*
X151006623Y-56246552D01*
X150986027Y-56011144D01*
X150924867Y-55782889D01*
X150824999Y-55568723D01*
X150689459Y-55375151D01*
X150522365Y-55208057D01*
X150517932Y-55204953D01*
X150517925Y-55204947D01*
X150336806Y-55078127D01*
X150297940Y-55033809D01*
X150283929Y-54976552D01*
X150297940Y-54919295D01*
X150336806Y-54874977D01*
X150517925Y-54748156D01*
X150517925Y-54748155D01*
X150522365Y-54745047D01*
X150689459Y-54577953D01*
X150824999Y-54384382D01*
X150924867Y-54170215D01*
X150986027Y-53941960D01*
X151006623Y-53706552D01*
X150986027Y-53471144D01*
X150924867Y-53242889D01*
X150824999Y-53028723D01*
X150689459Y-52835151D01*
X150522365Y-52668057D01*
X150517934Y-52664954D01*
X150517930Y-52664951D01*
X150333223Y-52535618D01*
X150333221Y-52535616D01*
X150328794Y-52532517D01*
X150323897Y-52530233D01*
X150323891Y-52530230D01*
X150119536Y-52434938D01*
X150119534Y-52434937D01*
X150114627Y-52432649D01*
X150109402Y-52431249D01*
X150109394Y-52431246D01*
X149891598Y-52372889D01*
X149891594Y-52372888D01*
X149886372Y-52371489D01*
X149880984Y-52371017D01*
X149880981Y-52371017D01*
X149656359Y-52351365D01*
X149650964Y-52350893D01*
X149645569Y-52351365D01*
X149420946Y-52371017D01*
X149420941Y-52371017D01*
X149415556Y-52371489D01*
X149410335Y-52372887D01*
X149410329Y-52372889D01*
X149192533Y-52431246D01*
X149192521Y-52431250D01*
X149187301Y-52432649D01*
X149182396Y-52434935D01*
X149182391Y-52434938D01*
X148978045Y-52530227D01*
X148978041Y-52530229D01*
X148973135Y-52532517D01*
X148968702Y-52535620D01*
X148968695Y-52535625D01*
X148783998Y-52664951D01*
X148783993Y-52664954D01*
X148779563Y-52668057D01*
X148775739Y-52671880D01*
X148775739Y-52671881D01*
X148657249Y-52790371D01*
X148604502Y-52821666D01*
X148543210Y-52823855D01*
X148488365Y-52796402D01*
X148453386Y-52746023D01*
X148407415Y-52622772D01*
X148399001Y-52607362D01*
X148323465Y-52506459D01*
X148311056Y-52494050D01*
X148210153Y-52418514D01*
X148194741Y-52410099D01*
X148075605Y-52365663D01*
X148060631Y-52362125D01*
X148012078Y-52356905D01*
X148005482Y-52356552D01*
X147377290Y-52356552D01*
X147364414Y-52360002D01*
X147360964Y-52372878D01*
X147360964Y-53832552D01*
X147344351Y-53894552D01*
X147298964Y-53939939D01*
X147236964Y-53956552D01*
X145777290Y-53956552D01*
X145764414Y-53960002D01*
X145760964Y-53972878D01*
X145760964Y-54601070D01*
X145761317Y-54607666D01*
X145766537Y-54656219D01*
X145770075Y-54671193D01*
X145814511Y-54790329D01*
X145822926Y-54805741D01*
X145898462Y-54906644D01*
X145910871Y-54919053D01*
X146011774Y-54994589D01*
X146027184Y-55003003D01*
X146150435Y-55048974D01*
X146200814Y-55083953D01*
X146228267Y-55138798D01*
X146226078Y-55200090D01*
X146194782Y-55252837D01*
X146072469Y-55375151D01*
X146069366Y-55379581D01*
X146069363Y-55379586D01*
X145940037Y-55564283D01*
X145940032Y-55564290D01*
X145936929Y-55568723D01*
X145934641Y-55573629D01*
X145934639Y-55573633D01*
X145839350Y-55777979D01*
X145839347Y-55777984D01*
X145837061Y-55782889D01*
X145835662Y-55788109D01*
X145835658Y-55788121D01*
X145777301Y-56005917D01*
X145777299Y-56005923D01*
X145775901Y-56011144D01*
X145775429Y-56016529D01*
X145775429Y-56016534D01*
X145761504Y-56175700D01*
X145755305Y-56246552D01*
X145755777Y-56251947D01*
X145774068Y-56461016D01*
X145775901Y-56481960D01*
X145777300Y-56487182D01*
X145777301Y-56487186D01*
X145835658Y-56704982D01*
X145835661Y-56704990D01*
X145837061Y-56710215D01*
X145839349Y-56715122D01*
X145839350Y-56715124D01*
X145934642Y-56919479D01*
X145934645Y-56919485D01*
X145936929Y-56924382D01*
X145940028Y-56928809D01*
X145940030Y-56928811D01*
X146069363Y-57113518D01*
X146069366Y-57113522D01*
X146072469Y-57117953D01*
X146239563Y-57285047D01*
X146243996Y-57288151D01*
X146244002Y-57288156D01*
X146425122Y-57414977D01*
X146463988Y-57459295D01*
X146477999Y-57516552D01*
X146463988Y-57573809D01*
X146425123Y-57618127D01*
X146244005Y-57744947D01*
X146239563Y-57748057D01*
X146235739Y-57751880D01*
X146235733Y-57751886D01*
X146076298Y-57911321D01*
X146076292Y-57911327D01*
X146072469Y-57915151D01*
X146069366Y-57919581D01*
X146069363Y-57919586D01*
X145940037Y-58104283D01*
X145940032Y-58104290D01*
X145936929Y-58108723D01*
X145934641Y-58113629D01*
X145934639Y-58113633D01*
X145839350Y-58317979D01*
X145839347Y-58317984D01*
X145837061Y-58322889D01*
X145835662Y-58328109D01*
X145835658Y-58328121D01*
X145777301Y-58545917D01*
X145777299Y-58545923D01*
X145775901Y-58551144D01*
X145755305Y-58786552D01*
X145755777Y-58791947D01*
X145774068Y-59001016D01*
X145775901Y-59021960D01*
X145777300Y-59027182D01*
X145777301Y-59027186D01*
X145835658Y-59244982D01*
X145835661Y-59244990D01*
X145837061Y-59250215D01*
X145839349Y-59255122D01*
X145839350Y-59255124D01*
X145934642Y-59459479D01*
X145934645Y-59459485D01*
X145936929Y-59464382D01*
X145940028Y-59468809D01*
X145940030Y-59468811D01*
X146069363Y-59653518D01*
X146069366Y-59653522D01*
X146072469Y-59657953D01*
X146239563Y-59825047D01*
X146243996Y-59828151D01*
X146244002Y-59828156D01*
X146425122Y-59954977D01*
X146463988Y-59999295D01*
X146477999Y-60056552D01*
X146463988Y-60113809D01*
X146425123Y-60158127D01*
X146244005Y-60284947D01*
X146239563Y-60288057D01*
X146235739Y-60291880D01*
X146235733Y-60291886D01*
X146076298Y-60451321D01*
X146076292Y-60451327D01*
X146072469Y-60455151D01*
X146069366Y-60459581D01*
X146069363Y-60459586D01*
X145940037Y-60644283D01*
X145940032Y-60644290D01*
X145936929Y-60648723D01*
X145934641Y-60653629D01*
X145934639Y-60653633D01*
X145839350Y-60857979D01*
X145839347Y-60857984D01*
X145837061Y-60862889D01*
X145835662Y-60868109D01*
X145835658Y-60868121D01*
X145777301Y-61085917D01*
X145777299Y-61085923D01*
X145775901Y-61091144D01*
X145775429Y-61096529D01*
X145775429Y-61096534D01*
X145756829Y-61309128D01*
X145755305Y-61326552D01*
X145755777Y-61331947D01*
X145774068Y-61541016D01*
X145775901Y-61561960D01*
X145777300Y-61567182D01*
X145777301Y-61567186D01*
X145835658Y-61784982D01*
X145835661Y-61784990D01*
X145837061Y-61790215D01*
X145839349Y-61795122D01*
X145839350Y-61795124D01*
X145934642Y-61999479D01*
X145934645Y-61999485D01*
X145936929Y-62004382D01*
X145940028Y-62008809D01*
X145940030Y-62008811D01*
X146069363Y-62193518D01*
X146069366Y-62193522D01*
X146072469Y-62197953D01*
X146239563Y-62365047D01*
X146243996Y-62368151D01*
X146244002Y-62368156D01*
X146425122Y-62494977D01*
X146463988Y-62539295D01*
X146477999Y-62596552D01*
X146463988Y-62653809D01*
X146425124Y-62698126D01*
X146239563Y-62828057D01*
X146235739Y-62831880D01*
X146235733Y-62831886D01*
X146076298Y-62991321D01*
X146076292Y-62991327D01*
X146072469Y-62995151D01*
X146069366Y-62999581D01*
X146069363Y-62999586D01*
X145940037Y-63184283D01*
X145940032Y-63184290D01*
X145936929Y-63188723D01*
X145934641Y-63193629D01*
X145934639Y-63193633D01*
X145839350Y-63397979D01*
X145839347Y-63397984D01*
X145837061Y-63402889D01*
X145835662Y-63408109D01*
X145835658Y-63408121D01*
X145777301Y-63625917D01*
X145777299Y-63625923D01*
X145775901Y-63631144D01*
X145775429Y-63636529D01*
X145775429Y-63636534D01*
X145766996Y-63732929D01*
X145755305Y-63866552D01*
X145755777Y-63871947D01*
X145774068Y-64081016D01*
X145775901Y-64101960D01*
X145777300Y-64107182D01*
X145777301Y-64107186D01*
X145835658Y-64324982D01*
X145835661Y-64324990D01*
X145837061Y-64330215D01*
X145839349Y-64335122D01*
X145839350Y-64335124D01*
X145934642Y-64539479D01*
X145934645Y-64539485D01*
X145936929Y-64544382D01*
X145940028Y-64548809D01*
X145940030Y-64548811D01*
X146069363Y-64733518D01*
X146069366Y-64733522D01*
X146072469Y-64737953D01*
X146239563Y-64905047D01*
X146243996Y-64908151D01*
X146244002Y-64908156D01*
X146425122Y-65034977D01*
X146463988Y-65079295D01*
X146477999Y-65136552D01*
X146463988Y-65193809D01*
X146425123Y-65238127D01*
X146244005Y-65364947D01*
X146239563Y-65368057D01*
X146235739Y-65371880D01*
X146235733Y-65371886D01*
X146076298Y-65531321D01*
X146076292Y-65531327D01*
X146072469Y-65535151D01*
X146069366Y-65539581D01*
X146069363Y-65539586D01*
X145940037Y-65724283D01*
X145940032Y-65724290D01*
X145936929Y-65728723D01*
X145934641Y-65733629D01*
X145934639Y-65733633D01*
X145839350Y-65937979D01*
X145839347Y-65937984D01*
X145837061Y-65942889D01*
X145835662Y-65948109D01*
X145835658Y-65948121D01*
X145777301Y-66165917D01*
X145777299Y-66165923D01*
X145775901Y-66171144D01*
X145775429Y-66176529D01*
X145775429Y-66176534D01*
X145757138Y-66385604D01*
X145755305Y-66406552D01*
X145755777Y-66411947D01*
X145774068Y-66621016D01*
X145775901Y-66641960D01*
X145777300Y-66647182D01*
X145777301Y-66647186D01*
X145835658Y-66864982D01*
X145835661Y-66864990D01*
X145837061Y-66870215D01*
X145839349Y-66875122D01*
X145839350Y-66875124D01*
X145934642Y-67079479D01*
X145934645Y-67079485D01*
X145936929Y-67084382D01*
X145940028Y-67088809D01*
X145940030Y-67088811D01*
X146069363Y-67273518D01*
X146069366Y-67273522D01*
X146072469Y-67277953D01*
X146239563Y-67445047D01*
X146243996Y-67448151D01*
X146244002Y-67448156D01*
X146425122Y-67574977D01*
X146463988Y-67619295D01*
X146477999Y-67676552D01*
X146463988Y-67733809D01*
X146425123Y-67778127D01*
X146244005Y-67904947D01*
X146239563Y-67908057D01*
X146235739Y-67911880D01*
X146235733Y-67911886D01*
X146076298Y-68071321D01*
X146076292Y-68071327D01*
X146072469Y-68075151D01*
X146069366Y-68079581D01*
X146069363Y-68079586D01*
X145940037Y-68264283D01*
X145940032Y-68264290D01*
X145936929Y-68268723D01*
X145934641Y-68273629D01*
X145934639Y-68273633D01*
X145839350Y-68477979D01*
X145839347Y-68477984D01*
X145837061Y-68482889D01*
X145835662Y-68488109D01*
X145835658Y-68488121D01*
X145777301Y-68705917D01*
X145777299Y-68705923D01*
X145775901Y-68711144D01*
X145755305Y-68946552D01*
X145755777Y-68951947D01*
X145774068Y-69161016D01*
X145775901Y-69181960D01*
X145777300Y-69187182D01*
X145777301Y-69187186D01*
X145835658Y-69404982D01*
X145835661Y-69404990D01*
X145837061Y-69410215D01*
X145839349Y-69415122D01*
X145839350Y-69415124D01*
X145934642Y-69619479D01*
X145934645Y-69619485D01*
X145936929Y-69624382D01*
X145940028Y-69628809D01*
X145940030Y-69628811D01*
X146069363Y-69813518D01*
X146069366Y-69813522D01*
X146072469Y-69817953D01*
X146239563Y-69985047D01*
X146243996Y-69988151D01*
X146244002Y-69988156D01*
X146425122Y-70114977D01*
X146463988Y-70159295D01*
X146477999Y-70216552D01*
X146463988Y-70273809D01*
X146425123Y-70318127D01*
X146244005Y-70444947D01*
X146239563Y-70448057D01*
X146235739Y-70451880D01*
X146235733Y-70451886D01*
X146076298Y-70611321D01*
X146076292Y-70611327D01*
X146072469Y-70615151D01*
X146069366Y-70619581D01*
X146069363Y-70619586D01*
X145940037Y-70804283D01*
X145940032Y-70804290D01*
X145936929Y-70808723D01*
X145934641Y-70813629D01*
X145934639Y-70813633D01*
X145839350Y-71017979D01*
X145839347Y-71017984D01*
X145837061Y-71022889D01*
X145835662Y-71028109D01*
X145835658Y-71028121D01*
X145777301Y-71245917D01*
X145777299Y-71245923D01*
X145775901Y-71251144D01*
X145755305Y-71486552D01*
X145755777Y-71491947D01*
X145774068Y-71701016D01*
X145775901Y-71721960D01*
X145777300Y-71727182D01*
X145777301Y-71727186D01*
X145835658Y-71944982D01*
X145835661Y-71944990D01*
X145837061Y-71950215D01*
X145839349Y-71955122D01*
X145839350Y-71955124D01*
X145934642Y-72159479D01*
X145934645Y-72159485D01*
X145936929Y-72164382D01*
X145940028Y-72168809D01*
X145940030Y-72168811D01*
X146069363Y-72353518D01*
X146069366Y-72353522D01*
X146072469Y-72357953D01*
X146239563Y-72525047D01*
X146243996Y-72528151D01*
X146244002Y-72528156D01*
X146425122Y-72654977D01*
X146463988Y-72699295D01*
X146477999Y-72756552D01*
X146463988Y-72813809D01*
X146425123Y-72858127D01*
X146244005Y-72984947D01*
X146239563Y-72988057D01*
X146235739Y-72991880D01*
X146235733Y-72991886D01*
X146076298Y-73151321D01*
X146076292Y-73151327D01*
X146072469Y-73155151D01*
X146069366Y-73159581D01*
X146069363Y-73159586D01*
X145940037Y-73344283D01*
X145940032Y-73344290D01*
X145936929Y-73348723D01*
X145934641Y-73353629D01*
X145934639Y-73353633D01*
X145839350Y-73557979D01*
X145839347Y-73557984D01*
X145837061Y-73562889D01*
X145835662Y-73568109D01*
X145835658Y-73568121D01*
X145777301Y-73785917D01*
X145777299Y-73785923D01*
X145775901Y-73791144D01*
X145755305Y-74026552D01*
X145755777Y-74031947D01*
X145774068Y-74241016D01*
X145775901Y-74261960D01*
X145777300Y-74267182D01*
X145777301Y-74267186D01*
X145835658Y-74484982D01*
X145835661Y-74484990D01*
X145837061Y-74490215D01*
X145839349Y-74495122D01*
X145839350Y-74495124D01*
X145934642Y-74699479D01*
X145934645Y-74699485D01*
X145936929Y-74704382D01*
X145940028Y-74708809D01*
X145940030Y-74708811D01*
X146069363Y-74893518D01*
X146069366Y-74893522D01*
X146072469Y-74897953D01*
X146239563Y-75065047D01*
X146243996Y-75068151D01*
X146244002Y-75068156D01*
X146425122Y-75194977D01*
X146463988Y-75239295D01*
X146477999Y-75296552D01*
X146463988Y-75353809D01*
X146425123Y-75398127D01*
X146244005Y-75524947D01*
X146239563Y-75528057D01*
X146235739Y-75531880D01*
X146235733Y-75531886D01*
X146076298Y-75691321D01*
X146076292Y-75691327D01*
X146072469Y-75695151D01*
X146069366Y-75699581D01*
X146069363Y-75699586D01*
X145940037Y-75884283D01*
X145940032Y-75884290D01*
X145936929Y-75888723D01*
X145934641Y-75893629D01*
X145934639Y-75893633D01*
X145839350Y-76097979D01*
X145839347Y-76097984D01*
X145837061Y-76102889D01*
X145835662Y-76108109D01*
X145835658Y-76108121D01*
X145777301Y-76325917D01*
X145777299Y-76325923D01*
X145775901Y-76331144D01*
X145755305Y-76566552D01*
X145755777Y-76571947D01*
X145774068Y-76781016D01*
X145775901Y-76801960D01*
X145777300Y-76807182D01*
X145777301Y-76807186D01*
X145835658Y-77024982D01*
X145835661Y-77024990D01*
X145837061Y-77030215D01*
X145839349Y-77035122D01*
X145839350Y-77035124D01*
X145934642Y-77239479D01*
X145934645Y-77239485D01*
X145936929Y-77244382D01*
X145940028Y-77248809D01*
X145940030Y-77248811D01*
X146069363Y-77433518D01*
X146069366Y-77433522D01*
X146072469Y-77437953D01*
X146239563Y-77605047D01*
X146243996Y-77608151D01*
X146244002Y-77608156D01*
X146425122Y-77734977D01*
X146463988Y-77779295D01*
X146477999Y-77836552D01*
X146463988Y-77893809D01*
X146425123Y-77938127D01*
X146244005Y-78064947D01*
X146239563Y-78068057D01*
X146235739Y-78071880D01*
X146235733Y-78071886D01*
X146076298Y-78231321D01*
X146076292Y-78231327D01*
X146072469Y-78235151D01*
X146069366Y-78239581D01*
X146069363Y-78239586D01*
X145940037Y-78424283D01*
X145940032Y-78424290D01*
X145936929Y-78428723D01*
X145934641Y-78433629D01*
X145934639Y-78433633D01*
X145839350Y-78637979D01*
X145839347Y-78637984D01*
X145837061Y-78642889D01*
X145835662Y-78648109D01*
X145835658Y-78648121D01*
X145777301Y-78865917D01*
X145777299Y-78865923D01*
X145775901Y-78871144D01*
X145755305Y-79106552D01*
X145755777Y-79111947D01*
X145774068Y-79321016D01*
X145775901Y-79341960D01*
X145777300Y-79347182D01*
X145777301Y-79347186D01*
X145835658Y-79564982D01*
X145835661Y-79564990D01*
X145837061Y-79570215D01*
X145839349Y-79575122D01*
X145839350Y-79575124D01*
X145934642Y-79779479D01*
X145934645Y-79779485D01*
X145936929Y-79784382D01*
X145940028Y-79788809D01*
X145940030Y-79788811D01*
X146069363Y-79973518D01*
X146069366Y-79973522D01*
X146072469Y-79977953D01*
X146239563Y-80145047D01*
X146243996Y-80148151D01*
X146244002Y-80148156D01*
X146425122Y-80274977D01*
X146463988Y-80319295D01*
X146477999Y-80376552D01*
X146463988Y-80433809D01*
X146425123Y-80478127D01*
X146244005Y-80604947D01*
X146239563Y-80608057D01*
X146235739Y-80611880D01*
X146235733Y-80611886D01*
X146076298Y-80771321D01*
X146076292Y-80771327D01*
X146072469Y-80775151D01*
X146069366Y-80779581D01*
X146069363Y-80779586D01*
X145940037Y-80964283D01*
X145940032Y-80964290D01*
X145936929Y-80968723D01*
X145934641Y-80973629D01*
X145934639Y-80973633D01*
X145839350Y-81177979D01*
X145839347Y-81177984D01*
X145837061Y-81182889D01*
X145835662Y-81188109D01*
X145835658Y-81188121D01*
X145777301Y-81405917D01*
X145777299Y-81405923D01*
X145775901Y-81411144D01*
X145755305Y-81646552D01*
X100243088Y-81646552D01*
X100244449Y-81630999D01*
X100223853Y-81395591D01*
X100162693Y-81167336D01*
X100062825Y-80953170D01*
X99927285Y-80759598D01*
X99760191Y-80592504D01*
X99755758Y-80589400D01*
X99755751Y-80589394D01*
X99574632Y-80462574D01*
X99535766Y-80418256D01*
X99521755Y-80360999D01*
X99535766Y-80303742D01*
X99574632Y-80259424D01*
X99755751Y-80132603D01*
X99755751Y-80132602D01*
X99760191Y-80129494D01*
X99927285Y-79962400D01*
X100062825Y-79768829D01*
X100162693Y-79554662D01*
X100223853Y-79326407D01*
X100244449Y-79090999D01*
X100223853Y-78855591D01*
X100162693Y-78627336D01*
X100062825Y-78413170D01*
X99927285Y-78219598D01*
X99760191Y-78052504D01*
X99755758Y-78049400D01*
X99755751Y-78049394D01*
X99574632Y-77922574D01*
X99535766Y-77878256D01*
X99521755Y-77820999D01*
X99535766Y-77763742D01*
X99574632Y-77719424D01*
X99755751Y-77592603D01*
X99755751Y-77592602D01*
X99760191Y-77589494D01*
X99927285Y-77422400D01*
X100062825Y-77228829D01*
X100162693Y-77014662D01*
X100223853Y-76786407D01*
X100244449Y-76550999D01*
X100223853Y-76315591D01*
X100162693Y-76087336D01*
X100062825Y-75873170D01*
X99927285Y-75679598D01*
X99760191Y-75512504D01*
X99755758Y-75509400D01*
X99755751Y-75509394D01*
X99574632Y-75382574D01*
X99535766Y-75338256D01*
X99521755Y-75280999D01*
X99535766Y-75223742D01*
X99574632Y-75179424D01*
X99755751Y-75052603D01*
X99755751Y-75052602D01*
X99760191Y-75049494D01*
X99927285Y-74882400D01*
X100062825Y-74688829D01*
X100162693Y-74474662D01*
X100223853Y-74246407D01*
X100244449Y-74010999D01*
X100223853Y-73775591D01*
X100162693Y-73547336D01*
X100062825Y-73333170D01*
X99927285Y-73139598D01*
X99760191Y-72972504D01*
X99755758Y-72969400D01*
X99755751Y-72969394D01*
X99574632Y-72842574D01*
X99535766Y-72798256D01*
X99521755Y-72740999D01*
X99535766Y-72683742D01*
X99574632Y-72639424D01*
X99755751Y-72512603D01*
X99755751Y-72512602D01*
X99760191Y-72509494D01*
X99927285Y-72342400D01*
X100062825Y-72148829D01*
X100162693Y-71934662D01*
X100223853Y-71706407D01*
X100244449Y-71470999D01*
X100223853Y-71235591D01*
X100162693Y-71007336D01*
X100062825Y-70793170D01*
X99927285Y-70599598D01*
X99760191Y-70432504D01*
X99755758Y-70429400D01*
X99755751Y-70429394D01*
X99574632Y-70302574D01*
X99535766Y-70258256D01*
X99521755Y-70200999D01*
X99535766Y-70143742D01*
X99574632Y-70099424D01*
X99755751Y-69972603D01*
X99755751Y-69972602D01*
X99760191Y-69969494D01*
X99927285Y-69802400D01*
X100062825Y-69608829D01*
X100162693Y-69394662D01*
X100223853Y-69166407D01*
X100244449Y-68930999D01*
X100223853Y-68695591D01*
X100162693Y-68467336D01*
X100062825Y-68253170D01*
X99927285Y-68059598D01*
X99760191Y-67892504D01*
X99755758Y-67889400D01*
X99755751Y-67889394D01*
X99574632Y-67762574D01*
X99535766Y-67718256D01*
X99521755Y-67660999D01*
X99535766Y-67603742D01*
X99574632Y-67559424D01*
X99755751Y-67432603D01*
X99755751Y-67432602D01*
X99760191Y-67429494D01*
X99927285Y-67262400D01*
X100062825Y-67068829D01*
X100162693Y-66854662D01*
X100223853Y-66626407D01*
X100244449Y-66390999D01*
X100223853Y-66155591D01*
X100162693Y-65927336D01*
X100062825Y-65713170D01*
X99927285Y-65519598D01*
X99760191Y-65352504D01*
X99755758Y-65349400D01*
X99755751Y-65349394D01*
X99574632Y-65222574D01*
X99535766Y-65178256D01*
X99521755Y-65120999D01*
X99535766Y-65063742D01*
X99574632Y-65019424D01*
X99755751Y-64892603D01*
X99755751Y-64892602D01*
X99760191Y-64889494D01*
X99927285Y-64722400D01*
X100062825Y-64528829D01*
X100094921Y-64460000D01*
X132023500Y-64460000D01*
X132023664Y-64462251D01*
X132023665Y-64462257D01*
X132028538Y-64528829D01*
X132038403Y-64663616D01*
X132039386Y-64668031D01*
X132039388Y-64668041D01*
X132096630Y-64925011D01*
X132096633Y-64925023D01*
X132097618Y-64929442D01*
X132099237Y-64933676D01*
X132099238Y-64933678D01*
X132148508Y-65062500D01*
X132194907Y-65183814D01*
X132197125Y-65187766D01*
X132325978Y-65417359D01*
X132325981Y-65417364D01*
X132328196Y-65421310D01*
X132494645Y-65636868D01*
X132497906Y-65640012D01*
X132687437Y-65822744D01*
X132687442Y-65822748D01*
X132690705Y-65825894D01*
X132912198Y-65984358D01*
X133154403Y-66108885D01*
X133412159Y-66196819D01*
X133679971Y-66246286D01*
X133952131Y-66256232D01*
X134222839Y-66226446D01*
X134486326Y-66157562D01*
X134736975Y-66051047D01*
X134969444Y-65909173D01*
X135178779Y-65734963D01*
X135360518Y-65532131D01*
X135510788Y-65304998D01*
X135626386Y-65058406D01*
X135704847Y-64797611D01*
X135744500Y-64528171D01*
X135744500Y-64460000D01*
X141623500Y-64460000D01*
X141623664Y-64462251D01*
X141623665Y-64462257D01*
X141628538Y-64528829D01*
X141638403Y-64663616D01*
X141639386Y-64668031D01*
X141639388Y-64668041D01*
X141696630Y-64925011D01*
X141696633Y-64925023D01*
X141697618Y-64929442D01*
X141699237Y-64933676D01*
X141699238Y-64933678D01*
X141748508Y-65062500D01*
X141794907Y-65183814D01*
X141797125Y-65187766D01*
X141925978Y-65417359D01*
X141925981Y-65417364D01*
X141928196Y-65421310D01*
X142094645Y-65636868D01*
X142097906Y-65640012D01*
X142287437Y-65822744D01*
X142287442Y-65822748D01*
X142290705Y-65825894D01*
X142512198Y-65984358D01*
X142754403Y-66108885D01*
X143012159Y-66196819D01*
X143279971Y-66246286D01*
X143552131Y-66256232D01*
X143822839Y-66226446D01*
X144086326Y-66157562D01*
X144336975Y-66051047D01*
X144569444Y-65909173D01*
X144778779Y-65734963D01*
X144960518Y-65532131D01*
X145110788Y-65304998D01*
X145226386Y-65058406D01*
X145304847Y-64797611D01*
X145344500Y-64528171D01*
X145344500Y-63804000D01*
X145329597Y-63600384D01*
X145300747Y-63470871D01*
X145271369Y-63338988D01*
X145271368Y-63338985D01*
X145270382Y-63334558D01*
X145173093Y-63080186D01*
X145039804Y-62842690D01*
X144873355Y-62627132D01*
X144841636Y-62596551D01*
X144680562Y-62441255D01*
X144680556Y-62441250D01*
X144677295Y-62438106D01*
X144455802Y-62279642D01*
X144427236Y-62264955D01*
X144217632Y-62157189D01*
X144217625Y-62157186D01*
X144213597Y-62155115D01*
X144209312Y-62153653D01*
X144209307Y-62153651D01*
X143960124Y-62068642D01*
X143960122Y-62068641D01*
X143955841Y-62067181D01*
X143933679Y-62063087D01*
X143692489Y-62018537D01*
X143692478Y-62018535D01*
X143688029Y-62017714D01*
X143683500Y-62017548D01*
X143683496Y-62017548D01*
X143420397Y-62007933D01*
X143420390Y-62007933D01*
X143415869Y-62007768D01*
X143411372Y-62008262D01*
X143411366Y-62008263D01*
X143149672Y-62037057D01*
X143149663Y-62037058D01*
X143145161Y-62037554D01*
X143140782Y-62038698D01*
X143140770Y-62038701D01*
X142886049Y-62105294D01*
X142886046Y-62105295D01*
X142881674Y-62106438D01*
X142877524Y-62108201D01*
X142877511Y-62108206D01*
X142635191Y-62211182D01*
X142635183Y-62211185D01*
X142631025Y-62212953D01*
X142627168Y-62215306D01*
X142627158Y-62215312D01*
X142402428Y-62352463D01*
X142402418Y-62352469D01*
X142398556Y-62354827D01*
X142395071Y-62357726D01*
X142395067Y-62357730D01*
X142192706Y-62526136D01*
X142192700Y-62526141D01*
X142189221Y-62529037D01*
X142186203Y-62532404D01*
X142186199Y-62532409D01*
X142010498Y-62728502D01*
X142010492Y-62728508D01*
X142007482Y-62731869D01*
X142004989Y-62735636D01*
X142004986Y-62735641D01*
X141859711Y-62955224D01*
X141859708Y-62955229D01*
X141857212Y-62959002D01*
X141855295Y-62963089D01*
X141855290Y-62963100D01*
X141743533Y-63201499D01*
X141743530Y-63201506D01*
X141741614Y-63205594D01*
X141740314Y-63209912D01*
X141740310Y-63209925D01*
X141664458Y-63462050D01*
X141663153Y-63466389D01*
X141662494Y-63470865D01*
X141662493Y-63470871D01*
X141624158Y-63731354D01*
X141624157Y-63731361D01*
X141623500Y-63735829D01*
X141623500Y-64460000D01*
X135744500Y-64460000D01*
X135744500Y-63804000D01*
X135729597Y-63600384D01*
X135700747Y-63470871D01*
X135671369Y-63338988D01*
X135671368Y-63338985D01*
X135670382Y-63334558D01*
X135573093Y-63080186D01*
X135439804Y-62842690D01*
X135273355Y-62627132D01*
X135241636Y-62596551D01*
X135080562Y-62441255D01*
X135080556Y-62441250D01*
X135077295Y-62438106D01*
X134855802Y-62279642D01*
X134827236Y-62264955D01*
X134617632Y-62157189D01*
X134617625Y-62157186D01*
X134613597Y-62155115D01*
X134609312Y-62153653D01*
X134609307Y-62153651D01*
X134360124Y-62068642D01*
X134360122Y-62068641D01*
X134355841Y-62067181D01*
X134333679Y-62063087D01*
X134092489Y-62018537D01*
X134092478Y-62018535D01*
X134088029Y-62017714D01*
X134083500Y-62017548D01*
X134083496Y-62017548D01*
X133820397Y-62007933D01*
X133820390Y-62007933D01*
X133815869Y-62007768D01*
X133811372Y-62008262D01*
X133811366Y-62008263D01*
X133549672Y-62037057D01*
X133549663Y-62037058D01*
X133545161Y-62037554D01*
X133540782Y-62038698D01*
X133540770Y-62038701D01*
X133286049Y-62105294D01*
X133286046Y-62105295D01*
X133281674Y-62106438D01*
X133277524Y-62108201D01*
X133277511Y-62108206D01*
X133035191Y-62211182D01*
X133035183Y-62211185D01*
X133031025Y-62212953D01*
X133027168Y-62215306D01*
X133027158Y-62215312D01*
X132802428Y-62352463D01*
X132802418Y-62352469D01*
X132798556Y-62354827D01*
X132795071Y-62357726D01*
X132795067Y-62357730D01*
X132592706Y-62526136D01*
X132592700Y-62526141D01*
X132589221Y-62529037D01*
X132586203Y-62532404D01*
X132586199Y-62532409D01*
X132410498Y-62728502D01*
X132410492Y-62728508D01*
X132407482Y-62731869D01*
X132404989Y-62735636D01*
X132404986Y-62735641D01*
X132259711Y-62955224D01*
X132259708Y-62955229D01*
X132257212Y-62959002D01*
X132255295Y-62963089D01*
X132255290Y-62963100D01*
X132143533Y-63201499D01*
X132143530Y-63201506D01*
X132141614Y-63205594D01*
X132140314Y-63209912D01*
X132140310Y-63209925D01*
X132064458Y-63462050D01*
X132063153Y-63466389D01*
X132062494Y-63470865D01*
X132062493Y-63470871D01*
X132024158Y-63731354D01*
X132024157Y-63731361D01*
X132023500Y-63735829D01*
X132023500Y-64460000D01*
X100094921Y-64460000D01*
X100162693Y-64314662D01*
X100223853Y-64086407D01*
X100244449Y-63850999D01*
X100223853Y-63615591D01*
X100166509Y-63401578D01*
X102913500Y-63401578D01*
X102913501Y-63404872D01*
X102913853Y-63408150D01*
X102913854Y-63408161D01*
X102919079Y-63456768D01*
X102919080Y-63456773D01*
X102919909Y-63464483D01*
X102922619Y-63471749D01*
X102922620Y-63471753D01*
X102956217Y-63561831D01*
X102970204Y-63599331D01*
X102975518Y-63606430D01*
X102975519Y-63606431D01*
X102985299Y-63619496D01*
X103056454Y-63714546D01*
X103171669Y-63800796D01*
X103306517Y-63851091D01*
X103366127Y-63857500D01*
X105461872Y-63857499D01*
X105521483Y-63851091D01*
X105656331Y-63800796D01*
X105771546Y-63714546D01*
X105857796Y-63599331D01*
X105864913Y-63580248D01*
X111149749Y-63580248D01*
X111157855Y-63591439D01*
X111186717Y-63613903D01*
X111195279Y-63619496D01*
X111404885Y-63732929D01*
X111414239Y-63737032D01*
X111639656Y-63814417D01*
X111649568Y-63816928D01*
X111884643Y-63856155D01*
X111894839Y-63857000D01*
X112133161Y-63857000D01*
X112143356Y-63856155D01*
X112378431Y-63816928D01*
X112388343Y-63814417D01*
X112613760Y-63737032D01*
X112623114Y-63732929D01*
X112832723Y-63619495D01*
X112841281Y-63613903D01*
X112870146Y-63591437D01*
X112878250Y-63580250D01*
X112871589Y-63568142D01*
X112025542Y-62722095D01*
X112014000Y-62715431D01*
X112002457Y-62722095D01*
X111156408Y-63568143D01*
X111149749Y-63580248D01*
X105864913Y-63580248D01*
X105908091Y-63464483D01*
X105914500Y-63404873D01*
X105914500Y-62362117D01*
X110509283Y-62362117D01*
X110528962Y-62599618D01*
X110530646Y-62609712D01*
X110589153Y-62840747D01*
X110592472Y-62850414D01*
X110688208Y-63068673D01*
X110693070Y-63077656D01*
X110782999Y-63215304D01*
X110790963Y-63223024D01*
X110800345Y-63217100D01*
X111648904Y-62368542D01*
X111655568Y-62357000D01*
X112372431Y-62357000D01*
X112379095Y-62368542D01*
X113227653Y-63217100D01*
X113237034Y-63223024D01*
X113245002Y-63215299D01*
X113334924Y-63077664D01*
X113339792Y-63068669D01*
X113435527Y-62850414D01*
X113438846Y-62840747D01*
X113497353Y-62609712D01*
X113499037Y-62599618D01*
X113518717Y-62362117D01*
X113518717Y-62351883D01*
X113499037Y-62114381D01*
X113497353Y-62104287D01*
X113438846Y-61873252D01*
X113435527Y-61863585D01*
X113339792Y-61645330D01*
X113334924Y-61636335D01*
X113245002Y-61498699D01*
X113237034Y-61490974D01*
X113227653Y-61496898D01*
X112379095Y-62345457D01*
X112372431Y-62357000D01*
X111655568Y-62357000D01*
X111648904Y-62345457D01*
X110800345Y-61496898D01*
X110790964Y-61490974D01*
X110782997Y-61498699D01*
X110693072Y-61636338D01*
X110688207Y-61645328D01*
X110592472Y-61863585D01*
X110589153Y-61873252D01*
X110530646Y-62104287D01*
X110528962Y-62114381D01*
X110509283Y-62351883D01*
X110509283Y-62362117D01*
X105914500Y-62362117D01*
X105914499Y-61309128D01*
X105908091Y-61249517D01*
X105864912Y-61133749D01*
X111149748Y-61133749D01*
X111156408Y-61145855D01*
X112002457Y-61991904D01*
X112013999Y-61998568D01*
X112025542Y-61991904D01*
X112871590Y-61145855D01*
X112878250Y-61133749D01*
X112870143Y-61122559D01*
X112841286Y-61100099D01*
X112832719Y-61094503D01*
X112623114Y-60981070D01*
X112613760Y-60976967D01*
X112388343Y-60899582D01*
X112378431Y-60897071D01*
X112143356Y-60857844D01*
X112133161Y-60857000D01*
X111894839Y-60857000D01*
X111884643Y-60857844D01*
X111649568Y-60897071D01*
X111639656Y-60899582D01*
X111414239Y-60976967D01*
X111404885Y-60981070D01*
X111195276Y-61094504D01*
X111186717Y-61100096D01*
X111157854Y-61122560D01*
X111149748Y-61133749D01*
X105864912Y-61133749D01*
X105857796Y-61114669D01*
X105771546Y-60999454D01*
X105656331Y-60913204D01*
X105521483Y-60862909D01*
X105513770Y-60862079D01*
X105513767Y-60862079D01*
X105465180Y-60856855D01*
X105465169Y-60856854D01*
X105461873Y-60856500D01*
X105458550Y-60856500D01*
X103369439Y-60856500D01*
X103369420Y-60856500D01*
X103366128Y-60856501D01*
X103362850Y-60856853D01*
X103362838Y-60856854D01*
X103314231Y-60862079D01*
X103314225Y-60862080D01*
X103306517Y-60862909D01*
X103299252Y-60865618D01*
X103299246Y-60865620D01*
X103179980Y-60910104D01*
X103179978Y-60910104D01*
X103171669Y-60913204D01*
X103164572Y-60918516D01*
X103164568Y-60918519D01*
X103063550Y-60994141D01*
X103063546Y-60994144D01*
X103056454Y-60999454D01*
X103051144Y-61006546D01*
X103051141Y-61006550D01*
X102975519Y-61107568D01*
X102975516Y-61107572D01*
X102970204Y-61114669D01*
X102967104Y-61122978D01*
X102967104Y-61122980D01*
X102922620Y-61242247D01*
X102922619Y-61242250D01*
X102919909Y-61249517D01*
X102919079Y-61257227D01*
X102919079Y-61257232D01*
X102913855Y-61305819D01*
X102913854Y-61305831D01*
X102913500Y-61309127D01*
X102913500Y-61312448D01*
X102913500Y-61312449D01*
X102913500Y-63401560D01*
X102913500Y-63401578D01*
X100166509Y-63401578D01*
X100162693Y-63387336D01*
X100062825Y-63173170D01*
X99927285Y-62979598D01*
X99760191Y-62812504D01*
X99755760Y-62809401D01*
X99755756Y-62809398D01*
X99574631Y-62682573D01*
X99535766Y-62638255D01*
X99521755Y-62580998D01*
X99535766Y-62523741D01*
X99574629Y-62479425D01*
X99760191Y-62349494D01*
X99927285Y-62182400D01*
X100062825Y-61988829D01*
X100162693Y-61774662D01*
X100223853Y-61546407D01*
X100244449Y-61310999D01*
X100223853Y-61075591D01*
X100165509Y-60857844D01*
X100164095Y-60852568D01*
X100164094Y-60852566D01*
X100162693Y-60847336D01*
X100062825Y-60633170D01*
X99927285Y-60439598D01*
X99760191Y-60272504D01*
X99755758Y-60269400D01*
X99755751Y-60269394D01*
X99574632Y-60142574D01*
X99535766Y-60098256D01*
X99521755Y-60040999D01*
X99535766Y-59983742D01*
X99574632Y-59939424D01*
X99755751Y-59812603D01*
X99755751Y-59812602D01*
X99760191Y-59809494D01*
X99927285Y-59642400D01*
X100062825Y-59448829D01*
X100162693Y-59234662D01*
X100223853Y-59006407D01*
X100244449Y-58770999D01*
X100223853Y-58535591D01*
X100162693Y-58307336D01*
X100062825Y-58093170D01*
X99927285Y-57899598D01*
X99811678Y-57783991D01*
X135391006Y-57783991D01*
X135399113Y-57795181D01*
X135411602Y-57804901D01*
X135420151Y-57810487D01*
X135615194Y-57916039D01*
X135624547Y-57920141D01*
X135834290Y-57992146D01*
X135844199Y-57994655D01*
X136062929Y-58031155D01*
X136073127Y-58032000D01*
X136294873Y-58032000D01*
X136305070Y-58031155D01*
X136523800Y-57994655D01*
X136533709Y-57992146D01*
X136743452Y-57920141D01*
X136752805Y-57916039D01*
X136947845Y-57810488D01*
X136956397Y-57804901D01*
X136968888Y-57795179D01*
X136976992Y-57783992D01*
X136970331Y-57771884D01*
X136195542Y-56997095D01*
X136184000Y-56990431D01*
X136172457Y-56997095D01*
X135397666Y-57771885D01*
X135391006Y-57783991D01*
X99811678Y-57783991D01*
X99760191Y-57732504D01*
X99755758Y-57729400D01*
X99755751Y-57729394D01*
X99574632Y-57602574D01*
X99535766Y-57558256D01*
X99521755Y-57500999D01*
X99535766Y-57443742D01*
X99574632Y-57399424D01*
X99755751Y-57272603D01*
X99755751Y-57272602D01*
X99760191Y-57269494D01*
X99927285Y-57102400D01*
X100062825Y-56908829D01*
X100162693Y-56694662D01*
X100178112Y-56637117D01*
X134779626Y-56637117D01*
X134797937Y-56858102D01*
X134799621Y-56868196D01*
X134854059Y-57083166D01*
X134857378Y-57092833D01*
X134946456Y-57295913D01*
X134951322Y-57304903D01*
X135025245Y-57418051D01*
X135033212Y-57425776D01*
X135042592Y-57419853D01*
X135818904Y-56643542D01*
X135825568Y-56632000D01*
X135825567Y-56631999D01*
X136542431Y-56631999D01*
X136549095Y-56643542D01*
X137325405Y-57419852D01*
X137334786Y-57425776D01*
X137346199Y-57414712D01*
X137392399Y-57386407D01*
X137446258Y-57380504D01*
X137497493Y-57398130D01*
X137536321Y-57435919D01*
X137572215Y-57490860D01*
X137572222Y-57490869D01*
X137575021Y-57495153D01*
X137732216Y-57665913D01*
X137915374Y-57808470D01*
X138119497Y-57918936D01*
X138339019Y-57994298D01*
X138567951Y-58032500D01*
X138794916Y-58032500D01*
X138800049Y-58032500D01*
X139028981Y-57994298D01*
X139248503Y-57918936D01*
X139452626Y-57808470D01*
X139629564Y-57670753D01*
X139681991Y-57646901D01*
X139739540Y-57649308D01*
X139789793Y-57677457D01*
X139821906Y-57725273D01*
X139840204Y-57774331D01*
X139926454Y-57889546D01*
X140041669Y-57975796D01*
X140176517Y-58026091D01*
X140236127Y-58032500D01*
X142131872Y-58032499D01*
X142191483Y-58026091D01*
X142326331Y-57975796D01*
X142441546Y-57889546D01*
X142527796Y-57774331D01*
X142578091Y-57639483D01*
X142584500Y-57579873D01*
X142584499Y-55684128D01*
X142578091Y-55624517D01*
X142527796Y-55489669D01*
X142441546Y-55374454D01*
X142427625Y-55364033D01*
X142333431Y-55293519D01*
X142333430Y-55293518D01*
X142326331Y-55288204D01*
X142191483Y-55237909D01*
X142183770Y-55237079D01*
X142183767Y-55237079D01*
X142135180Y-55231855D01*
X142135169Y-55231854D01*
X142131873Y-55231500D01*
X142128550Y-55231500D01*
X140239439Y-55231500D01*
X140239420Y-55231500D01*
X140236128Y-55231501D01*
X140232850Y-55231853D01*
X140232838Y-55231854D01*
X140184231Y-55237079D01*
X140184225Y-55237080D01*
X140176517Y-55237909D01*
X140169252Y-55240618D01*
X140169246Y-55240620D01*
X140049980Y-55285104D01*
X140049978Y-55285104D01*
X140041669Y-55288204D01*
X140034572Y-55293516D01*
X140034568Y-55293519D01*
X139933550Y-55369141D01*
X139933546Y-55369144D01*
X139926454Y-55374454D01*
X139921144Y-55381546D01*
X139921141Y-55381550D01*
X139845519Y-55482568D01*
X139845516Y-55482572D01*
X139840204Y-55489669D01*
X139837106Y-55497974D01*
X139837101Y-55497984D01*
X139821906Y-55538725D01*
X139789793Y-55586542D01*
X139739540Y-55614691D01*
X139681991Y-55617098D01*
X139629563Y-55593245D01*
X139456672Y-55458679D01*
X139456671Y-55458678D01*
X139452626Y-55455530D01*
X139398497Y-55426237D01*
X139253007Y-55347501D01*
X139253002Y-55347499D01*
X139248503Y-55345064D01*
X139243657Y-55343400D01*
X139243654Y-55343399D01*
X139033834Y-55271368D01*
X139033833Y-55271367D01*
X139028981Y-55269702D01*
X139023931Y-55268859D01*
X139023922Y-55268857D01*
X138805111Y-55232344D01*
X138805102Y-55232343D01*
X138800049Y-55231500D01*
X138567951Y-55231500D01*
X138562898Y-55232343D01*
X138562888Y-55232344D01*
X138344077Y-55268857D01*
X138344065Y-55268859D01*
X138339019Y-55269702D01*
X138334169Y-55271366D01*
X138334165Y-55271368D01*
X138124345Y-55343399D01*
X138124337Y-55343402D01*
X138119497Y-55345064D01*
X138115001Y-55347496D01*
X138114992Y-55347501D01*
X137919882Y-55453090D01*
X137919878Y-55453092D01*
X137915374Y-55455530D01*
X137911334Y-55458674D01*
X137911327Y-55458679D01*
X137736263Y-55594936D01*
X137736255Y-55594943D01*
X137732216Y-55598087D01*
X137728746Y-55601855D01*
X137728742Y-55601860D01*
X137578491Y-55765077D01*
X137578488Y-55765080D01*
X137575021Y-55768847D01*
X137572224Y-55773127D01*
X137572217Y-55773137D01*
X137536320Y-55828081D01*
X137497492Y-55865869D01*
X137446258Y-55883494D01*
X137392400Y-55877591D01*
X137346200Y-55849288D01*
X137334786Y-55838222D01*
X137325405Y-55844146D01*
X136549095Y-56620457D01*
X136542431Y-56631999D01*
X135825567Y-56631999D01*
X135818904Y-56620457D01*
X135042592Y-55844145D01*
X135033212Y-55838222D01*
X135025245Y-55845946D01*
X134951322Y-55959096D01*
X134946456Y-55968086D01*
X134857378Y-56171166D01*
X134854059Y-56180833D01*
X134799621Y-56395803D01*
X134797937Y-56405897D01*
X134779626Y-56626883D01*
X134779626Y-56637117D01*
X100178112Y-56637117D01*
X100223853Y-56466407D01*
X100244449Y-56230999D01*
X100223853Y-55995591D01*
X100162693Y-55767336D01*
X100062825Y-55553170D01*
X100011595Y-55480006D01*
X135391007Y-55480006D01*
X135397667Y-55492114D01*
X136172457Y-56266904D01*
X136184000Y-56273568D01*
X136195542Y-56266904D01*
X136970332Y-55492113D01*
X136976992Y-55480007D01*
X136968886Y-55468818D01*
X136956394Y-55459096D01*
X136947847Y-55453512D01*
X136752805Y-55347960D01*
X136743452Y-55343858D01*
X136533709Y-55271853D01*
X136523800Y-55269344D01*
X136305070Y-55232844D01*
X136294873Y-55232000D01*
X136073127Y-55232000D01*
X136062929Y-55232844D01*
X135844199Y-55269344D01*
X135834290Y-55271853D01*
X135624547Y-55343858D01*
X135615194Y-55347960D01*
X135420156Y-55453510D01*
X135411600Y-55459100D01*
X135399112Y-55468818D01*
X135391007Y-55480006D01*
X100011595Y-55480006D01*
X99927285Y-55359598D01*
X99760191Y-55192504D01*
X99755758Y-55189400D01*
X99755751Y-55189394D01*
X99574632Y-55062574D01*
X99535766Y-55018256D01*
X99521755Y-54960999D01*
X99535766Y-54903742D01*
X99574632Y-54859424D01*
X99755751Y-54732603D01*
X99755751Y-54732602D01*
X99760191Y-54729494D01*
X99927285Y-54562400D01*
X100062825Y-54368829D01*
X100162693Y-54154662D01*
X100223853Y-53926407D01*
X100244449Y-53690999D01*
X100223853Y-53455591D01*
X100219736Y-53440226D01*
X145760964Y-53440226D01*
X145764414Y-53453101D01*
X145777290Y-53456552D01*
X146844638Y-53456552D01*
X146857513Y-53453101D01*
X146860964Y-53440226D01*
X146860964Y-52372878D01*
X146857513Y-52360002D01*
X146844638Y-52356552D01*
X146216446Y-52356552D01*
X146209849Y-52356905D01*
X146161296Y-52362125D01*
X146146322Y-52365663D01*
X146027186Y-52410099D01*
X146011774Y-52418514D01*
X145910871Y-52494050D01*
X145898462Y-52506459D01*
X145822926Y-52607362D01*
X145814511Y-52622774D01*
X145770075Y-52741910D01*
X145766537Y-52756884D01*
X145761317Y-52805437D01*
X145760964Y-52812034D01*
X145760964Y-53440226D01*
X100219736Y-53440226D01*
X100162693Y-53227336D01*
X100062825Y-53013170D01*
X99927285Y-52819598D01*
X99760191Y-52652504D01*
X99755760Y-52649401D01*
X99755756Y-52649398D01*
X99571049Y-52520065D01*
X99571047Y-52520063D01*
X99566620Y-52516964D01*
X99561723Y-52514680D01*
X99561717Y-52514677D01*
X99357362Y-52419385D01*
X99357360Y-52419384D01*
X99352453Y-52417096D01*
X99347228Y-52415696D01*
X99347220Y-52415693D01*
X99129424Y-52357336D01*
X99129420Y-52357335D01*
X99124198Y-52355936D01*
X99118810Y-52355464D01*
X99118807Y-52355464D01*
X98894185Y-52335812D01*
X98888790Y-52335340D01*
X98883395Y-52335812D01*
X98658772Y-52355464D01*
X98658767Y-52355464D01*
X98653382Y-52355936D01*
X98648161Y-52357334D01*
X98648155Y-52357336D01*
X98430359Y-52415693D01*
X98430347Y-52415697D01*
X98425127Y-52417096D01*
X98420222Y-52419382D01*
X98420217Y-52419385D01*
X98215871Y-52514674D01*
X98215867Y-52514676D01*
X98210961Y-52516964D01*
X98206528Y-52520067D01*
X98206521Y-52520072D01*
X98021824Y-52649398D01*
X98021819Y-52649401D01*
X98017389Y-52652504D01*
X98013565Y-52656327D01*
X98013565Y-52656328D01*
X97895075Y-52774818D01*
X97842328Y-52806113D01*
X97781036Y-52808302D01*
X97726191Y-52780849D01*
X97691212Y-52730470D01*
X97645241Y-52607219D01*
X97636827Y-52591809D01*
X97561291Y-52490906D01*
X97548882Y-52478497D01*
X97447979Y-52402961D01*
X97432567Y-52394546D01*
X97313431Y-52350110D01*
X97298457Y-52346572D01*
X97249904Y-52341352D01*
X97243308Y-52340999D01*
X96615116Y-52340999D01*
X96602240Y-52344449D01*
X96598790Y-52357325D01*
X96598790Y-53816999D01*
X96582177Y-53878999D01*
X96536790Y-53924386D01*
X96474790Y-53940999D01*
X95015116Y-53940999D01*
X95002240Y-53944449D01*
X94998790Y-53957325D01*
X94998790Y-54585517D01*
X94999143Y-54592113D01*
X95004363Y-54640666D01*
X95007901Y-54655640D01*
X95052337Y-54774776D01*
X95060752Y-54790188D01*
X95136288Y-54891091D01*
X95148697Y-54903500D01*
X95249600Y-54979036D01*
X95265010Y-54987450D01*
X95388261Y-55033421D01*
X95438640Y-55068400D01*
X95466093Y-55123245D01*
X95463904Y-55184537D01*
X95432609Y-55237284D01*
X95310295Y-55359598D01*
X95307192Y-55364028D01*
X95307189Y-55364033D01*
X95177863Y-55548730D01*
X95177858Y-55548737D01*
X95174755Y-55553170D01*
X95172467Y-55558076D01*
X95172465Y-55558080D01*
X95077176Y-55762426D01*
X95077173Y-55762431D01*
X95074887Y-55767336D01*
X95073488Y-55772556D01*
X95073484Y-55772568D01*
X95015127Y-55990364D01*
X95015125Y-55990370D01*
X95013727Y-55995591D01*
X95013255Y-56000976D01*
X95013255Y-56000981D01*
X94998366Y-56171166D01*
X94993131Y-56230999D01*
X95013727Y-56466407D01*
X95015126Y-56471629D01*
X95015127Y-56471633D01*
X95073484Y-56689429D01*
X95073487Y-56689437D01*
X95074887Y-56694662D01*
X95077175Y-56699569D01*
X95077176Y-56699571D01*
X95172468Y-56903926D01*
X95172471Y-56903932D01*
X95174755Y-56908829D01*
X95177854Y-56913256D01*
X95177856Y-56913258D01*
X95307189Y-57097965D01*
X95307192Y-57097969D01*
X95310295Y-57102400D01*
X95477389Y-57269494D01*
X95481822Y-57272598D01*
X95481828Y-57272603D01*
X95662948Y-57399424D01*
X95701814Y-57443742D01*
X95715825Y-57500999D01*
X95701814Y-57558256D01*
X95662949Y-57602574D01*
X95481831Y-57729394D01*
X95477389Y-57732504D01*
X95473565Y-57736327D01*
X95473559Y-57736333D01*
X95314124Y-57895768D01*
X95314118Y-57895774D01*
X95310295Y-57899598D01*
X95307192Y-57904028D01*
X95307189Y-57904033D01*
X95177863Y-58088730D01*
X95177858Y-58088737D01*
X95174755Y-58093170D01*
X95172467Y-58098076D01*
X95172465Y-58098080D01*
X95077176Y-58302426D01*
X95077173Y-58302431D01*
X95074887Y-58307336D01*
X95073488Y-58312556D01*
X95073484Y-58312568D01*
X95015127Y-58530364D01*
X95015125Y-58530370D01*
X95013727Y-58535591D01*
X95013255Y-58540976D01*
X95013255Y-58540981D01*
X94993603Y-58765604D01*
X94993131Y-58770999D01*
X95013727Y-59006407D01*
X95015126Y-59011629D01*
X95015127Y-59011633D01*
X95073484Y-59229429D01*
X95073487Y-59229437D01*
X95074887Y-59234662D01*
X95077175Y-59239569D01*
X95077176Y-59239571D01*
X95172468Y-59443926D01*
X95172471Y-59443932D01*
X95174755Y-59448829D01*
X95177854Y-59453256D01*
X95177856Y-59453258D01*
X95307189Y-59637965D01*
X95307192Y-59637969D01*
X95310295Y-59642400D01*
X95477389Y-59809494D01*
X95481822Y-59812598D01*
X95481828Y-59812603D01*
X95662948Y-59939424D01*
X95701814Y-59983742D01*
X95715825Y-60040999D01*
X95701814Y-60098256D01*
X95662949Y-60142574D01*
X95481831Y-60269394D01*
X95477389Y-60272504D01*
X95473565Y-60276327D01*
X95473559Y-60276333D01*
X95314124Y-60435768D01*
X95314118Y-60435774D01*
X95310295Y-60439598D01*
X95307192Y-60444028D01*
X95307189Y-60444033D01*
X95177863Y-60628730D01*
X95177858Y-60628737D01*
X95174755Y-60633170D01*
X95172467Y-60638076D01*
X95172465Y-60638080D01*
X95077176Y-60842426D01*
X95077173Y-60842431D01*
X95074887Y-60847336D01*
X95073488Y-60852556D01*
X95073484Y-60852568D01*
X95015127Y-61070364D01*
X95015125Y-61070370D01*
X95013727Y-61075591D01*
X95013255Y-61080976D01*
X95013255Y-61080981D01*
X94999146Y-61242246D01*
X94993131Y-61310999D01*
X95013727Y-61546407D01*
X95015126Y-61551629D01*
X95015127Y-61551633D01*
X95073484Y-61769429D01*
X95073487Y-61769437D01*
X95074887Y-61774662D01*
X95077175Y-61779569D01*
X95077176Y-61779571D01*
X95172468Y-61983926D01*
X95172471Y-61983932D01*
X95174755Y-61988829D01*
X95177854Y-61993256D01*
X95177856Y-61993258D01*
X95307189Y-62177965D01*
X95307192Y-62177969D01*
X95310295Y-62182400D01*
X95477389Y-62349494D01*
X95481822Y-62352598D01*
X95481828Y-62352603D01*
X95662948Y-62479424D01*
X95701814Y-62523742D01*
X95715825Y-62580999D01*
X95701814Y-62638256D01*
X95662950Y-62682573D01*
X95477389Y-62812504D01*
X95473565Y-62816327D01*
X95473559Y-62816333D01*
X95314124Y-62975768D01*
X95314118Y-62975774D01*
X95310295Y-62979598D01*
X95307192Y-62984028D01*
X95307189Y-62984033D01*
X95177863Y-63168730D01*
X95177858Y-63168737D01*
X95174755Y-63173170D01*
X95172467Y-63178076D01*
X95172465Y-63178080D01*
X95077176Y-63382426D01*
X95077173Y-63382431D01*
X95074887Y-63387336D01*
X95073488Y-63392556D01*
X95073484Y-63392568D01*
X95015127Y-63610364D01*
X95015125Y-63610370D01*
X95013727Y-63615591D01*
X95013255Y-63620976D01*
X95013255Y-63620981D01*
X94997252Y-63803895D01*
X94993131Y-63850999D01*
X95013727Y-64086407D01*
X95015126Y-64091629D01*
X95015127Y-64091633D01*
X95073484Y-64309429D01*
X95073487Y-64309437D01*
X95074887Y-64314662D01*
X95077175Y-64319569D01*
X95077176Y-64319571D01*
X95172468Y-64523926D01*
X95172471Y-64523932D01*
X95174755Y-64528829D01*
X95177854Y-64533256D01*
X95177856Y-64533258D01*
X95307189Y-64717965D01*
X95307192Y-64717969D01*
X95310295Y-64722400D01*
X95477389Y-64889494D01*
X95481822Y-64892598D01*
X95481828Y-64892603D01*
X95662948Y-65019424D01*
X95701814Y-65063742D01*
X95715825Y-65120999D01*
X95701814Y-65178256D01*
X95662949Y-65222574D01*
X95481831Y-65349394D01*
X95477389Y-65352504D01*
X95473565Y-65356327D01*
X95473559Y-65356333D01*
X95314124Y-65515768D01*
X95314118Y-65515774D01*
X95310295Y-65519598D01*
X95307192Y-65524028D01*
X95307189Y-65524033D01*
X95177863Y-65708730D01*
X95177858Y-65708737D01*
X95174755Y-65713170D01*
X95172467Y-65718076D01*
X95172465Y-65718080D01*
X95077176Y-65922426D01*
X95077173Y-65922431D01*
X95074887Y-65927336D01*
X95073488Y-65932556D01*
X95073484Y-65932568D01*
X95015127Y-66150364D01*
X95015125Y-66150370D01*
X95013727Y-66155591D01*
X95013255Y-66160976D01*
X95013255Y-66160981D01*
X95004965Y-66255736D01*
X94993131Y-66390999D01*
X95013727Y-66626407D01*
X95015126Y-66631629D01*
X95015127Y-66631633D01*
X95073484Y-66849429D01*
X95073487Y-66849437D01*
X95074887Y-66854662D01*
X95077175Y-66859569D01*
X95077176Y-66859571D01*
X95172468Y-67063926D01*
X95172471Y-67063932D01*
X95174755Y-67068829D01*
X95177854Y-67073256D01*
X95177856Y-67073258D01*
X95307189Y-67257965D01*
X95307192Y-67257969D01*
X95310295Y-67262400D01*
X95477389Y-67429494D01*
X95481822Y-67432598D01*
X95481828Y-67432603D01*
X95662948Y-67559424D01*
X95701814Y-67603742D01*
X95715825Y-67660999D01*
X95701814Y-67718256D01*
X95662949Y-67762574D01*
X95481831Y-67889394D01*
X95477389Y-67892504D01*
X95473565Y-67896327D01*
X95473559Y-67896333D01*
X95314124Y-68055768D01*
X95314118Y-68055774D01*
X95310295Y-68059598D01*
X95307192Y-68064028D01*
X95307189Y-68064033D01*
X95177863Y-68248730D01*
X95177858Y-68248737D01*
X95174755Y-68253170D01*
X95172467Y-68258076D01*
X95172465Y-68258080D01*
X95077176Y-68462426D01*
X95077173Y-68462431D01*
X95074887Y-68467336D01*
X95073488Y-68472556D01*
X95073484Y-68472568D01*
X95015127Y-68690364D01*
X95015125Y-68690370D01*
X95013727Y-68695591D01*
X95013255Y-68700976D01*
X95013255Y-68700981D01*
X94993603Y-68925604D01*
X94993131Y-68930999D01*
X95013727Y-69166407D01*
X95015126Y-69171629D01*
X95015127Y-69171633D01*
X95073484Y-69389429D01*
X95073487Y-69389437D01*
X95074887Y-69394662D01*
X95077175Y-69399569D01*
X95077176Y-69399571D01*
X95172468Y-69603926D01*
X95172471Y-69603932D01*
X95174755Y-69608829D01*
X95177854Y-69613256D01*
X95177856Y-69613258D01*
X95307189Y-69797965D01*
X95307192Y-69797969D01*
X95310295Y-69802400D01*
X95477389Y-69969494D01*
X95481822Y-69972598D01*
X95481828Y-69972603D01*
X95662948Y-70099424D01*
X95701814Y-70143742D01*
X95715825Y-70200999D01*
X95701814Y-70258256D01*
X95662949Y-70302574D01*
X95481831Y-70429394D01*
X95477389Y-70432504D01*
X95473565Y-70436327D01*
X95473559Y-70436333D01*
X95314124Y-70595768D01*
X95314118Y-70595774D01*
X95310295Y-70599598D01*
X95307192Y-70604028D01*
X95307189Y-70604033D01*
X95177863Y-70788730D01*
X95177858Y-70788737D01*
X95174755Y-70793170D01*
X95172467Y-70798076D01*
X95172465Y-70798080D01*
X95077176Y-71002426D01*
X95077173Y-71002431D01*
X95074887Y-71007336D01*
X95073488Y-71012556D01*
X95073484Y-71012568D01*
X95015127Y-71230364D01*
X95015125Y-71230370D01*
X95013727Y-71235591D01*
X95013255Y-71240976D01*
X95013255Y-71240981D01*
X94993603Y-71465604D01*
X94993131Y-71470999D01*
X95013727Y-71706407D01*
X95015126Y-71711629D01*
X95015127Y-71711633D01*
X95073484Y-71929429D01*
X95073487Y-71929437D01*
X95074887Y-71934662D01*
X95077175Y-71939569D01*
X95077176Y-71939571D01*
X95172468Y-72143926D01*
X95172471Y-72143932D01*
X95174755Y-72148829D01*
X95177854Y-72153256D01*
X95177856Y-72153258D01*
X95307189Y-72337965D01*
X95307192Y-72337969D01*
X95310295Y-72342400D01*
X95477389Y-72509494D01*
X95481822Y-72512598D01*
X95481828Y-72512603D01*
X95662948Y-72639424D01*
X95701814Y-72683742D01*
X95715825Y-72740999D01*
X95701814Y-72798256D01*
X95662949Y-72842574D01*
X95481831Y-72969394D01*
X95477389Y-72972504D01*
X95473565Y-72976327D01*
X95473559Y-72976333D01*
X95314124Y-73135768D01*
X95314118Y-73135774D01*
X95310295Y-73139598D01*
X95307192Y-73144028D01*
X95307189Y-73144033D01*
X95177863Y-73328730D01*
X95177858Y-73328737D01*
X95174755Y-73333170D01*
X95172467Y-73338076D01*
X95172465Y-73338080D01*
X95077176Y-73542426D01*
X95077173Y-73542431D01*
X95074887Y-73547336D01*
X95073488Y-73552556D01*
X95073484Y-73552568D01*
X95015127Y-73770364D01*
X95015125Y-73770370D01*
X95013727Y-73775591D01*
X95013255Y-73780976D01*
X95013255Y-73780981D01*
X94993603Y-74005604D01*
X94993131Y-74010999D01*
X95013727Y-74246407D01*
X95015126Y-74251629D01*
X95015127Y-74251633D01*
X95073484Y-74469429D01*
X95073487Y-74469437D01*
X95074887Y-74474662D01*
X95077175Y-74479569D01*
X95077176Y-74479571D01*
X95172468Y-74683926D01*
X95172471Y-74683932D01*
X95174755Y-74688829D01*
X95177854Y-74693256D01*
X95177856Y-74693258D01*
X95307189Y-74877965D01*
X95307192Y-74877969D01*
X95310295Y-74882400D01*
X95477389Y-75049494D01*
X95481822Y-75052598D01*
X95481828Y-75052603D01*
X95662948Y-75179424D01*
X95701814Y-75223742D01*
X95715825Y-75280999D01*
X95701814Y-75338256D01*
X95662949Y-75382574D01*
X95481831Y-75509394D01*
X95477389Y-75512504D01*
X95473565Y-75516327D01*
X95473559Y-75516333D01*
X95314124Y-75675768D01*
X95314118Y-75675774D01*
X95310295Y-75679598D01*
X95307192Y-75684028D01*
X95307189Y-75684033D01*
X95177863Y-75868730D01*
X95177858Y-75868737D01*
X95174755Y-75873170D01*
X95172467Y-75878076D01*
X95172465Y-75878080D01*
X95077176Y-76082426D01*
X95077173Y-76082431D01*
X95074887Y-76087336D01*
X95073488Y-76092556D01*
X95073484Y-76092568D01*
X95015127Y-76310364D01*
X95015125Y-76310370D01*
X95013727Y-76315591D01*
X95013255Y-76320976D01*
X95013255Y-76320981D01*
X94993603Y-76545604D01*
X94993131Y-76550999D01*
X95013727Y-76786407D01*
X95015126Y-76791629D01*
X95015127Y-76791633D01*
X95073484Y-77009429D01*
X95073487Y-77009437D01*
X95074887Y-77014662D01*
X95077175Y-77019569D01*
X95077176Y-77019571D01*
X95172468Y-77223926D01*
X95172471Y-77223932D01*
X95174755Y-77228829D01*
X95177854Y-77233256D01*
X95177856Y-77233258D01*
X95307189Y-77417965D01*
X95307192Y-77417969D01*
X95310295Y-77422400D01*
X95477389Y-77589494D01*
X95481822Y-77592598D01*
X95481828Y-77592603D01*
X95662948Y-77719424D01*
X95701814Y-77763742D01*
X95715825Y-77820999D01*
X95701814Y-77878256D01*
X95662949Y-77922574D01*
X95481831Y-78049394D01*
X95477389Y-78052504D01*
X95473565Y-78056327D01*
X95473559Y-78056333D01*
X95314124Y-78215768D01*
X95314118Y-78215774D01*
X95310295Y-78219598D01*
X95307192Y-78224028D01*
X95307189Y-78224033D01*
X95177863Y-78408730D01*
X95177858Y-78408737D01*
X95174755Y-78413170D01*
X95172467Y-78418076D01*
X95172465Y-78418080D01*
X95077176Y-78622426D01*
X95077173Y-78622431D01*
X95074887Y-78627336D01*
X95073488Y-78632556D01*
X95073484Y-78632568D01*
X95015127Y-78850364D01*
X95015125Y-78850370D01*
X95013727Y-78855591D01*
X95013255Y-78860976D01*
X95013255Y-78860981D01*
X94993603Y-79085604D01*
X94993131Y-79090999D01*
X95013727Y-79326407D01*
X95015126Y-79331629D01*
X95015127Y-79331633D01*
X95073484Y-79549429D01*
X95073487Y-79549437D01*
X95074887Y-79554662D01*
X95077175Y-79559569D01*
X95077176Y-79559571D01*
X95172468Y-79763926D01*
X95172471Y-79763932D01*
X95174755Y-79768829D01*
X95177854Y-79773256D01*
X95177856Y-79773258D01*
X95307189Y-79957965D01*
X95307192Y-79957969D01*
X95310295Y-79962400D01*
X95477389Y-80129494D01*
X95481822Y-80132598D01*
X95481828Y-80132603D01*
X95662948Y-80259424D01*
X95701814Y-80303742D01*
X95715825Y-80360999D01*
X95701814Y-80418256D01*
X95662949Y-80462574D01*
X95481831Y-80589394D01*
X95477389Y-80592504D01*
X95473565Y-80596327D01*
X95473559Y-80596333D01*
X95314124Y-80755768D01*
X95314118Y-80755774D01*
X95310295Y-80759598D01*
X95307192Y-80764028D01*
X95307189Y-80764033D01*
X95177863Y-80948730D01*
X95177858Y-80948737D01*
X95174755Y-80953170D01*
X95172467Y-80958076D01*
X95172465Y-80958080D01*
X95077176Y-81162426D01*
X95077173Y-81162431D01*
X95074887Y-81167336D01*
X95073488Y-81172556D01*
X95073484Y-81172568D01*
X95015127Y-81390364D01*
X95015125Y-81390370D01*
X95013727Y-81395591D01*
X95013255Y-81400976D01*
X95013255Y-81400981D01*
X94993603Y-81625604D01*
X94993131Y-81630999D01*
X90017600Y-81630999D01*
X90017600Y-53424673D01*
X94998790Y-53424673D01*
X95002240Y-53437548D01*
X95015116Y-53440999D01*
X96082464Y-53440999D01*
X96095339Y-53437548D01*
X96098790Y-53424673D01*
X96098790Y-52357325D01*
X96095339Y-52344449D01*
X96082464Y-52340999D01*
X95454272Y-52340999D01*
X95447675Y-52341352D01*
X95399122Y-52346572D01*
X95384148Y-52350110D01*
X95265012Y-52394546D01*
X95249600Y-52402961D01*
X95148697Y-52478497D01*
X95136288Y-52490906D01*
X95060752Y-52591809D01*
X95052337Y-52607221D01*
X95007901Y-52726357D01*
X95004363Y-52741331D01*
X94999143Y-52789884D01*
X94998790Y-52796481D01*
X94998790Y-53424673D01*
X90017600Y-53424673D01*
X90017600Y-49958800D01*
X90034213Y-49896800D01*
X90079600Y-49851413D01*
X90141600Y-49834800D01*
X155875500Y-49834800D01*
X155937500Y-49851413D01*
G37*
%TD.AperFunction*%
%TD*%
M02*
