%TF.GenerationSoftware,KiCad,Pcbnew,(7.0.0)*%
%TF.CreationDate,2023-06-01T09:58:41-06:00*%
%TF.ProjectId,morseTrans_proto,6d6f7273-6554-4726-916e-735f70726f74,rev?*%
%TF.SameCoordinates,Original*%
%TF.FileFunction,Copper,L1,Top*%
%TF.FilePolarity,Positive*%
%FSLAX46Y46*%
G04 Gerber Fmt 4.6, Leading zero omitted, Abs format (unit mm)*
G04 Created by KiCad (PCBNEW (7.0.0)) date 2023-06-01 09:58:41*
%MOMM*%
%LPD*%
G01*
G04 APERTURE LIST*
G04 Aperture macros list*
%AMRoundRect*
0 Rectangle with rounded corners*
0 $1 Rounding radius*
0 $2 $3 $4 $5 $6 $7 $8 $9 X,Y pos of 4 corners*
0 Add a 4 corners polygon primitive as box body*
4,1,4,$2,$3,$4,$5,$6,$7,$8,$9,$2,$3,0*
0 Add four circle primitives for the rounded corners*
1,1,$1+$1,$2,$3*
1,1,$1+$1,$4,$5*
1,1,$1+$1,$6,$7*
1,1,$1+$1,$8,$9*
0 Add four rect primitives between the rounded corners*
20,1,$1+$1,$2,$3,$4,$5,0*
20,1,$1+$1,$4,$5,$6,$7,0*
20,1,$1+$1,$6,$7,$8,$9,0*
20,1,$1+$1,$8,$9,$2,$3,0*%
G04 Aperture macros list end*
%TA.AperFunction,ComponentPad*%
%ADD10R,2.000000X2.000000*%
%TD*%
%TA.AperFunction,ComponentPad*%
%ADD11C,2.000000*%
%TD*%
%TA.AperFunction,SMDPad,CuDef*%
%ADD12RoundRect,0.250000X-0.450000X0.262500X-0.450000X-0.262500X0.450000X-0.262500X0.450000X0.262500X0*%
%TD*%
%TA.AperFunction,ComponentPad*%
%ADD13R,1.700000X1.700000*%
%TD*%
%TA.AperFunction,ComponentPad*%
%ADD14O,1.700000X1.700000*%
%TD*%
%TA.AperFunction,ComponentPad*%
%ADD15C,1.192000*%
%TD*%
%TA.AperFunction,ComponentPad*%
%ADD16C,1.500000*%
%TD*%
%TA.AperFunction,ComponentPad*%
%ADD17R,2.000000X3.200000*%
%TD*%
%TA.AperFunction,SMDPad,CuDef*%
%ADD18RoundRect,0.250000X-0.262500X-0.450000X0.262500X-0.450000X0.262500X0.450000X-0.262500X0.450000X0*%
%TD*%
%TA.AperFunction,ComponentPad*%
%ADD19O,2.720000X3.240000*%
%TD*%
%TA.AperFunction,ComponentPad*%
%ADD20R,1.800000X1.800000*%
%TD*%
%TA.AperFunction,ComponentPad*%
%ADD21C,1.800000*%
%TD*%
%TA.AperFunction,SMDPad,CuDef*%
%ADD22RoundRect,0.243750X0.243750X0.456250X-0.243750X0.456250X-0.243750X-0.456250X0.243750X-0.456250X0*%
%TD*%
%TA.AperFunction,ViaPad*%
%ADD23C,0.800000*%
%TD*%
G04 APERTURE END LIST*
D10*
%TO.P,LS1,1,1*%
%TO.N,Net-(LS1-Pad1)*%
X104413999Y-62356999D03*
D11*
%TO.P,LS1,2,2*%
%TO.N,GND*%
X112014000Y-62357000D03*
%TD*%
D12*
%TO.P,R2,1*%
%TO.N,RESET*%
X138430000Y-88345000D03*
%TO.P,R2,2*%
%TO.N,GND*%
X138430000Y-90170000D03*
%TD*%
D13*
%TO.P,J3,1,Pin_1*%
%TO.N,GND*%
X129305999Y-85425999D03*
D14*
%TO.P,J3,2,Pin_2*%
%TO.N,unconnected-(J3-Pin_2-Pad2)*%
X126765999Y-85425999D03*
%TO.P,J3,3,Pin_3*%
%TO.N,TXD*%
X124225999Y-85425999D03*
%TO.P,J3,4,Pin_4*%
%TO.N,RXD*%
X121685999Y-85425999D03*
%TO.P,J3,5,Pin_5*%
%TO.N,unconnected-(J3-Pin_5-Pad5)*%
X119145999Y-85425999D03*
%TD*%
D12*
%TO.P,R3,1*%
%TO.N,PLAY*%
X106680000Y-88345000D03*
%TO.P,R3,2*%
%TO.N,GND*%
X106680000Y-90170000D03*
%TD*%
D15*
%TO.P,Display,1*%
%TO.N,N/C*%
X119888000Y-91186000D03*
%TO.P,Display,2*%
X119888000Y-93726000D03*
%TO.P,Display,3*%
X119888000Y-96266000D03*
%TO.P,Display,4*%
X119888000Y-98806000D03*
%TO.P,Display,5*%
X119888000Y-101346000D03*
%TO.P,Display,6*%
X119888000Y-103886000D03*
%TO.P,Display,7*%
X119888000Y-106426000D03*
%TO.P,Display,8*%
X119888000Y-108966000D03*
%TO.P,Display,9*%
X119888000Y-111506000D03*
%TO.P,Display,10*%
X127508000Y-111506000D03*
%TO.P,Display,11*%
X127508000Y-108966000D03*
%TO.P,Display,12*%
X127508000Y-106426000D03*
%TO.P,Display,13*%
X127508000Y-103886000D03*
%TO.P,Display,14*%
X127508000Y-101346000D03*
%TO.P,Display,15*%
X127508000Y-98806000D03*
%TO.P,Display,16*%
X127508000Y-96266000D03*
%TO.P,Display,17*%
X127508000Y-93726000D03*
%TO.P,Display,18*%
X127508000Y-91186000D03*
%TD*%
D16*
%TO.P,SW3,*%
%TO.N,*%
X135676000Y-94987000D03*
X140676000Y-94987000D03*
D10*
%TO.P,SW3,A,A*%
%TO.N,Increment*%
X135675999Y-109486999D03*
D11*
%TO.P,SW3,B,B*%
%TO.N,Decrement*%
X140676000Y-109487000D03*
%TO.P,SW3,C,C*%
%TO.N,GND*%
X138176000Y-109487000D03*
D17*
%TO.P,SW3,MP*%
%TO.N,N/C*%
X132575999Y-101986999D03*
X143775999Y-101986999D03*
%TD*%
D18*
%TO.P,R1,1*%
%TO.N,Net-(D1-K)*%
X111252000Y-73152000D03*
%TO.P,R1,2*%
%TO.N,GND*%
X113077000Y-73152000D03*
%TD*%
%TO.P,R4,1*%
%TO.N,Net-(R4-Pad1)*%
X103378000Y-73152000D03*
%TO.P,R4,2*%
%TO.N,Net-(LS1-Pad1)*%
X105203000Y-73152000D03*
%TD*%
D19*
%TO.P,RV1,*%
%TO.N,*%
X143483999Y-64131999D03*
X133883999Y-64131999D03*
D20*
%TO.P,RV1,1,1*%
%TO.N,OUTPUT*%
X141183999Y-56631999D03*
D21*
%TO.P,RV1,2,2*%
%TO.N,Net-(R4-Pad1)*%
X138684000Y-56632000D03*
%TO.P,RV1,3,3*%
%TO.N,GND*%
X136184000Y-56632000D03*
%TD*%
D22*
%TO.P,D1,1,K*%
%TO.N,Net-(D1-K)*%
X109171500Y-73152000D03*
%TO.P,D1,2,A*%
%TO.N,OUTPUT*%
X107296500Y-73152000D03*
%TD*%
D13*
%TO.P,J2,1,Pin_1*%
%TO.N,GND*%
X147110963Y-53706551D03*
D14*
%TO.P,J2,2,Pin_2*%
%TO.N,unconnected-(J2-Pin_2-Pad2)*%
X149650963Y-53706551D03*
%TO.P,J2,3,Pin_3*%
%TO.N,unconnected-(J2-Pin_3-Pad3)*%
X147110963Y-56246551D03*
%TO.P,J2,4,Pin_4*%
%TO.N,unconnected-(J2-Pin_4-Pad4)*%
X149650963Y-56246551D03*
%TO.P,J2,5,Pin_5*%
%TO.N,unconnected-(J2-Pin_5-Pad5)*%
X147110963Y-58786551D03*
%TO.P,J2,6,Pin_6*%
%TO.N,unconnected-(J2-Pin_6-Pad6)*%
X149650963Y-58786551D03*
%TO.P,J2,7,Pin_7*%
%TO.N,unconnected-(J2-Pin_7-Pad7)*%
X147110963Y-61326551D03*
%TO.P,J2,8,Pin_8*%
%TO.N,unconnected-(J2-Pin_8-Pad8)*%
X149650963Y-61326551D03*
%TO.P,J2,9,Pin_9*%
%TO.N,unconnected-(J2-Pin_9-Pad9)*%
X147110963Y-63866551D03*
%TO.P,J2,10,Pin_10*%
%TO.N,unconnected-(J2-Pin_10-Pad10)*%
X149650963Y-63866551D03*
%TO.P,J2,11,Pin_11*%
%TO.N,unconnected-(J2-Pin_11-Pad11)*%
X147110963Y-66406551D03*
%TO.P,J2,12,Pin_12*%
%TO.N,unconnected-(J2-Pin_12-Pad12)*%
X149650963Y-66406551D03*
%TO.P,J2,13,Pin_13*%
%TO.N,unconnected-(J2-Pin_13-Pad13)*%
X147110963Y-68946551D03*
%TO.P,J2,14,Pin_14*%
%TO.N,unconnected-(J2-Pin_14-Pad14)*%
X149650963Y-68946551D03*
%TO.P,J2,15,Pin_15*%
%TO.N,unconnected-(J2-Pin_15-Pad15)*%
X147110963Y-71486551D03*
%TO.P,J2,16,Pin_16*%
%TO.N,unconnected-(J2-Pin_16-Pad16)*%
X149650963Y-71486551D03*
%TO.P,J2,17,Pin_17*%
%TO.N,unconnected-(J2-Pin_17-Pad17)*%
X147110963Y-74026551D03*
%TO.P,J2,18,Pin_18*%
%TO.N,unconnected-(J2-Pin_18-Pad18)*%
X149650963Y-74026551D03*
%TO.P,J2,19,Pin_19*%
%TO.N,unconnected-(J2-Pin_19-Pad19)*%
X147110963Y-76566551D03*
%TO.P,J2,20,Pin_20*%
%TO.N,unconnected-(J2-Pin_20-Pad20)*%
X149650963Y-76566551D03*
%TO.P,J2,21,Pin_21*%
%TO.N,unconnected-(J2-Pin_21-Pad21)*%
X147110963Y-79106551D03*
%TO.P,J2,22,Pin_22*%
%TO.N,unconnected-(J2-Pin_22-Pad22)*%
X149650963Y-79106551D03*
%TO.P,J2,23,Pin_23*%
%TO.N,unconnected-(J2-Pin_23-Pad23)*%
X147110963Y-81646551D03*
%TO.P,J2,24,Pin_24*%
%TO.N,unconnected-(J2-Pin_24-Pad24)*%
X149650963Y-81646551D03*
%TO.P,J2,25,Pin_25*%
%TO.N,GND*%
X147110963Y-84186551D03*
%TO.P,J2,26,Pin_26*%
X149650963Y-84186551D03*
%TO.P,J2,27,Pin_27*%
%TO.N,unconnected-(J2-Pin_27-Pad27)*%
X147110963Y-86726551D03*
%TO.P,J2,28,Pin_28*%
%TO.N,unconnected-(J2-Pin_28-Pad28)*%
X149650963Y-86726551D03*
%TO.P,J2,29,Pin_29*%
%TO.N,unconnected-(J2-Pin_29-Pad29)*%
X147110963Y-89266551D03*
%TO.P,J2,30,Pin_30*%
%TO.N,unconnected-(J2-Pin_30-Pad30)*%
X149650963Y-89266551D03*
%TO.P,J2,31,Pin_31*%
%TO.N,unconnected-(J2-Pin_31-Pad31)*%
X147110963Y-91806551D03*
%TO.P,J2,32,Pin_32*%
%TO.N,unconnected-(J2-Pin_32-Pad32)*%
X149650963Y-91806551D03*
%TO.P,J2,33,Pin_33*%
%TO.N,unconnected-(J2-Pin_33-Pad33)*%
X147110963Y-94346551D03*
%TO.P,J2,34,Pin_34*%
%TO.N,unconnected-(J2-Pin_34-Pad34)*%
X149650963Y-94346551D03*
%TO.P,J2,35,Pin_35*%
%TO.N,unconnected-(J2-Pin_35-Pad35)*%
X147110963Y-96886551D03*
%TO.P,J2,36,Pin_36*%
%TO.N,unconnected-(J2-Pin_36-Pad36)*%
X149650963Y-96886551D03*
%TO.P,J2,37,Pin_37*%
%TO.N,unconnected-(J2-Pin_37-Pad37)*%
X147110963Y-99426551D03*
%TO.P,J2,38,Pin_38*%
%TO.N,unconnected-(J2-Pin_38-Pad38)*%
X149650963Y-99426551D03*
%TO.P,J2,39,Pin_39*%
%TO.N,unconnected-(J2-Pin_39-Pad39)*%
X147110963Y-101966551D03*
%TO.P,J2,40,Pin_40*%
%TO.N,unconnected-(J2-Pin_40-Pad40)*%
X149650963Y-101966551D03*
%TO.P,J2,41,Pin_41*%
%TO.N,unconnected-(J2-Pin_41-Pad41)*%
X147110963Y-104506551D03*
%TO.P,J2,42,Pin_42*%
%TO.N,unconnected-(J2-Pin_42-Pad42)*%
X149650963Y-104506551D03*
%TO.P,J2,43,Pin_43*%
%TO.N,unconnected-(J2-Pin_43-Pad43)*%
X147110963Y-107046551D03*
%TO.P,J2,44,Pin_44*%
%TO.N,unconnected-(J2-Pin_44-Pad44)*%
X149650963Y-107046551D03*
%TO.P,J2,45,Pin_45*%
%TO.N,unconnected-(J2-Pin_45-Pad45)*%
X147110963Y-109586551D03*
%TO.P,J2,46,Pin_46*%
%TO.N,unconnected-(J2-Pin_46-Pad46)*%
X149650963Y-109586551D03*
%TO.P,J2,47,Pin_47*%
%TO.N,unconnected-(J2-Pin_47-Pad47)*%
X147110963Y-112126551D03*
%TO.P,J2,48,Pin_48*%
%TO.N,unconnected-(J2-Pin_48-Pad48)*%
X149650963Y-112126551D03*
%TO.P,J2,49,Pin_49*%
%TO.N,unconnected-(J2-Pin_49-Pad49)*%
X147110963Y-114666551D03*
%TO.P,J2,50,Pin_50*%
%TO.N,GND*%
X149650963Y-114666551D03*
%TD*%
D13*
%TO.P,J1,1,Pin_1*%
%TO.N,GND*%
X96348789Y-53690998D03*
D14*
%TO.P,J1,2,Pin_2*%
%TO.N,5V*%
X98888789Y-53690998D03*
%TO.P,J1,3,Pin_3*%
%TO.N,3V*%
X96348789Y-56230998D03*
%TO.P,J1,4,Pin_4*%
%TO.N,unconnected-(J1-Pin_4-Pad4)*%
X98888789Y-56230998D03*
%TO.P,J1,5,Pin_5*%
%TO.N,unconnected-(J1-Pin_5-Pad5)*%
X96348789Y-58770998D03*
%TO.P,J1,6,Pin_6*%
%TO.N,unconnected-(J1-Pin_6-Pad6)*%
X98888789Y-58770998D03*
%TO.P,J1,7,Pin_7*%
%TO.N,unconnected-(J1-Pin_7-Pad7)*%
X96348789Y-61310998D03*
%TO.P,J1,8,Pin_8*%
%TO.N,unconnected-(J1-Pin_8-Pad8)*%
X98888789Y-61310998D03*
%TO.P,J1,9,Pin_9*%
%TO.N,unconnected-(J1-Pin_9-Pad9)*%
X96348789Y-63850998D03*
%TO.P,J1,10,Pin_10*%
%TO.N,unconnected-(J1-Pin_10-Pad10)*%
X98888789Y-63850998D03*
%TO.P,J1,11,Pin_11*%
%TO.N,unconnected-(J1-Pin_11-Pad11)*%
X96348789Y-66390998D03*
%TO.P,J1,12,Pin_12*%
%TO.N,unconnected-(J1-Pin_12-Pad12)*%
X98888789Y-66390998D03*
%TO.P,J1,13,Pin_13*%
%TO.N,unconnected-(J1-Pin_13-Pad13)*%
X96348789Y-68930998D03*
%TO.P,J1,14,Pin_14*%
%TO.N,unconnected-(J1-Pin_14-Pad14)*%
X98888789Y-68930998D03*
%TO.P,J1,15,Pin_15*%
%TO.N,unconnected-(J1-Pin_15-Pad15)*%
X96348789Y-71470998D03*
%TO.P,J1,16,Pin_16*%
%TO.N,unconnected-(J1-Pin_16-Pad16)*%
X98888789Y-71470998D03*
%TO.P,J1,17,Pin_17*%
%TO.N,unconnected-(J1-Pin_17-Pad17)*%
X96348789Y-74010998D03*
%TO.P,J1,18,Pin_18*%
%TO.N,unconnected-(J1-Pin_18-Pad18)*%
X98888789Y-74010998D03*
%TO.P,J1,19,Pin_19*%
%TO.N,unconnected-(J1-Pin_19-Pad19)*%
X96348789Y-76550998D03*
%TO.P,J1,20,Pin_20*%
%TO.N,unconnected-(J1-Pin_20-Pad20)*%
X98888789Y-76550998D03*
%TO.P,J1,21,Pin_21*%
%TO.N,unconnected-(J1-Pin_21-Pad21)*%
X96348789Y-79090998D03*
%TO.P,J1,22,Pin_22*%
%TO.N,unconnected-(J1-Pin_22-Pad22)*%
X98888789Y-79090998D03*
%TO.P,J1,23,Pin_23*%
%TO.N,unconnected-(J1-Pin_23-Pad23)*%
X96348789Y-81630998D03*
%TO.P,J1,24,Pin_24*%
%TO.N,unconnected-(J1-Pin_24-Pad24)*%
X98888789Y-81630998D03*
%TO.P,J1,25,Pin_25*%
%TO.N,GND*%
X96348789Y-84170998D03*
%TO.P,J1,26,Pin_26*%
X98888789Y-84170998D03*
%TO.P,J1,27,Pin_27*%
%TO.N,unconnected-(J1-Pin_27-Pad27)*%
X96348789Y-86710998D03*
%TO.P,J1,28,Pin_28*%
%TO.N,unconnected-(J1-Pin_28-Pad28)*%
X98888789Y-86710998D03*
%TO.P,J1,29,Pin_29*%
%TO.N,unconnected-(J1-Pin_29-Pad29)*%
X96348789Y-89250998D03*
%TO.P,J1,30,Pin_30*%
%TO.N,unconnected-(J1-Pin_30-Pad30)*%
X98888789Y-89250998D03*
%TO.P,J1,31,Pin_31*%
%TO.N,unconnected-(J1-Pin_31-Pad31)*%
X96348789Y-91790998D03*
%TO.P,J1,32,Pin_32*%
%TO.N,unconnected-(J1-Pin_32-Pad32)*%
X98888789Y-91790998D03*
%TO.P,J1,33,Pin_33*%
%TO.N,unconnected-(J1-Pin_33-Pad33)*%
X96348789Y-94330998D03*
%TO.P,J1,34,Pin_34*%
%TO.N,unconnected-(J1-Pin_34-Pad34)*%
X98888789Y-94330998D03*
%TO.P,J1,35,Pin_35*%
%TO.N,unconnected-(J1-Pin_35-Pad35)*%
X96348789Y-96870998D03*
%TO.P,J1,36,Pin_36*%
%TO.N,unconnected-(J1-Pin_36-Pad36)*%
X98888789Y-96870998D03*
%TO.P,J1,37,Pin_37*%
%TO.N,unconnected-(J1-Pin_37-Pad37)*%
X96348789Y-99410998D03*
%TO.P,J1,38,Pin_38*%
%TO.N,unconnected-(J1-Pin_38-Pad38)*%
X98888789Y-99410998D03*
%TO.P,J1,39,Pin_39*%
%TO.N,unconnected-(J1-Pin_39-Pad39)*%
X96348789Y-101950998D03*
%TO.P,J1,40,Pin_40*%
%TO.N,unconnected-(J1-Pin_40-Pad40)*%
X98888789Y-101950998D03*
%TO.P,J1,41,Pin_41*%
%TO.N,unconnected-(J1-Pin_41-Pad41)*%
X96348789Y-104490998D03*
%TO.P,J1,42,Pin_42*%
%TO.N,unconnected-(J1-Pin_42-Pad42)*%
X98888789Y-104490998D03*
%TO.P,J1,43,Pin_43*%
%TO.N,unconnected-(J1-Pin_43-Pad43)*%
X96348789Y-107030998D03*
%TO.P,J1,44,Pin_44*%
%TO.N,unconnected-(J1-Pin_44-Pad44)*%
X98888789Y-107030998D03*
%TO.P,J1,45,Pin_45*%
%TO.N,unconnected-(J1-Pin_45-Pad45)*%
X96348789Y-109570998D03*
%TO.P,J1,46,Pin_46*%
%TO.N,unconnected-(J1-Pin_46-Pad46)*%
X98888789Y-109570998D03*
%TO.P,J1,47,Pin_47*%
%TO.N,unconnected-(J1-Pin_47-Pad47)*%
X96348789Y-112110998D03*
%TO.P,J1,48,Pin_48*%
%TO.N,3V*%
X98888789Y-112110998D03*
%TO.P,J1,49,Pin_49*%
%TO.N,5V*%
X96348789Y-114650998D03*
%TO.P,J1,50,Pin_50*%
%TO.N,GND*%
X98888789Y-114650998D03*
%TD*%
D23*
%TO.N,GND*%
X129286000Y-87884000D03*
X114300000Y-73152000D03*
X136144000Y-54610000D03*
X112014000Y-64516000D03*
X106680000Y-91440000D03*
X138430000Y-91440000D03*
%TD*%
M02*
